G04*
G04 #@! TF.GenerationSoftware,Altium Limited,CircuitStudio,1.5.2 (30)*
G04*
G04 Layer_Color=13948096*
%FSLAX25Y25*%
%MOIN*%
G70*
G01*
G75*
%ADD10C,0.01000*%
D10*
X923600Y443800D02*
X920733Y447894D01*
X918686Y446461D01*
X918481Y445301D01*
X919437Y443936D01*
X920597Y443731D01*
X922644Y445165D01*
X921280Y444209D02*
X920870Y441889D01*
X916776Y439022D02*
X919506Y440933D01*
X914865Y441751D01*
X914387Y442434D01*
X914591Y443594D01*
X915956Y444550D01*
X917116Y444345D01*
X913364Y436633D02*
X910497Y440727D01*
X913978Y440113D01*
X911248Y438202D01*
X904000Y430300D02*
X901133Y434394D01*
X899086Y432961D01*
X898881Y431801D01*
X899837Y430436D01*
X900997Y430231D01*
X903044Y431665D01*
X901680Y430709D02*
X901270Y428389D01*
X897176Y425522D02*
X899906Y427433D01*
X895265Y428251D01*
X894787Y428934D01*
X894991Y430094D01*
X896356Y431050D01*
X897516Y430845D01*
X893422Y427978D02*
X892262Y428183D01*
X890897Y427227D01*
X890692Y426067D01*
X891170Y425384D01*
X892330Y425180D01*
X893013Y425658D01*
X892330Y425180D01*
X892126Y424020D01*
X892604Y423337D01*
X893764Y423133D01*
X895129Y424088D01*
X895333Y425248D01*
X885403Y460783D02*
X886768Y461739D01*
X886086Y461261D01*
X888475Y457849D01*
X889635Y457644D01*
X890318Y458122D01*
X890522Y459282D01*
X884858Y454300D02*
X881991Y458394D01*
X885472Y457780D01*
X882743Y455869D01*
M02*
