G04*
G04 #@! TF.GenerationSoftware,Altium Limited,CircuitStudio,1.5.2 (30)*
G04*
G04 Layer_Color=20142*
%FSLAX25Y25*%
%MOIN*%
G70*
G01*
G75*
%ADD120C,0.03292*%
G04:AMPARAMS|DCode=121|XSize=27.69mil|YSize=31.62mil|CornerRadius=0mil|HoleSize=0mil|Usage=FLASHONLY|Rotation=265.000|XOffset=0mil|YOffset=0mil|HoleType=Round|Shape=Rectangle|*
%AMROTATEDRECTD121*
4,1,4,-0.01454,0.01517,0.01696,0.01241,0.01454,-0.01517,-0.01696,-0.01241,-0.01454,0.01517,0.0*
%
%ADD121ROTATEDRECTD121*%

G04:AMPARAMS|DCode=122|XSize=91.47mil|YSize=67.06mil|CornerRadius=0mil|HoleSize=0mil|Usage=FLASHONLY|Rotation=155.000|XOffset=0mil|YOffset=0mil|HoleType=Round|Shape=Rectangle|*
%AMROTATEDRECTD122*
4,1,4,0.05562,0.01106,0.02728,-0.04971,-0.05562,-0.01106,-0.02728,0.04971,0.05562,0.01106,0.0*
%
%ADD122ROTATEDRECTD122*%

G04:AMPARAMS|DCode=123|XSize=43.43mil|YSize=35.56mil|CornerRadius=0mil|HoleSize=0mil|Usage=FLASHONLY|Rotation=245.000|XOffset=0mil|YOffset=0mil|HoleType=Round|Shape=Rectangle|*
%AMROTATEDRECTD123*
4,1,4,-0.00694,0.02720,0.02529,0.01217,0.00694,-0.02720,-0.02529,-0.01217,-0.00694,0.02720,0.0*
%
%ADD123ROTATEDRECTD123*%

G04:AMPARAMS|DCode=124|XSize=85.56mil|YSize=133.59mil|CornerRadius=13.7mil|HoleSize=0mil|Usage=FLASHONLY|Rotation=335.000|XOffset=0mil|YOffset=0mil|HoleType=Round|Shape=RoundedRectangle|*
%AMROUNDEDRECTD124*
21,1,0.08556,0.10620,0,0,335.0*
21,1,0.05817,0.13359,0,0,335.0*
1,1,0.02739,0.00392,-0.06042*
1,1,0.02739,-0.04880,-0.03583*
1,1,0.02739,-0.00392,0.06042*
1,1,0.02739,0.04880,0.03583*
%
%ADD124ROUNDEDRECTD124*%
G04:AMPARAMS|DCode=125|XSize=85.56mil|YSize=43.04mil|CornerRadius=8.38mil|HoleSize=0mil|Usage=FLASHONLY|Rotation=335.000|XOffset=0mil|YOffset=0mil|HoleType=Round|Shape=RoundedRectangle|*
%AMROUNDEDRECTD125*
21,1,0.08556,0.02628,0,0,335.0*
21,1,0.06880,0.04304,0,0,335.0*
1,1,0.01676,0.02562,-0.02645*
1,1,0.01676,-0.03673,0.00263*
1,1,0.01676,-0.02562,0.02645*
1,1,0.01676,0.03673,-0.00263*
%
%ADD125ROUNDEDRECTD125*%
G04:AMPARAMS|DCode=126|XSize=43.43mil|YSize=35.56mil|CornerRadius=0mil|HoleSize=0mil|Usage=FLASHONLY|Rotation=230.000|XOffset=0mil|YOffset=0mil|HoleType=Round|Shape=Rectangle|*
%AMROTATEDRECTD126*
4,1,4,0.00034,0.02806,0.02758,0.00521,-0.00034,-0.02806,-0.02758,-0.00521,0.00034,0.02806,0.0*
%
%ADD126ROTATEDRECTD126*%

G04:AMPARAMS|DCode=127|XSize=91.47mil|YSize=67.06mil|CornerRadius=0mil|HoleSize=0mil|Usage=FLASHONLY|Rotation=140.000|XOffset=0mil|YOffset=0mil|HoleType=Round|Shape=Rectangle|*
%AMROTATEDRECTD127*
4,1,4,0.05658,-0.00371,0.01348,-0.05508,-0.05658,0.00371,-0.01348,0.05508,0.05658,-0.00371,0.0*
%
%ADD127ROTATEDRECTD127*%

G04:AMPARAMS|DCode=128|XSize=85.56mil|YSize=133.59mil|CornerRadius=13.7mil|HoleSize=0mil|Usage=FLASHONLY|Rotation=320.000|XOffset=0mil|YOffset=0mil|HoleType=Round|Shape=RoundedRectangle|*
%AMROUNDEDRECTD128*
21,1,0.08556,0.10620,0,0,320.0*
21,1,0.05817,0.13359,0,0,320.0*
1,1,0.02739,-0.01185,-0.05937*
1,1,0.02739,-0.05641,-0.02198*
1,1,0.02739,0.01185,0.05937*
1,1,0.02739,0.05641,0.02198*
%
%ADD128ROUNDEDRECTD128*%
G04:AMPARAMS|DCode=129|XSize=85.56mil|YSize=43.04mil|CornerRadius=8.38mil|HoleSize=0mil|Usage=FLASHONLY|Rotation=320.000|XOffset=0mil|YOffset=0mil|HoleType=Round|Shape=RoundedRectangle|*
%AMROUNDEDRECTD129*
21,1,0.08556,0.02628,0,0,320.0*
21,1,0.06880,0.04304,0,0,320.0*
1,1,0.01676,0.01791,-0.03218*
1,1,0.01676,-0.03480,0.01205*
1,1,0.01676,-0.01791,0.03218*
1,1,0.01676,0.03480,-0.01205*
%
%ADD129ROUNDEDRECTD129*%
G04:AMPARAMS|DCode=130|XSize=43.43mil|YSize=35.56mil|CornerRadius=0mil|HoleSize=0mil|Usage=FLASHONLY|Rotation=215.000|XOffset=0mil|YOffset=0mil|HoleType=Round|Shape=Rectangle|*
%AMROTATEDRECTD130*
4,1,4,0.00759,0.02702,0.02799,-0.00211,-0.00759,-0.02702,-0.02799,0.00211,0.00759,0.02702,0.0*
%
%ADD130ROTATEDRECTD130*%

G04:AMPARAMS|DCode=131|XSize=85.56mil|YSize=133.59mil|CornerRadius=13.7mil|HoleSize=0mil|Usage=FLASHONLY|Rotation=305.000|XOffset=0mil|YOffset=0mil|HoleType=Round|Shape=RoundedRectangle|*
%AMROUNDEDRECTD131*
21,1,0.08556,0.10620,0,0,305.0*
21,1,0.05817,0.13359,0,0,305.0*
1,1,0.02739,-0.02682,-0.05428*
1,1,0.02739,-0.06018,-0.00663*
1,1,0.02739,0.02682,0.05428*
1,1,0.02739,0.06018,0.00663*
%
%ADD131ROUNDEDRECTD131*%
G04:AMPARAMS|DCode=132|XSize=85.56mil|YSize=43.04mil|CornerRadius=8.38mil|HoleSize=0mil|Usage=FLASHONLY|Rotation=305.000|XOffset=0mil|YOffset=0mil|HoleType=Round|Shape=RoundedRectangle|*
%AMROUNDEDRECTD132*
21,1,0.08556,0.02628,0,0,305.0*
21,1,0.06880,0.04304,0,0,305.0*
1,1,0.01676,0.00897,-0.03572*
1,1,0.01676,-0.03049,0.02064*
1,1,0.01676,-0.00897,0.03572*
1,1,0.01676,0.03049,-0.02064*
%
%ADD132ROUNDEDRECTD132*%
G04:AMPARAMS|DCode=133|XSize=91.47mil|YSize=67.06mil|CornerRadius=0mil|HoleSize=0mil|Usage=FLASHONLY|Rotation=125.000|XOffset=0mil|YOffset=0mil|HoleType=Round|Shape=Rectangle|*
%AMROTATEDRECTD133*
4,1,4,0.05370,-0.01823,-0.00123,-0.05669,-0.05370,0.01823,0.00123,0.05669,0.05370,-0.01823,0.0*
%
%ADD133ROTATEDRECTD133*%

G04:AMPARAMS|DCode=134|XSize=31.62mil|YSize=69.02mil|CornerRadius=0mil|HoleSize=0mil|Usage=FLASHONLY|Rotation=83.000|XOffset=0mil|YOffset=0mil|HoleType=Round|Shape=Rectangle|*
%AMROTATEDRECTD134*
4,1,4,0.03233,-0.01990,-0.03618,-0.01149,-0.03233,0.01990,0.03618,0.01149,0.03233,-0.01990,0.0*
%
%ADD134ROTATEDRECTD134*%

G04:AMPARAMS|DCode=135|XSize=55.24mil|YSize=78.87mil|CornerRadius=0mil|HoleSize=0mil|Usage=FLASHONLY|Rotation=83.000|XOffset=0mil|YOffset=0mil|HoleType=Round|Shape=Rectangle|*
%AMROTATEDRECTD135*
4,1,4,0.03578,-0.03222,-0.04251,-0.02261,-0.03578,0.03222,0.04251,0.02261,0.03578,-0.03222,0.0*
%
%ADD135ROTATEDRECTD135*%

%ADD136R,0.04068X0.03261*%
%ADD137C,0.40957*%
%ADD138R,0.03950X0.05682*%
%ADD139R,0.04540X0.10642*%
%ADD140R,0.05328X0.09461*%
%ADD141R,0.05367X0.05721*%
%ADD142R,0.05367X0.05524*%
%ADD143R,0.06706X0.05328*%
G04:AMPARAMS|DCode=144|XSize=43.43mil|YSize=39.5mil|CornerRadius=0mil|HoleSize=0mil|Usage=FLASHONLY|Rotation=265.000|XOffset=0mil|YOffset=0mil|HoleType=Round|Shape=Rectangle|*
%AMROTATEDRECTD144*
4,1,4,-0.01778,0.02336,0.02157,0.01991,0.01778,-0.02336,-0.02157,-0.01991,-0.01778,0.02336,0.0*
%
%ADD144ROTATEDRECTD144*%

%ADD145R,0.03162X0.02769*%
%ADD146R,0.03950X0.04343*%
%ADD147R,0.04343X0.03556*%
G04:AMPARAMS|DCode=148|XSize=31.62mil|YSize=61.15mil|CornerRadius=5.77mil|HoleSize=0mil|Usage=FLASHONLY|Rotation=0.000|XOffset=0mil|YOffset=0mil|HoleType=Round|Shape=RoundedRectangle|*
%AMROUNDEDRECTD148*
21,1,0.03162,0.04961,0,0,0.0*
21,1,0.02008,0.06115,0,0,0.0*
1,1,0.01154,0.01004,-0.02480*
1,1,0.01154,-0.01004,-0.02480*
1,1,0.01154,-0.01004,0.02480*
1,1,0.01154,0.01004,0.02480*
%
%ADD148ROUNDEDRECTD148*%
%ADD149R,0.02769X0.03162*%
G04:AMPARAMS|DCode=150|XSize=43.43mil|YSize=39.5mil|CornerRadius=0mil|HoleSize=0mil|Usage=FLASHONLY|Rotation=125.000|XOffset=0mil|YOffset=0mil|HoleType=Round|Shape=Rectangle|*
%AMROTATEDRECTD150*
4,1,4,0.02863,-0.00646,-0.00372,-0.02912,-0.02863,0.00646,0.00372,0.02912,0.02863,-0.00646,0.0*
%
%ADD150ROTATEDRECTD150*%

G04:AMPARAMS|DCode=151|XSize=43.43mil|YSize=39.5mil|CornerRadius=0mil|HoleSize=0mil|Usage=FLASHONLY|Rotation=35.000|XOffset=0mil|YOffset=0mil|HoleType=Round|Shape=Rectangle|*
%AMROTATEDRECTD151*
4,1,4,-0.00646,-0.02863,-0.02912,0.00372,0.00646,0.02863,0.02912,-0.00372,-0.00646,-0.02863,0.0*
%
%ADD151ROTATEDRECTD151*%

G04:AMPARAMS|DCode=152|XSize=65.87mil|YSize=19.02mil|CornerRadius=5.38mil|HoleSize=0mil|Usage=FLASHONLY|Rotation=215.000|XOffset=0mil|YOffset=0mil|HoleType=Round|Shape=RoundedRectangle|*
%AMROUNDEDRECTD152*
21,1,0.06587,0.00827,0,0,215.0*
21,1,0.05512,0.01902,0,0,215.0*
1,1,0.01076,-0.02494,-0.01242*
1,1,0.01076,0.02020,0.01919*
1,1,0.01076,0.02494,0.01242*
1,1,0.01076,-0.02020,-0.01919*
%
%ADD152ROUNDEDRECTD152*%
G04:AMPARAMS|DCode=153|XSize=31.62mil|YSize=69.02mil|CornerRadius=0mil|HoleSize=0mil|Usage=FLASHONLY|Rotation=35.000|XOffset=0mil|YOffset=0mil|HoleType=Round|Shape=Rectangle|*
%AMROTATEDRECTD153*
4,1,4,0.00684,-0.03734,-0.03275,0.01920,-0.00684,0.03734,0.03275,-0.01920,0.00684,-0.03734,0.0*
%
%ADD153ROTATEDRECTD153*%

G04:AMPARAMS|DCode=154|XSize=55.24mil|YSize=78.87mil|CornerRadius=0mil|HoleSize=0mil|Usage=FLASHONLY|Rotation=35.000|XOffset=0mil|YOffset=0mil|HoleType=Round|Shape=Rectangle|*
%AMROTATEDRECTD154*
4,1,4,-0.00001,-0.04815,-0.04524,0.01646,0.00001,0.04815,0.04524,-0.01646,-0.00001,-0.04815,0.0*
%
%ADD154ROTATEDRECTD154*%

G04:AMPARAMS|DCode=155|XSize=30mil|YSize=59mil|CornerRadius=0mil|HoleSize=0mil|Usage=FLASHONLY|Rotation=215.000|XOffset=0mil|YOffset=0mil|HoleType=Round|Shape=Rectangle|*
%AMROTATEDRECTD155*
4,1,4,-0.00463,0.03277,0.02921,-0.01556,0.00463,-0.03277,-0.02921,0.01556,-0.00463,0.03277,0.0*
%
%ADD155ROTATEDRECTD155*%

G04:AMPARAMS|DCode=156|XSize=31.62mil|YSize=69.02mil|CornerRadius=0mil|HoleSize=0mil|Usage=FLASHONLY|Rotation=70.000|XOffset=0mil|YOffset=0mil|HoleType=Round|Shape=Rectangle|*
%AMROTATEDRECTD156*
4,1,4,0.02702,-0.02666,-0.03784,-0.00305,-0.02702,0.02666,0.03784,0.00305,0.02702,-0.02666,0.0*
%
%ADD156ROTATEDRECTD156*%

G04:AMPARAMS|DCode=157|XSize=55.24mil|YSize=78.87mil|CornerRadius=0mil|HoleSize=0mil|Usage=FLASHONLY|Rotation=70.000|XOffset=0mil|YOffset=0mil|HoleType=Round|Shape=Rectangle|*
%AMROTATEDRECTD157*
4,1,4,0.02761,-0.03944,-0.04650,-0.01247,-0.02761,0.03944,0.04650,0.01247,0.02761,-0.03944,0.0*
%
%ADD157ROTATEDRECTD157*%

G04:AMPARAMS|DCode=158|XSize=43.43mil|YSize=35.56mil|CornerRadius=0mil|HoleSize=0mil|Usage=FLASHONLY|Rotation=195.000|XOffset=0mil|YOffset=0mil|HoleType=Round|Shape=Rectangle|*
%AMROTATEDRECTD158*
4,1,4,0.01638,0.02279,0.02558,-0.01155,-0.01638,-0.02279,-0.02558,0.01155,0.01638,0.02279,0.0*
%
%ADD158ROTATEDRECTD158*%

G04:AMPARAMS|DCode=159|XSize=43.43mil|YSize=39.5mil|CornerRadius=0mil|HoleSize=0mil|Usage=FLASHONLY|Rotation=15.000|XOffset=0mil|YOffset=0mil|HoleType=Round|Shape=Rectangle|*
%AMROTATEDRECTD159*
4,1,4,-0.01587,-0.02470,-0.02609,0.01345,0.01587,0.02470,0.02609,-0.01345,-0.01587,-0.02470,0.0*
%
%ADD159ROTATEDRECTD159*%

G04:AMPARAMS|DCode=160|XSize=55.64mil|YSize=31.23mil|CornerRadius=9.81mil|HoleSize=0mil|Usage=FLASHONLY|Rotation=285.000|XOffset=0mil|YOffset=0mil|HoleType=Round|Shape=RoundedRectangle|*
%AMROUNDEDRECTD160*
21,1,0.05564,0.01161,0,0,285.0*
21,1,0.03602,0.03123,0,0,285.0*
1,1,0.01961,-0.00095,-0.01890*
1,1,0.01961,-0.01027,0.01590*
1,1,0.01961,0.00095,0.01890*
1,1,0.01961,0.01027,-0.01590*
%
%ADD160ROUNDEDRECTD160*%
G04:AMPARAMS|DCode=161|XSize=31.62mil|YSize=69.02mil|CornerRadius=0mil|HoleSize=0mil|Usage=FLASHONLY|Rotation=15.000|XOffset=0mil|YOffset=0mil|HoleType=Round|Shape=Rectangle|*
%AMROTATEDRECTD161*
4,1,4,-0.00634,-0.03743,-0.02420,0.02924,0.00634,0.03743,0.02420,-0.02924,-0.00634,-0.03743,0.0*
%
%ADD161ROTATEDRECTD161*%

G04:AMPARAMS|DCode=162|XSize=55.24mil|YSize=78.87mil|CornerRadius=0mil|HoleSize=0mil|Usage=FLASHONLY|Rotation=15.000|XOffset=0mil|YOffset=0mil|HoleType=Round|Shape=Rectangle|*
%AMROTATEDRECTD162*
4,1,4,-0.01647,-0.04524,-0.03689,0.03094,0.01647,0.04524,0.03689,-0.03094,-0.01647,-0.04524,0.0*
%
%ADD162ROTATEDRECTD162*%

G04:AMPARAMS|DCode=163|XSize=43.43mil|YSize=35.56mil|CornerRadius=0mil|HoleSize=0mil|Usage=FLASHONLY|Rotation=235.000|XOffset=0mil|YOffset=0mil|HoleType=Round|Shape=Rectangle|*
%AMROTATEDRECTD163*
4,1,4,-0.00211,0.02799,0.02702,0.00759,0.00211,-0.02799,-0.02702,-0.00759,-0.00211,0.02799,0.0*
%
%ADD163ROTATEDRECTD163*%

G04:AMPARAMS|DCode=164|XSize=43.43mil|YSize=39.5mil|CornerRadius=0mil|HoleSize=0mil|Usage=FLASHONLY|Rotation=55.000|XOffset=0mil|YOffset=0mil|HoleType=Round|Shape=Rectangle|*
%AMROTATEDRECTD164*
4,1,4,0.00372,-0.02912,-0.02863,-0.00646,-0.00372,0.02912,0.02863,0.00646,0.00372,-0.02912,0.0*
%
%ADD164ROTATEDRECTD164*%

G04:AMPARAMS|DCode=165|XSize=55.64mil|YSize=31.23mil|CornerRadius=9.81mil|HoleSize=0mil|Usage=FLASHONLY|Rotation=325.000|XOffset=0mil|YOffset=0mil|HoleType=Round|Shape=RoundedRectangle|*
%AMROUNDEDRECTD165*
21,1,0.05564,0.01161,0,0,325.0*
21,1,0.03602,0.03123,0,0,325.0*
1,1,0.01961,0.01142,-0.01509*
1,1,0.01961,-0.01809,0.00557*
1,1,0.01961,-0.01142,0.01509*
1,1,0.01961,0.01809,-0.00557*
%
%ADD165ROUNDEDRECTD165*%
G04:AMPARAMS|DCode=166|XSize=31.62mil|YSize=69.02mil|CornerRadius=0mil|HoleSize=0mil|Usage=FLASHONLY|Rotation=55.000|XOffset=0mil|YOffset=0mil|HoleType=Round|Shape=Rectangle|*
%AMROTATEDRECTD166*
4,1,4,0.01920,-0.03275,-0.03734,0.00684,-0.01920,0.03275,0.03734,-0.00684,0.01920,-0.03275,0.0*
%
%ADD166ROTATEDRECTD166*%

G04:AMPARAMS|DCode=167|XSize=55.24mil|YSize=78.87mil|CornerRadius=0mil|HoleSize=0mil|Usage=FLASHONLY|Rotation=55.000|XOffset=0mil|YOffset=0mil|HoleType=Round|Shape=Rectangle|*
%AMROTATEDRECTD167*
4,1,4,0.01646,-0.04524,-0.04815,-0.00001,-0.01646,0.04524,0.04815,0.00001,0.01646,-0.04524,0.0*
%
%ADD167ROTATEDRECTD167*%

G04:AMPARAMS|DCode=168|XSize=43.43mil|YSize=35.56mil|CornerRadius=0mil|HoleSize=0mil|Usage=FLASHONLY|Rotation=260.000|XOffset=0mil|YOffset=0mil|HoleType=Round|Shape=Rectangle|*
%AMROTATEDRECTD168*
4,1,4,-0.01374,0.02447,0.02128,0.01830,0.01374,-0.02447,-0.02128,-0.01830,-0.01374,0.02447,0.0*
%
%ADD168ROTATEDRECTD168*%

G04:AMPARAMS|DCode=169|XSize=91.47mil|YSize=67.06mil|CornerRadius=0mil|HoleSize=0mil|Usage=FLASHONLY|Rotation=170.000|XOffset=0mil|YOffset=0mil|HoleType=Round|Shape=Rectangle|*
%AMROTATEDRECTD169*
4,1,4,0.05086,0.02508,0.03922,-0.04096,-0.05086,-0.02508,-0.03922,0.04096,0.05086,0.02508,0.0*
%
%ADD169ROTATEDRECTD169*%

G04:AMPARAMS|DCode=170|XSize=85.56mil|YSize=133.59mil|CornerRadius=13.7mil|HoleSize=0mil|Usage=FLASHONLY|Rotation=350.000|XOffset=0mil|YOffset=0mil|HoleType=Round|Shape=RoundedRectangle|*
%AMROUNDEDRECTD170*
21,1,0.08556,0.10620,0,0,350.0*
21,1,0.05817,0.13359,0,0,350.0*
1,1,0.02739,0.01942,-0.05734*
1,1,0.02739,-0.03786,-0.04724*
1,1,0.02739,-0.01942,0.05734*
1,1,0.02739,0.03786,0.04724*
%
%ADD170ROUNDEDRECTD170*%
G04:AMPARAMS|DCode=171|XSize=85.56mil|YSize=43.04mil|CornerRadius=8.38mil|HoleSize=0mil|Usage=FLASHONLY|Rotation=350.000|XOffset=0mil|YOffset=0mil|HoleType=Round|Shape=RoundedRectangle|*
%AMROUNDEDRECTD171*
21,1,0.08556,0.02628,0,0,350.0*
21,1,0.06880,0.04304,0,0,350.0*
1,1,0.01676,0.03160,-0.01891*
1,1,0.01676,-0.03616,-0.00697*
1,1,0.01676,-0.03160,0.01891*
1,1,0.01676,0.03616,0.00697*
%
%ADD171ROUNDEDRECTD171*%
G04:AMPARAMS|DCode=172|XSize=43.43mil|YSize=35.56mil|CornerRadius=0mil|HoleSize=0mil|Usage=FLASHONLY|Rotation=280.000|XOffset=0mil|YOffset=0mil|HoleType=Round|Shape=Rectangle|*
%AMROTATEDRECTD172*
4,1,4,-0.02128,0.01830,0.01374,0.02447,0.02128,-0.01830,-0.01374,-0.02447,-0.02128,0.01830,0.0*
%
%ADD172ROTATEDRECTD172*%

G04:AMPARAMS|DCode=173|XSize=91.47mil|YSize=67.06mil|CornerRadius=0mil|HoleSize=0mil|Usage=FLASHONLY|Rotation=190.000|XOffset=0mil|YOffset=0mil|HoleType=Round|Shape=Rectangle|*
%AMROTATEDRECTD173*
4,1,4,0.03922,0.04096,0.05086,-0.02508,-0.03922,-0.04096,-0.05086,0.02508,0.03922,0.04096,0.0*
%
%ADD173ROTATEDRECTD173*%

G04:AMPARAMS|DCode=174|XSize=85.56mil|YSize=43.04mil|CornerRadius=8.38mil|HoleSize=0mil|Usage=FLASHONLY|Rotation=10.000|XOffset=0mil|YOffset=0mil|HoleType=Round|Shape=RoundedRectangle|*
%AMROUNDEDRECTD174*
21,1,0.08556,0.02628,0,0,10.0*
21,1,0.06880,0.04304,0,0,10.0*
1,1,0.01676,0.03616,-0.00697*
1,1,0.01676,-0.03160,-0.01891*
1,1,0.01676,-0.03616,0.00697*
1,1,0.01676,0.03160,0.01891*
%
%ADD174ROUNDEDRECTD174*%
G04:AMPARAMS|DCode=175|XSize=85.56mil|YSize=133.59mil|CornerRadius=13.7mil|HoleSize=0mil|Usage=FLASHONLY|Rotation=10.000|XOffset=0mil|YOffset=0mil|HoleType=Round|Shape=RoundedRectangle|*
%AMROUNDEDRECTD175*
21,1,0.08556,0.10620,0,0,10.0*
21,1,0.05817,0.13359,0,0,10.0*
1,1,0.02739,0.03786,-0.04724*
1,1,0.02739,-0.01942,-0.05734*
1,1,0.02739,-0.03786,0.04724*
1,1,0.02739,0.01942,0.05734*
%
%ADD175ROUNDEDRECTD175*%
G04:AMPARAMS|DCode=176|XSize=43.43mil|YSize=35.56mil|CornerRadius=0mil|HoleSize=0mil|Usage=FLASHONLY|Rotation=295.000|XOffset=0mil|YOffset=0mil|HoleType=Round|Shape=Rectangle|*
%AMROTATEDRECTD176*
4,1,4,-0.02529,0.01217,0.00694,0.02720,0.02529,-0.01217,-0.00694,-0.02720,-0.02529,0.01217,0.0*
%
%ADD176ROTATEDRECTD176*%

G04:AMPARAMS|DCode=177|XSize=91.47mil|YSize=67.06mil|CornerRadius=0mil|HoleSize=0mil|Usage=FLASHONLY|Rotation=205.000|XOffset=0mil|YOffset=0mil|HoleType=Round|Shape=Rectangle|*
%AMROTATEDRECTD177*
4,1,4,0.02728,0.04971,0.05562,-0.01106,-0.02728,-0.04971,-0.05562,0.01106,0.02728,0.04971,0.0*
%
%ADD177ROTATEDRECTD177*%

G04:AMPARAMS|DCode=178|XSize=85.56mil|YSize=43.04mil|CornerRadius=8.38mil|HoleSize=0mil|Usage=FLASHONLY|Rotation=25.000|XOffset=0mil|YOffset=0mil|HoleType=Round|Shape=RoundedRectangle|*
%AMROUNDEDRECTD178*
21,1,0.08556,0.02628,0,0,25.0*
21,1,0.06880,0.04304,0,0,25.0*
1,1,0.01676,0.03673,0.00263*
1,1,0.01676,-0.02562,-0.02645*
1,1,0.01676,-0.03673,-0.00263*
1,1,0.01676,0.02562,0.02645*
%
%ADD178ROUNDEDRECTD178*%
G04:AMPARAMS|DCode=179|XSize=85.56mil|YSize=133.59mil|CornerRadius=13.7mil|HoleSize=0mil|Usage=FLASHONLY|Rotation=25.000|XOffset=0mil|YOffset=0mil|HoleType=Round|Shape=RoundedRectangle|*
%AMROUNDEDRECTD179*
21,1,0.08556,0.10620,0,0,25.0*
21,1,0.05817,0.13359,0,0,25.0*
1,1,0.02739,0.04880,-0.03583*
1,1,0.02739,-0.00392,-0.06042*
1,1,0.02739,-0.04880,0.03583*
1,1,0.02739,0.00392,0.06042*
%
%ADD179ROUNDEDRECTD179*%
G04:AMPARAMS|DCode=180|XSize=43.43mil|YSize=35.56mil|CornerRadius=0mil|HoleSize=0mil|Usage=FLASHONLY|Rotation=310.000|XOffset=0mil|YOffset=0mil|HoleType=Round|Shape=Rectangle|*
%AMROTATEDRECTD180*
4,1,4,-0.02758,0.00521,-0.00034,0.02806,0.02758,-0.00521,0.00034,-0.02806,-0.02758,0.00521,0.0*
%
%ADD180ROTATEDRECTD180*%

G04:AMPARAMS|DCode=181|XSize=91.47mil|YSize=67.06mil|CornerRadius=0mil|HoleSize=0mil|Usage=FLASHONLY|Rotation=220.000|XOffset=0mil|YOffset=0mil|HoleType=Round|Shape=Rectangle|*
%AMROTATEDRECTD181*
4,1,4,0.01348,0.05508,0.05658,0.00371,-0.01348,-0.05508,-0.05658,-0.00371,0.01348,0.05508,0.0*
%
%ADD181ROTATEDRECTD181*%

G04:AMPARAMS|DCode=182|XSize=85.56mil|YSize=43.04mil|CornerRadius=8.38mil|HoleSize=0mil|Usage=FLASHONLY|Rotation=40.000|XOffset=0mil|YOffset=0mil|HoleType=Round|Shape=RoundedRectangle|*
%AMROUNDEDRECTD182*
21,1,0.08556,0.02628,0,0,40.0*
21,1,0.06880,0.04304,0,0,40.0*
1,1,0.01676,0.03480,0.01205*
1,1,0.01676,-0.01791,-0.03218*
1,1,0.01676,-0.03480,-0.01205*
1,1,0.01676,0.01791,0.03218*
%
%ADD182ROUNDEDRECTD182*%
G04:AMPARAMS|DCode=183|XSize=85.56mil|YSize=133.59mil|CornerRadius=13.7mil|HoleSize=0mil|Usage=FLASHONLY|Rotation=40.000|XOffset=0mil|YOffset=0mil|HoleType=Round|Shape=RoundedRectangle|*
%AMROUNDEDRECTD183*
21,1,0.08556,0.10620,0,0,40.0*
21,1,0.05817,0.13359,0,0,40.0*
1,1,0.02739,0.05641,-0.02198*
1,1,0.02739,0.01185,-0.05937*
1,1,0.02739,-0.05641,0.02198*
1,1,0.02739,-0.01185,0.05937*
%
%ADD183ROUNDEDRECTD183*%
G04:AMPARAMS|DCode=184|XSize=85.56mil|YSize=43.04mil|CornerRadius=8.38mil|HoleSize=0mil|Usage=FLASHONLY|Rotation=55.000|XOffset=0mil|YOffset=0mil|HoleType=Round|Shape=RoundedRectangle|*
%AMROUNDEDRECTD184*
21,1,0.08556,0.02628,0,0,55.0*
21,1,0.06880,0.04304,0,0,55.0*
1,1,0.01676,0.03049,0.02064*
1,1,0.01676,-0.00897,-0.03572*
1,1,0.01676,-0.03049,-0.02064*
1,1,0.01676,0.00897,0.03572*
%
%ADD184ROUNDEDRECTD184*%
G04:AMPARAMS|DCode=185|XSize=85.56mil|YSize=133.59mil|CornerRadius=13.7mil|HoleSize=0mil|Usage=FLASHONLY|Rotation=55.000|XOffset=0mil|YOffset=0mil|HoleType=Round|Shape=RoundedRectangle|*
%AMROUNDEDRECTD185*
21,1,0.08556,0.10620,0,0,55.0*
21,1,0.05817,0.13359,0,0,55.0*
1,1,0.02739,0.06018,-0.00663*
1,1,0.02739,0.02682,-0.05428*
1,1,0.02739,-0.06018,0.00663*
1,1,0.02739,-0.02682,0.05428*
%
%ADD185ROUNDEDRECTD185*%
G04:AMPARAMS|DCode=186|XSize=91.47mil|YSize=67.06mil|CornerRadius=0mil|HoleSize=0mil|Usage=FLASHONLY|Rotation=235.000|XOffset=0mil|YOffset=0mil|HoleType=Round|Shape=Rectangle|*
%AMROTATEDRECTD186*
4,1,4,-0.00123,0.05669,0.05370,0.01823,0.00123,-0.05669,-0.05370,-0.01823,-0.00123,0.05669,0.0*
%
%ADD186ROTATEDRECTD186*%

G04:AMPARAMS|DCode=187|XSize=43.43mil|YSize=35.56mil|CornerRadius=0mil|HoleSize=0mil|Usage=FLASHONLY|Rotation=325.000|XOffset=0mil|YOffset=0mil|HoleType=Round|Shape=Rectangle|*
%AMROTATEDRECTD187*
4,1,4,-0.02799,-0.00211,-0.00759,0.02702,0.02799,0.00211,0.00759,-0.02702,-0.02799,-0.00211,0.0*
%
%ADD187ROTATEDRECTD187*%

G04:AMPARAMS|DCode=188|XSize=27.69mil|YSize=31.62mil|CornerRadius=0mil|HoleSize=0mil|Usage=FLASHONLY|Rotation=125.000|XOffset=0mil|YOffset=0mil|HoleType=Round|Shape=Rectangle|*
%AMROTATEDRECTD188*
4,1,4,0.02089,-0.00227,-0.00501,-0.02041,-0.02089,0.00227,0.00501,0.02041,0.02089,-0.00227,0.0*
%
%ADD188ROTATEDRECTD188*%

%ADD189R,0.05328X0.02375*%
G04:AMPARAMS|DCode=190|XSize=31.62mil|YSize=94.61mil|CornerRadius=0mil|HoleSize=0mil|Usage=FLASHONLY|Rotation=175.000|XOffset=0mil|YOffset=0mil|HoleType=Round|Shape=Rectangle|*
%AMROTATEDRECTD190*
4,1,4,0.01987,0.04575,0.01163,-0.04850,-0.01987,-0.04575,-0.01163,0.04850,0.01987,0.04575,0.0*
%
%ADD190ROTATEDRECTD190*%

G04:AMPARAMS|DCode=191|XSize=38mil|YSize=38mil|CornerRadius=11.5mil|HoleSize=0mil|Usage=FLASHONLY|Rotation=305.000|XOffset=0mil|YOffset=0mil|HoleType=Round|Shape=RoundedRectangle|*
%AMROUNDEDRECTD191*
21,1,0.03800,0.01500,0,0,305.0*
21,1,0.01500,0.03800,0,0,305.0*
1,1,0.02300,-0.00184,-0.01045*
1,1,0.02300,-0.01045,0.00184*
1,1,0.02300,0.00184,0.01045*
1,1,0.02300,0.01045,-0.00184*
%
%ADD191ROUNDEDRECTD191*%
%ADD192P,0.05374X4X350.0*%
G04:AMPARAMS|DCode=193|XSize=38mil|YSize=38mil|CornerRadius=11.5mil|HoleSize=0mil|Usage=FLASHONLY|Rotation=215.000|XOffset=0mil|YOffset=0mil|HoleType=Round|Shape=RoundedRectangle|*
%AMROUNDEDRECTD193*
21,1,0.03800,0.01500,0,0,215.0*
21,1,0.01500,0.03800,0,0,215.0*
1,1,0.02300,-0.01045,0.00184*
1,1,0.02300,0.00184,0.01045*
1,1,0.02300,0.01045,-0.00184*
1,1,0.02300,-0.00184,-0.01045*
%
%ADD193ROUNDEDRECTD193*%
%ADD194P,0.05374X4X260.0*%
%ADD195P,0.09483X4X260.0*%
%ADD196C,0.06706*%
%ADD197C,0.18517*%
%ADD198C,0.06800*%
%ADD199C,0.06584*%
%ADD200C,0.04616*%
%ADD201C,0.12057*%
%ADD202P,0.09483X4X110.0*%
%ADD203P,0.09483X4X95.0*%
%ADD204C,0.04800*%
%ADD205C,0.25800*%
%ADD206C,0.06737*%
%ADD207C,0.07887*%
%ADD208P,0.10836X4X80.0*%
%ADD209C,0.05800*%
%ADD210C,0.04816*%
%ADD211C,0.11036*%
%ADD212C,0.10800*%
%ADD213P,0.09311X4X115.0*%
%ADD214P,0.09483X4X125.0*%
%ADD215P,0.09483X4X145.0*%
%ADD216P,0.09483X4X160.0*%
%ADD217P,0.09483X4X175.0*%
%ADD218P,0.09483X4X190.0*%
%ADD219C,0.05131*%
%ADD220C,0.03556*%
D120*
X1166675Y350730D02*
G03*
X1166675Y350730I-1646J0D01*
G01*
X1137429Y305299D02*
G03*
X1137429Y305299I-1646J0D01*
G01*
X1098250Y268087D02*
G03*
X1098250Y268087I-1646J0D01*
G01*
X1182266Y401011D02*
G03*
X1182266Y401011I-1646J0D01*
G01*
X1182266Y455989D02*
G03*
X1182266Y455989I-1646J0D01*
G01*
X1166675Y506269D02*
G03*
X1166675Y506269I-1646J0D01*
G01*
X1137429Y549700D02*
G03*
X1137429Y549700I-1646J0D01*
G01*
X1100523Y586539D02*
G03*
X1100523Y586539I-1646J0D01*
G01*
D121*
X1035334Y549514D02*
D03*
X1039256Y549171D02*
D03*
X1035334Y553698D02*
D03*
X1039256Y553355D02*
D03*
D122*
X1166991Y321443D02*
D03*
X1151898Y328481D02*
D03*
D123*
X1147985Y379703D02*
D03*
X1142633Y382199D02*
D03*
D124*
X1148041Y358652D02*
D03*
D125*
X1122627Y360512D02*
D03*
X1126454Y368718D02*
D03*
X1130280Y376925D02*
D03*
D126*
X1126819Y337696D02*
D03*
X1122295Y341492D02*
D03*
D127*
X1130007Y276393D02*
D03*
X1117249Y287097D02*
D03*
D128*
X1121425Y317348D02*
D03*
D129*
X1097358Y325722D02*
D03*
X1103178Y332658D02*
D03*
X1108999Y339595D02*
D03*
D130*
X1096189Y301600D02*
D03*
X1092802Y306438D02*
D03*
D131*
X1085853Y283441D02*
D03*
D132*
X1064774Y297758D02*
D03*
X1072191Y302952D02*
D03*
X1079609Y308146D02*
D03*
D133*
X1083426Y241578D02*
D03*
X1073874Y255220D02*
D03*
D134*
X755858Y449902D02*
D03*
X756338Y453810D02*
D03*
D135*
X745368Y446034D02*
D03*
X747095Y460101D02*
D03*
D136*
X1039300Y391480D02*
D03*
Y382720D02*
D03*
D137*
X1058500Y638400D02*
D03*
D138*
X976983Y668825D02*
D03*
X981313D02*
D03*
X985644D02*
D03*
X989975D02*
D03*
X994306D02*
D03*
X998636D02*
D03*
X1002967D02*
D03*
X1007298D02*
D03*
D139*
X959876Y666345D02*
D03*
D140*
X1016530Y666935D02*
D03*
X960270Y621739D02*
D03*
D141*
X1014935Y658471D02*
D03*
D142*
Y623038D02*
D03*
D143*
X977219Y618609D02*
D03*
X1007849D02*
D03*
D144*
X1030145Y594860D02*
D03*
X1024655Y595340D02*
D03*
X1029645Y590060D02*
D03*
X1024155Y590540D02*
D03*
D145*
X1018492Y427128D02*
D03*
X1022429D02*
D03*
X1022468Y430600D02*
D03*
X1018532Y430600D02*
D03*
D146*
X1044856Y486900D02*
D03*
X1039344Y486900D02*
D03*
X1043856Y463800D02*
D03*
X1038344Y463800D02*
D03*
X1025244Y412900D02*
D03*
X1030756Y412900D02*
D03*
D147*
X1051200Y469747D02*
D03*
X1051200Y475653D02*
D03*
D148*
X1039373Y470538D02*
D03*
X1043113D02*
D03*
X1046854Y470538D02*
D03*
X1046854Y479869D02*
D03*
X1039373Y479869D02*
D03*
D149*
X1050725Y409232D02*
D03*
Y413168D02*
D03*
X1055450Y409232D02*
D03*
X1055450Y413168D02*
D03*
X1046000Y409232D02*
D03*
Y413168D02*
D03*
X1060175Y409232D02*
D03*
X1060175Y413168D02*
D03*
X1064900Y409232D02*
D03*
Y413168D02*
D03*
X968700Y607932D02*
D03*
Y611868D02*
D03*
D150*
X888058Y457181D02*
D03*
X883543Y454019D02*
D03*
X874005Y481123D02*
D03*
X869490Y477962D02*
D03*
X991257Y523781D02*
D03*
X986742Y520619D02*
D03*
X972484Y543930D02*
D03*
X976999Y547092D02*
D03*
D151*
X915581Y529243D02*
D03*
X912419Y533757D02*
D03*
X910281Y525542D02*
D03*
X907119Y530057D02*
D03*
X867498Y534595D02*
D03*
X864336Y539110D02*
D03*
X851114Y523124D02*
D03*
X847953Y527639D02*
D03*
D152*
X903992Y534430D02*
D03*
X902864Y536042D02*
D03*
X901734Y537655D02*
D03*
X900605Y539268D02*
D03*
X899476Y540880D02*
D03*
X885608Y531170D02*
D03*
X886736Y529558D02*
D03*
X887866Y527945D02*
D03*
X888995Y526332D02*
D03*
X890124Y524720D02*
D03*
D153*
X998185Y502790D02*
D03*
X1001410Y505048D02*
D03*
X1004636Y507307D02*
D03*
X1007861Y509565D02*
D03*
X895000Y435888D02*
D03*
X898225Y438146D02*
D03*
X901451Y440405D02*
D03*
X904676Y442663D02*
D03*
X900062Y428912D02*
D03*
X903287Y431171D02*
D03*
X906513Y433429D02*
D03*
X909738Y435687D02*
D03*
D154*
X988290Y507998D02*
D03*
X1006351Y520644D02*
D03*
X885106Y441096D02*
D03*
X903166Y453742D02*
D03*
X922681Y426126D02*
D03*
X904620Y413480D02*
D03*
D155*
X860048Y527799D02*
D03*
X852339Y532289D02*
D03*
X858466Y536580D02*
D03*
D156*
X824627Y487300D02*
D03*
X823280Y483600D02*
D03*
X821933Y479900D02*
D03*
X820587Y476200D02*
D03*
X815200Y461400D02*
D03*
X816547Y465100D02*
D03*
X817893Y468800D02*
D03*
X819240Y472500D02*
D03*
X828667Y498399D02*
D03*
X827320Y494700D02*
D03*
X825973Y490999D02*
D03*
X830014Y502100D02*
D03*
X831360Y505799D02*
D03*
X832707Y509500D02*
D03*
X834054Y513200D02*
D03*
D157*
X804108Y459991D02*
D03*
X826462Y521409D02*
D03*
D158*
X829064Y546719D02*
D03*
X827536Y552423D02*
D03*
D159*
X847795Y553315D02*
D03*
X849222Y547991D02*
D03*
D160*
X841073Y556038D02*
D03*
X837460Y555070D02*
D03*
X833848Y554102D02*
D03*
X836405Y544557D02*
D03*
X843631Y546493D02*
D03*
D161*
X831057Y564372D02*
D03*
X834860Y565391D02*
D03*
D162*
X823541Y572649D02*
D03*
X837231Y576318D02*
D03*
D163*
X921766Y603222D02*
D03*
X916928Y606609D02*
D03*
D164*
X931817Y620233D02*
D03*
X936332Y617072D02*
D03*
D165*
X924860Y617916D02*
D03*
X922715Y614852D02*
D03*
X920569Y611789D02*
D03*
X928664Y606120D02*
D03*
X932955Y612248D02*
D03*
D166*
X911794Y617811D02*
D03*
X914053Y621036D02*
D03*
D167*
X900716Y619320D02*
D03*
X908845Y630930D02*
D03*
D168*
X1156659Y424585D02*
D03*
X1150843Y425611D02*
D03*
D169*
X1190120Y373370D02*
D03*
X1173720Y376262D02*
D03*
D170*
X1162161Y404266D02*
D03*
D171*
X1137131Y399485D02*
D03*
X1138704Y408402D02*
D03*
X1140276Y417320D02*
D03*
D172*
X1150041Y469946D02*
D03*
X1144225Y468921D02*
D03*
D173*
X1198976Y433405D02*
D03*
X1182576Y430513D02*
D03*
D174*
X1137131Y457515D02*
D03*
X1138704Y448598D02*
D03*
X1140276Y439680D02*
D03*
D175*
X1162161Y452734D02*
D03*
D176*
X1131879Y511837D02*
D03*
X1126527Y509341D02*
D03*
D177*
X1188544Y489335D02*
D03*
X1173451Y482297D02*
D03*
D178*
X1122627Y496488D02*
D03*
X1126454Y488282D02*
D03*
X1130280Y480075D02*
D03*
D179*
X1148041Y498348D02*
D03*
D180*
X1102323Y546498D02*
D03*
X1097799Y542702D02*
D03*
D181*
X1162789Y539539D02*
D03*
X1150031Y528834D02*
D03*
D182*
X1097358Y529278D02*
D03*
X1103178Y522342D02*
D03*
X1108999Y515405D02*
D03*
D183*
X1121425Y537652D02*
D03*
D184*
X1067047Y556867D02*
D03*
X1074464Y551673D02*
D03*
X1081882Y546480D02*
D03*
D185*
X1088126Y571185D02*
D03*
D186*
X1127475Y583795D02*
D03*
X1117923Y570153D02*
D03*
D187*
X1067385Y574785D02*
D03*
X1063998Y569948D02*
D03*
D188*
X905323Y542626D02*
D03*
X908548Y544884D02*
D03*
D189*
X1055303Y417333D02*
D03*
Y419892D02*
D03*
Y422451D02*
D03*
Y425010D02*
D03*
Y427569D02*
D03*
Y430128D02*
D03*
Y432687D02*
D03*
Y435247D02*
D03*
Y437806D02*
D03*
Y440365D02*
D03*
Y442924D02*
D03*
Y445483D02*
D03*
Y448042D02*
D03*
Y450601D02*
D03*
X1030893D02*
D03*
Y448042D02*
D03*
Y445483D02*
D03*
Y442924D02*
D03*
Y440365D02*
D03*
Y437806D02*
D03*
Y435247D02*
D03*
Y432687D02*
D03*
Y430128D02*
D03*
Y427569D02*
D03*
Y425010D02*
D03*
Y422451D02*
D03*
Y419892D02*
D03*
Y417333D02*
D03*
D190*
X1028831Y582952D02*
D03*
X1015712Y547741D02*
D03*
X1033812Y582516D02*
D03*
X1023850Y583387D02*
D03*
X1018869Y583823D02*
D03*
X1020693Y547305D02*
D03*
X1010731Y548177D02*
D03*
X1005750Y548613D02*
D03*
X1008907Y584695D02*
D03*
X995788Y549484D02*
D03*
X1013888Y584259D02*
D03*
X1003926Y585131D02*
D03*
X1000769Y549048D02*
D03*
X998945Y585566D02*
D03*
X1025674Y546870D02*
D03*
X1030655Y546434D02*
D03*
D191*
X870154Y467440D02*
D03*
X875890Y459248D02*
D03*
X889401Y468709D02*
D03*
X883665Y476900D02*
D03*
X987156Y543217D02*
D03*
X992892Y535025D02*
D03*
X979380Y525564D02*
D03*
X973644Y533756D02*
D03*
D192*
X873022Y463344D02*
D03*
X886533Y472805D02*
D03*
X990024Y539121D02*
D03*
X976512Y529660D02*
D03*
D193*
X880412Y458451D02*
D03*
X879143Y477698D02*
D03*
X870951Y471962D02*
D03*
X974442Y538278D02*
D03*
X982633Y544014D02*
D03*
X983903Y524767D02*
D03*
D194*
X884508Y461318D02*
D03*
X888604Y464186D02*
D03*
X875047Y474830D02*
D03*
X978538Y541146D02*
D03*
X992094Y530503D02*
D03*
X987998Y527635D02*
D03*
D195*
X907200Y587200D02*
D03*
X1114511Y225080D02*
D03*
X866200Y558500D02*
D03*
D196*
X899008Y581464D02*
D03*
X890817Y575729D02*
D03*
X1201429Y344791D02*
D03*
X1197202Y335728D02*
D03*
X1192976Y326664D02*
D03*
X1210492Y340564D02*
D03*
X1206266Y331501D02*
D03*
X1170638Y276053D02*
D03*
X1177066Y283713D02*
D03*
X1156550Y274820D02*
D03*
X1162978Y282481D02*
D03*
X1169406Y290141D02*
D03*
X1125158Y244743D02*
D03*
X1116966Y239007D02*
D03*
X1108775Y233271D02*
D03*
X1130894Y236551D02*
D03*
X1122702Y230815D02*
D03*
X874391Y564236D02*
D03*
X882583Y569972D02*
D03*
X1225429Y393110D02*
D03*
X1227165Y402958D02*
D03*
X1213844Y384999D02*
D03*
X1215581Y394847D02*
D03*
X1217317Y404695D02*
D03*
X1213844Y472001D02*
D03*
X1215580Y462153D02*
D03*
X1217317Y452305D02*
D03*
X1223692Y473738D02*
D03*
X1225429Y463890D02*
D03*
X1206266Y525498D02*
D03*
X1202039Y534562D02*
D03*
X1201429Y512209D02*
D03*
X1197202Y521272D02*
D03*
X1192976Y530336D02*
D03*
X1170638Y578947D02*
D03*
X1164210Y586608D02*
D03*
X1169406Y564859D02*
D03*
X1162978Y572519D02*
D03*
X1156550Y580180D02*
D03*
X1124975Y623810D02*
D03*
X1116783Y629546D02*
D03*
X1127431Y609883D02*
D03*
X1119239Y615619D02*
D03*
X1111048Y621354D02*
D03*
D197*
X846133Y362931D02*
D03*
X749982Y430257D02*
D03*
X888272Y211992D02*
D03*
X989925Y270682D02*
D03*
D198*
X758082Y364160D02*
D03*
X756346Y374008D02*
D03*
X754609Y383856D02*
D03*
X752873Y393704D02*
D03*
X751136Y403552D02*
D03*
X749400Y413400D02*
D03*
X759248Y415136D02*
D03*
X760985Y405288D02*
D03*
X762721Y395440D02*
D03*
X764458Y385592D02*
D03*
X766194Y375744D02*
D03*
X767931Y365896D02*
D03*
X954188Y201059D02*
D03*
X944529Y203647D02*
D03*
X934870Y206236D02*
D03*
X925210Y208824D02*
D03*
X915551Y211412D02*
D03*
X905892Y214000D02*
D03*
X903304Y204341D02*
D03*
X912963Y201753D02*
D03*
X922622Y199165D02*
D03*
X932281Y196576D02*
D03*
X941941Y193988D02*
D03*
X951600Y191400D02*
D03*
X840087Y303455D02*
D03*
X833016Y296384D02*
D03*
X840087Y289313D02*
D03*
X847158Y282242D02*
D03*
X854229Y275171D02*
D03*
X861300Y268100D02*
D03*
X868012Y573164D02*
D03*
X876075Y578809D02*
D03*
X884138Y584455D02*
D03*
X892200Y590100D02*
D03*
D199*
X1165028Y350730D02*
D03*
X1175733Y345739D02*
D03*
X1135783Y305299D02*
D03*
X1144831Y297708D02*
D03*
X1096604Y268087D02*
D03*
X1103379Y258412D02*
D03*
X794560Y515101D02*
D03*
X790521Y504003D02*
D03*
X786481Y492904D02*
D03*
X782442Y481805D02*
D03*
X778402Y470706D02*
D03*
X787501Y530240D02*
D03*
X783462Y519141D02*
D03*
X779422Y508042D02*
D03*
X775382Y496943D02*
D03*
X771343Y485845D02*
D03*
X767303Y474746D02*
D03*
X1192251Y398960D02*
D03*
X1180620Y401011D02*
D03*
X1192251Y458040D02*
D03*
X1180620Y455989D02*
D03*
X1175733Y511261D02*
D03*
X1165028Y506269D02*
D03*
X1144831Y557292D02*
D03*
X1135783Y549700D02*
D03*
X1098877Y586539D02*
D03*
X1105652Y596214D02*
D03*
D200*
X1184079Y354879D02*
D03*
X1174095Y333471D02*
D03*
X1155258Y304377D02*
D03*
X1140074Y286281D02*
D03*
X1115177Y262155D02*
D03*
X1095827Y248606D02*
D03*
X788063Y542604D02*
D03*
X759786Y464913D02*
D03*
X1193845Y386686D02*
D03*
X1197947Y409949D02*
D03*
Y447051D02*
D03*
X1193845Y470314D02*
D03*
X1184079Y502121D02*
D03*
X1174095Y523529D02*
D03*
X1155258Y550623D02*
D03*
X1140074Y568719D02*
D03*
X1098099Y606020D02*
D03*
X1117449Y592471D02*
D03*
D201*
X1166803Y340563D02*
D03*
X1173958Y355906D02*
D03*
X1134866Y295019D02*
D03*
X1145748Y307988D02*
D03*
X1093058Y258394D02*
D03*
X1106925Y268104D02*
D03*
X1187906Y408322D02*
D03*
X1184966Y391650D02*
D03*
X1184966Y465350D02*
D03*
X1187906Y448678D02*
D03*
X1166803Y516437D02*
D03*
X1173958Y501094D02*
D03*
X1134866Y559981D02*
D03*
X1145748Y547012D02*
D03*
X1109198Y586521D02*
D03*
X1095331Y596231D02*
D03*
D202*
X1202039Y322438D02*
D03*
D203*
X1164210Y268392D02*
D03*
D204*
X1058500Y638400D02*
D03*
X1087103Y542824D02*
D03*
X1086637Y553482D02*
D03*
X1113096Y510523D02*
D03*
X1115404Y520938D02*
D03*
X1132974Y474298D02*
D03*
X1137900Y483762D02*
D03*
X1141383Y433403D02*
D03*
X1148590Y441269D02*
D03*
X1136025Y393208D02*
D03*
X1145487Y398134D02*
D03*
X1119933Y354735D02*
D03*
X1130348Y357045D02*
D03*
X1093261Y320839D02*
D03*
X1103919Y320374D02*
D03*
X1069728Y290895D02*
D03*
X1059553Y294103D02*
D03*
D205*
X1027223Y282511D02*
D03*
X949577Y572289D02*
D03*
D206*
X1081351Y623714D02*
D03*
X1085445Y634961D02*
D03*
X1031555Y641839D02*
D03*
X1035649Y653086D02*
D03*
D207*
X949267Y530782D02*
D03*
X955003Y522590D02*
D03*
X960739Y514399D02*
D03*
X966475Y506207D02*
D03*
X972210Y498016D02*
D03*
X977946Y489824D02*
D03*
X983682Y481633D02*
D03*
X934533Y447218D02*
D03*
X928797Y455410D02*
D03*
X923061Y463601D02*
D03*
X917325Y471793D02*
D03*
X911590Y479984D02*
D03*
X905854Y488176D02*
D03*
D208*
X900118Y496367D02*
D03*
D209*
X824407Y264949D02*
D03*
X807691Y281665D02*
D03*
X816049Y273307D02*
D03*
X832765Y256591D02*
D03*
X816035Y290009D02*
D03*
X824406Y281638D02*
D03*
X832757Y273287D02*
D03*
X841109Y264935D02*
D03*
D210*
X838371Y245513D02*
D03*
X796614Y287272D02*
D03*
D211*
X805887Y291813D02*
D03*
X842913Y254787D02*
D03*
D212*
X905848Y317598D02*
D03*
X823823Y310526D02*
D03*
D213*
X798600Y526200D02*
D03*
D214*
X1223692Y383262D02*
D03*
D215*
X1227165Y454042D02*
D03*
D216*
X1210492Y516435D02*
D03*
D217*
X1177066Y571287D02*
D03*
D218*
X1133166Y618074D02*
D03*
D219*
X878016Y470590D02*
D03*
X981507Y536906D02*
D03*
D220*
X868500Y523900D02*
D03*
X1000900Y538600D02*
D03*
X775400Y451400D02*
D03*
X1011400Y566400D02*
D03*
X880400Y502400D02*
D03*
X836200Y559800D02*
D03*
X839136Y548980D02*
D03*
X927900Y611100D02*
D03*
X894728Y443140D02*
D03*
X863310Y448079D02*
D03*
X860450Y453311D02*
D03*
X835246Y470865D02*
D03*
X918700Y617663D02*
D03*
X1030900Y407900D02*
D03*
X891503Y440882D02*
D03*
X898021Y445303D02*
D03*
X901246Y447562D02*
D03*
X1004807Y513927D02*
D03*
X1001582Y511669D02*
D03*
X998289Y509506D02*
D03*
X995064Y507247D02*
D03*
X1039300Y492200D02*
D03*
X1039256Y496900D02*
D03*
X1028056Y574600D02*
D03*
X1002923Y602500D02*
D03*
X968715D02*
D03*
X989975Y617225D02*
D03*
X909156Y538100D02*
D03*
M02*
