G04*
G04 #@! TF.GenerationSoftware,Altium Limited,CircuitStudio,1.5.2 (30)*
G04*
G04 Layer_Color=8150272*
%FSLAX25Y25*%
%MOIN*%
G70*
G01*
G75*
G04:AMPARAMS|DCode=153|XSize=31.62mil|YSize=69.02mil|CornerRadius=0mil|HoleSize=0mil|Usage=FLASHONLY|Rotation=35.000|XOffset=0mil|YOffset=0mil|HoleType=Round|Shape=Rectangle|*
%AMROTATEDRECTD153*
4,1,4,0.00684,-0.03734,-0.03275,0.01920,-0.00684,0.03734,0.03275,-0.01920,0.00684,-0.03734,0.0*
%
%ADD153ROTATEDRECTD153*%

G04:AMPARAMS|DCode=154|XSize=55.24mil|YSize=78.87mil|CornerRadius=0mil|HoleSize=0mil|Usage=FLASHONLY|Rotation=35.000|XOffset=0mil|YOffset=0mil|HoleType=Round|Shape=Rectangle|*
%AMROTATEDRECTD154*
4,1,4,-0.00001,-0.04815,-0.04524,0.01646,0.00001,0.04815,0.04524,-0.01646,-0.00001,-0.04815,0.0*
%
%ADD154ROTATEDRECTD154*%

%ADD195P,0.09483X4X260.0*%
%ADD196C,0.06706*%
%ADD197C,0.18517*%
%ADD198C,0.06800*%
%ADD199C,0.06584*%
%ADD200C,0.04616*%
%ADD201C,0.12057*%
%ADD202P,0.09483X4X110.0*%
%ADD203P,0.09483X4X95.0*%
%ADD204C,0.04800*%
%ADD205C,0.25800*%
%ADD206C,0.06737*%
%ADD207C,0.07887*%
%ADD208P,0.10836X4X80.0*%
%ADD209C,0.05800*%
%ADD210C,0.04816*%
%ADD211C,0.11036*%
%ADD212C,0.10800*%
%ADD213P,0.09311X4X115.0*%
%ADD214P,0.09483X4X125.0*%
%ADD215P,0.09483X4X145.0*%
%ADD216P,0.09483X4X160.0*%
%ADD217P,0.09483X4X175.0*%
%ADD218P,0.09483X4X190.0*%
%ADD219C,0.05131*%
%ADD220C,0.03556*%
G04:AMPARAMS|DCode=221|XSize=27.69mil|YSize=31.62mil|CornerRadius=0mil|HoleSize=0mil|Usage=FLASHONLY|Rotation=35.000|XOffset=0mil|YOffset=0mil|HoleType=Round|Shape=Rectangle|*
%AMROTATEDRECTD221*
4,1,4,-0.00227,-0.02089,-0.02041,0.00501,0.00227,0.02089,0.02041,-0.00501,-0.00227,-0.02089,0.0*
%
%ADD221ROTATEDRECTD221*%

D153*
X894728Y436426D02*
D03*
X897953Y438684D02*
D03*
X901179Y440943D02*
D03*
X904404Y443201D02*
D03*
D154*
X899846Y458634D02*
D03*
X881785Y445987D02*
D03*
D195*
X907200Y587200D02*
D03*
X1114511Y225080D02*
D03*
X866200Y558500D02*
D03*
D196*
X899008Y581464D02*
D03*
X890817Y575729D02*
D03*
X1201429Y344791D02*
D03*
X1197202Y335728D02*
D03*
X1192976Y326664D02*
D03*
X1210492Y340564D02*
D03*
X1206266Y331501D02*
D03*
X1170638Y276053D02*
D03*
X1177066Y283713D02*
D03*
X1156550Y274820D02*
D03*
X1162978Y282481D02*
D03*
X1169406Y290141D02*
D03*
X1125158Y244743D02*
D03*
X1116966Y239007D02*
D03*
X1108775Y233271D02*
D03*
X1130894Y236551D02*
D03*
X1122702Y230815D02*
D03*
X874391Y564236D02*
D03*
X882583Y569972D02*
D03*
X1225429Y393110D02*
D03*
X1227165Y402958D02*
D03*
X1213844Y384999D02*
D03*
X1215581Y394847D02*
D03*
X1217317Y404695D02*
D03*
X1213844Y472001D02*
D03*
X1215580Y462153D02*
D03*
X1217317Y452305D02*
D03*
X1223692Y473738D02*
D03*
X1225429Y463890D02*
D03*
X1206266Y525498D02*
D03*
X1202039Y534562D02*
D03*
X1201429Y512209D02*
D03*
X1197202Y521272D02*
D03*
X1192976Y530336D02*
D03*
X1170638Y578947D02*
D03*
X1164210Y586608D02*
D03*
X1169406Y564859D02*
D03*
X1162978Y572519D02*
D03*
X1156550Y580180D02*
D03*
X1124975Y623810D02*
D03*
X1116783Y629546D02*
D03*
X1127431Y609883D02*
D03*
X1119239Y615619D02*
D03*
X1111048Y621354D02*
D03*
D197*
X846133Y362931D02*
D03*
X749982Y430257D02*
D03*
X888272Y211992D02*
D03*
X989925Y270682D02*
D03*
D198*
X758082Y364160D02*
D03*
X756346Y374008D02*
D03*
X754609Y383856D02*
D03*
X752873Y393704D02*
D03*
X751136Y403552D02*
D03*
X749400Y413400D02*
D03*
X759248Y415136D02*
D03*
X760985Y405288D02*
D03*
X762721Y395440D02*
D03*
X764458Y385592D02*
D03*
X766194Y375744D02*
D03*
X767931Y365896D02*
D03*
X954188Y201059D02*
D03*
X944529Y203647D02*
D03*
X934870Y206236D02*
D03*
X925210Y208824D02*
D03*
X915551Y211412D02*
D03*
X905892Y214000D02*
D03*
X903304Y204341D02*
D03*
X912963Y201753D02*
D03*
X922622Y199165D02*
D03*
X932281Y196576D02*
D03*
X941941Y193988D02*
D03*
X951600Y191400D02*
D03*
X840087Y303455D02*
D03*
X833016Y296384D02*
D03*
X840087Y289313D02*
D03*
X847158Y282242D02*
D03*
X854229Y275171D02*
D03*
X861300Y268100D02*
D03*
X868012Y573164D02*
D03*
X876075Y578809D02*
D03*
X884138Y584455D02*
D03*
X892200Y590100D02*
D03*
D199*
X1165028Y350730D02*
D03*
X1175733Y345739D02*
D03*
X1135783Y305299D02*
D03*
X1144831Y297708D02*
D03*
X1096604Y268087D02*
D03*
X1103379Y258412D02*
D03*
X794560Y515101D02*
D03*
X790521Y504003D02*
D03*
X786481Y492904D02*
D03*
X782442Y481805D02*
D03*
X778402Y470706D02*
D03*
X787501Y530240D02*
D03*
X783462Y519141D02*
D03*
X779422Y508042D02*
D03*
X775382Y496943D02*
D03*
X771343Y485845D02*
D03*
X767303Y474746D02*
D03*
X1192251Y398960D02*
D03*
X1180620Y401011D02*
D03*
X1192251Y458040D02*
D03*
X1180620Y455989D02*
D03*
X1175733Y511261D02*
D03*
X1165028Y506269D02*
D03*
X1144831Y557292D02*
D03*
X1135783Y549700D02*
D03*
X1098877Y586539D02*
D03*
X1105652Y596214D02*
D03*
D200*
X1184079Y354879D02*
D03*
X1174095Y333471D02*
D03*
X1155258Y304377D02*
D03*
X1140074Y286281D02*
D03*
X1115177Y262155D02*
D03*
X1095827Y248606D02*
D03*
X788063Y542604D02*
D03*
X759786Y464913D02*
D03*
X1193845Y386686D02*
D03*
X1197947Y409949D02*
D03*
Y447051D02*
D03*
X1193845Y470314D02*
D03*
X1184079Y502121D02*
D03*
X1174095Y523529D02*
D03*
X1155258Y550623D02*
D03*
X1140074Y568719D02*
D03*
X1098099Y606020D02*
D03*
X1117449Y592471D02*
D03*
D201*
X1166803Y340563D02*
D03*
X1173958Y355906D02*
D03*
X1134866Y295019D02*
D03*
X1145748Y307988D02*
D03*
X1093058Y258394D02*
D03*
X1106925Y268104D02*
D03*
X1187906Y408322D02*
D03*
X1184966Y391650D02*
D03*
X1184966Y465350D02*
D03*
X1187906Y448678D02*
D03*
X1166803Y516437D02*
D03*
X1173958Y501094D02*
D03*
X1134866Y559981D02*
D03*
X1145748Y547012D02*
D03*
X1109198Y586521D02*
D03*
X1095331Y596231D02*
D03*
D202*
X1202039Y322438D02*
D03*
D203*
X1164210Y268392D02*
D03*
D204*
X1058500Y638400D02*
D03*
X1102437Y510058D02*
D03*
X1087103Y542824D02*
D03*
X1086637Y553482D02*
D03*
X1076928Y539616D02*
D03*
X1113096Y510523D02*
D03*
X1115404Y520938D02*
D03*
X1132974Y474298D02*
D03*
X1137900Y483762D02*
D03*
X1122559Y476608D02*
D03*
X1141383Y433403D02*
D03*
X1148590Y441269D02*
D03*
X1131920Y438330D02*
D03*
X1136025Y393208D02*
D03*
X1145487Y398134D02*
D03*
X1128818Y401074D02*
D03*
X1119933Y354735D02*
D03*
X1130348Y357045D02*
D03*
X1115008Y364198D02*
D03*
X1093261Y320839D02*
D03*
X1103919Y320374D02*
D03*
X1090952Y331255D02*
D03*
X1060019Y304761D02*
D03*
X1069728Y290895D02*
D03*
X1059553Y294103D02*
D03*
D205*
X1027223Y282511D02*
D03*
X949577Y572289D02*
D03*
D206*
X1081351Y623714D02*
D03*
X1085445Y634961D02*
D03*
X1031555Y641839D02*
D03*
X1035649Y653086D02*
D03*
D207*
X949267Y530782D02*
D03*
X955003Y522590D02*
D03*
X960739Y514399D02*
D03*
X966475Y506207D02*
D03*
X972210Y498016D02*
D03*
X977946Y489824D02*
D03*
X983682Y481633D02*
D03*
X934533Y447218D02*
D03*
X928797Y455410D02*
D03*
X923061Y463601D02*
D03*
X917325Y471793D02*
D03*
X911590Y479984D02*
D03*
X905854Y488176D02*
D03*
D208*
X900118Y496367D02*
D03*
D209*
X824407Y264949D02*
D03*
X807691Y281665D02*
D03*
X816049Y273307D02*
D03*
X832765Y256591D02*
D03*
X816035Y290009D02*
D03*
X824406Y281638D02*
D03*
X832757Y273287D02*
D03*
X841109Y264935D02*
D03*
D210*
X838371Y245513D02*
D03*
X796614Y287272D02*
D03*
D211*
X805887Y291813D02*
D03*
X842913Y254787D02*
D03*
D212*
X905848Y317598D02*
D03*
X823823Y310526D02*
D03*
D213*
X798600Y526200D02*
D03*
D214*
X1223692Y383262D02*
D03*
D215*
X1227165Y454042D02*
D03*
D216*
X1210492Y516435D02*
D03*
D217*
X1177066Y571287D02*
D03*
D218*
X1133166Y618074D02*
D03*
D219*
X878016Y470590D02*
D03*
X981507Y536906D02*
D03*
D220*
X868500Y523900D02*
D03*
X1000900Y538600D02*
D03*
X775400Y451400D02*
D03*
X1011400Y566400D02*
D03*
X880400Y502400D02*
D03*
X836200Y559800D02*
D03*
X839136Y548980D02*
D03*
X927900Y611100D02*
D03*
X894728Y443140D02*
D03*
X863310Y448079D02*
D03*
X860450Y453311D02*
D03*
X835246Y470865D02*
D03*
X918700Y617663D02*
D03*
X1030900Y407900D02*
D03*
X891503Y440882D02*
D03*
X898021Y445303D02*
D03*
X901246Y447562D02*
D03*
X1004807Y513927D02*
D03*
X1001582Y511669D02*
D03*
X998289Y509506D02*
D03*
X995064Y507247D02*
D03*
X1039300Y492200D02*
D03*
X1039256Y496900D02*
D03*
X1028056Y574600D02*
D03*
X1002923Y602500D02*
D03*
X968715D02*
D03*
X989975Y617225D02*
D03*
X909156Y538100D02*
D03*
D221*
X907771Y438513D02*
D03*
X910029Y435288D02*
D03*
X904571Y436312D02*
D03*
X906829Y433087D02*
D03*
M02*
