G04*
G04 #@! TF.GenerationSoftware,Altium Limited,CircuitStudio,1.5.2 (30)*
G04*
G04 Layer_Color=16755269*
%FSLAX25Y25*%
%MOIN*%
G70*
G01*
G75*
%ADD118C,0.00500*%
%ADD223C,0.00787*%
%ADD224C,0.01181*%
%ADD225C,0.00000*%
D118*
X750449Y444617D02*
X753868Y444197D01*
X754252Y447324D01*
X753328Y468063D02*
X756747Y467643D01*
X756363Y464517D02*
X756747Y467643D01*
X743160Y450668D02*
X744791Y463955D01*
X893326Y524438D02*
X903162Y531326D01*
X886438Y534274D02*
X896274Y541162D01*
X901817Y515563D02*
X904111Y512287D01*
X930648Y535751D02*
X932942Y532474D01*
X901817Y515563D02*
X930648Y535751D01*
X932942Y532474D02*
X947197Y542456D01*
X993944Y475695D01*
X936603Y435544D02*
X993944Y475695D01*
X889856Y502305D02*
X936603Y435544D01*
X889856Y502305D02*
X904111Y512287D01*
X824131Y567407D02*
X825022Y564080D01*
X828065Y564895D01*
X846948Y573521D02*
X847839Y570193D01*
X844797Y569378D02*
X847839Y570193D01*
X827011Y576432D02*
X839941Y579897D01*
X904537Y615684D02*
X907359Y613708D01*
X909166Y616288D01*
X918086Y635034D02*
X920908Y633058D01*
X919101Y630477D02*
X920908Y633058D01*
X900942Y624449D02*
X908620Y635414D01*
X895959Y424477D02*
X898540Y426284D01*
X895959Y424477D02*
X901096Y417141D01*
X912729Y436219D02*
X915309Y438026D01*
X920446Y430690D01*
X909426Y413481D02*
X921037Y421610D01*
X889157Y434088D02*
X891737Y435894D01*
X884020Y441424D02*
X889157Y434088D01*
X905927Y445830D02*
X908507Y447637D01*
X903370Y454973D02*
X908507Y447637D01*
X883430Y450503D02*
X895040Y458633D01*
X1034437Y414873D02*
Y453061D01*
X1051759D01*
Y416962D02*
Y453061D01*
X1049572Y414873D02*
X1051759Y416962D01*
X1034437Y414873D02*
X1049572D01*
D223*
X756163Y445947D02*
G03*
X756163Y445947I-394J0D01*
G01*
X909759Y536847D02*
G03*
X909759Y536847I-394J0D01*
G01*
X893997Y491806D02*
G03*
X893997Y491806I-394J0D01*
G01*
X827750Y562973D02*
G03*
X827750Y562973I-394J0D01*
G01*
X910252Y614360D02*
G03*
X910252Y614360I-394J0D01*
G01*
D224*
X896523Y428009D02*
G03*
X896523Y428009I-394J0D01*
G01*
X892928Y433039D02*
G03*
X892928Y433039I-394J0D01*
G01*
D225*
X1054657Y413908D02*
G03*
X1054657Y413908I-1500J0D01*
G01*
M02*
