G04*
G04 #@! TF.GenerationSoftware,Altium Limited,CircuitStudio,1.5.2 (30)*
G04*
G04 Layer_Physical_Order=3*
G04 Layer_Color=56745*
%FSLAX25Y25*%
%MOIN*%
G70*
G01*
G75*
%ADD10C,0.01000*%
%ADD90C,0.05906*%
%ADD92C,0.06000*%
%ADD93C,0.05984*%
%ADD103C,0.05000*%
%ADD113C,0.02756*%
G36*
X998236Y677740D02*
X1008057Y677161D01*
X1017847Y676197D01*
X1027592Y674849D01*
X1037277Y673119D01*
X1046886Y671011D01*
X1056405Y668527D01*
X1065819Y665671D01*
X1075114Y662448D01*
X1084275Y658863D01*
X1093288Y654920D01*
X1102140Y650627D01*
X1103979Y649644D01*
X1103979Y649644D01*
X1103979Y649644D01*
X1110816Y645989D01*
X1119303Y641015D01*
X1127589Y635711D01*
X1135660Y630086D01*
X1143504Y624148D01*
X1151108Y617907D01*
X1158462Y611372D01*
X1165554Y604554D01*
X1172372Y597462D01*
X1178907Y590108D01*
X1185148Y582504D01*
X1191086Y574660D01*
X1196711Y566589D01*
X1202015Y558303D01*
X1206989Y549816D01*
X1211627Y541140D01*
X1215920Y532288D01*
X1219863Y523275D01*
X1223448Y514114D01*
X1226671Y504819D01*
X1229527Y495405D01*
X1232011Y485886D01*
X1234120Y476277D01*
X1235849Y466592D01*
X1237197Y456847D01*
X1238161Y447057D01*
X1238740Y437236D01*
X1238933Y427400D01*
X1238740Y417564D01*
X1238161Y407743D01*
X1237197Y397953D01*
X1235849Y388208D01*
X1234120Y378523D01*
X1232011Y368914D01*
X1229527Y359395D01*
X1226671Y349981D01*
X1223448Y340686D01*
X1219863Y331525D01*
X1215920Y322512D01*
X1211627Y313660D01*
X1206989Y304984D01*
X1202015Y296497D01*
X1196711Y288211D01*
X1191086Y280140D01*
X1185148Y272296D01*
X1178907Y264692D01*
X1172372Y257338D01*
X1165554Y250246D01*
X1158462Y243428D01*
X1151108Y236893D01*
X1143504Y230652D01*
X1135660Y224714D01*
X1127589Y219089D01*
X1119303Y213785D01*
X1110816Y208811D01*
X1102140Y204173D01*
X1093288Y199880D01*
X1084275Y195937D01*
X1075114Y192352D01*
X1065819Y189129D01*
X1056405Y186273D01*
X1046886Y183789D01*
X1037277Y181681D01*
X1027592Y179951D01*
X1017847Y178603D01*
X1008057Y177639D01*
X998236Y177060D01*
X988400Y176867D01*
X978564Y177060D01*
X968743Y177639D01*
X958953Y178603D01*
X949208Y179951D01*
X939523Y181681D01*
X934762Y182725D01*
Y182725D01*
X934302Y182780D01*
X934216Y182816D01*
X934057Y183200D01*
X934103Y183310D01*
X946207Y238216D01*
X946309Y238681D01*
X946310Y238684D01*
X946428Y238848D01*
X946523Y238972D01*
X946670Y239033D01*
X946907Y239062D01*
Y239062D01*
X954910Y237470D01*
X963227Y236190D01*
X971591Y235274D01*
X979988Y234723D01*
X988400Y234540D01*
X996812Y234723D01*
X1005209Y235274D01*
X1013573Y236190D01*
X1021890Y237470D01*
X1030143Y239111D01*
X1038316Y241111D01*
X1046394Y243466D01*
X1054362Y246171D01*
X1062204Y249220D01*
X1069906Y252609D01*
X1077453Y256331D01*
X1084830Y260378D01*
X1086492Y261387D01*
X1086859Y261047D01*
X1086757Y260845D01*
X1086400Y259568D01*
X1086299Y258247D01*
X1086457Y256931D01*
X1086870Y255671D01*
X1087520Y254516D01*
X1088383Y253510D01*
X1089425Y252692D01*
X1090607Y252093D01*
X1091884Y251736D01*
X1093205Y251635D01*
X1094303Y251767D01*
X1094453Y251282D01*
X1094086Y251091D01*
X1093503Y250556D01*
X1093077Y249888D01*
X1092839Y249133D01*
X1092804Y248341D01*
X1092976Y247568D01*
X1093341Y246866D01*
X1093876Y246282D01*
X1094544Y245856D01*
X1095300Y245618D01*
X1096091Y245584D01*
X1096864Y245755D01*
X1097567Y246121D01*
X1098151Y246656D01*
X1098576Y247324D01*
X1098814Y248079D01*
X1098849Y248870D01*
X1098677Y249643D01*
X1098312Y250346D01*
X1097777Y250930D01*
X1097109Y251355D01*
X1096353Y251593D01*
X1095562Y251628D01*
X1095488Y252110D01*
X1095781Y252206D01*
X1096936Y252856D01*
X1097942Y253719D01*
X1098760Y254762D01*
X1099359Y255944D01*
X1099457Y256293D01*
X1099954Y256345D01*
X1100081Y256102D01*
X1100791Y255327D01*
X1101677Y254763D01*
X1102680Y254446D01*
X1103730Y254401D01*
X1104756Y254628D01*
X1105688Y255114D01*
X1106464Y255824D01*
X1107028Y256710D01*
X1107344Y257713D01*
X1107390Y258763D01*
X1107163Y259789D01*
X1106677Y260721D01*
X1106492Y260923D01*
X1106711Y261373D01*
X1107073Y261345D01*
X1108389Y261504D01*
X1109648Y261916D01*
X1110803Y262566D01*
X1111809Y263429D01*
X1111999Y263671D01*
X1112427Y263437D01*
X1112189Y262682D01*
X1112154Y261890D01*
X1112326Y261117D01*
X1112691Y260415D01*
X1113227Y259831D01*
X1113894Y259405D01*
X1114650Y259167D01*
X1115441Y259133D01*
X1116214Y259304D01*
X1116917Y259670D01*
X1117501Y260205D01*
X1117926Y260873D01*
X1118164Y261628D01*
X1118199Y262419D01*
X1118027Y263193D01*
X1117662Y263895D01*
X1117127Y264479D01*
X1116459Y264904D01*
X1115703Y265143D01*
X1114912Y265177D01*
X1114139Y265006D01*
X1113437Y264640D01*
X1113132Y264361D01*
X1112727Y264668D01*
X1113227Y265654D01*
X1113584Y266930D01*
X1113685Y268252D01*
X1113526Y269568D01*
X1113114Y270827D01*
X1112464Y271982D01*
X1111601Y272988D01*
X1110558Y273807D01*
X1109376Y274406D01*
X1108099Y274763D01*
X1107154Y274835D01*
X1106996Y275348D01*
X1112368Y279660D01*
X1118694Y285209D01*
X1124773Y291027D01*
X1127689Y294074D01*
X1128228Y293913D01*
X1128375Y293127D01*
X1128869Y291898D01*
X1129593Y290788D01*
X1130520Y289840D01*
X1131614Y289092D01*
X1132833Y288571D01*
X1134130Y288299D01*
X1135455Y288284D01*
X1136758Y288528D01*
X1137784Y288940D01*
X1138055Y288510D01*
X1137750Y288231D01*
X1137324Y287563D01*
X1137086Y286808D01*
X1137052Y286017D01*
X1137223Y285243D01*
X1137589Y284541D01*
X1138124Y283957D01*
X1138792Y283531D01*
X1139547Y283293D01*
X1140338Y283259D01*
X1141111Y283430D01*
X1141814Y283796D01*
X1142398Y284331D01*
X1142824Y284999D01*
X1143062Y285754D01*
X1143096Y286545D01*
X1142925Y287319D01*
X1142559Y288021D01*
X1142024Y288605D01*
X1141356Y289031D01*
X1140601Y289269D01*
X1139810Y289303D01*
X1139036Y289132D01*
X1138840Y289578D01*
X1139098Y289747D01*
X1140045Y290673D01*
X1140794Y291767D01*
X1141314Y292986D01*
X1141587Y294283D01*
X1141591Y294646D01*
X1142058Y294825D01*
X1142243Y294623D01*
X1143129Y294058D01*
X1144132Y293742D01*
X1145182Y293696D01*
X1146208Y293924D01*
X1147141Y294409D01*
X1147915Y295119D01*
X1148480Y296006D01*
X1148796Y297008D01*
X1148842Y298059D01*
X1148615Y299085D01*
X1148129Y300017D01*
X1147419Y300792D01*
X1147188Y300939D01*
X1147283Y301430D01*
X1147640Y301497D01*
X1148870Y301991D01*
X1149980Y302715D01*
X1150927Y303642D01*
X1151675Y304736D01*
X1151796Y305019D01*
X1152270Y304903D01*
X1152236Y304112D01*
X1152407Y303339D01*
X1152773Y302636D01*
X1153308Y302052D01*
X1153976Y301627D01*
X1154731Y301389D01*
X1155522Y301354D01*
X1156295Y301526D01*
X1156998Y301891D01*
X1157582Y302426D01*
X1158008Y303094D01*
X1158246Y303850D01*
X1158280Y304641D01*
X1158109Y305414D01*
X1157743Y306117D01*
X1157208Y306701D01*
X1156540Y307126D01*
X1155785Y307364D01*
X1154994Y307399D01*
X1154220Y307227D01*
X1153518Y306862D01*
X1152934Y306327D01*
X1152712Y305978D01*
X1152241Y306170D01*
X1152469Y307252D01*
X1152483Y308577D01*
X1152239Y309880D01*
X1151745Y311110D01*
X1151021Y312220D01*
X1150094Y313167D01*
X1149000Y313915D01*
X1147781Y314436D01*
X1146484Y314708D01*
X1145491Y314719D01*
X1145240Y315222D01*
X1146382Y316780D01*
X1151057Y323776D01*
X1155422Y330970D01*
X1159469Y338347D01*
X1159759Y338934D01*
X1160289Y338879D01*
X1160450Y338251D01*
X1161023Y337056D01*
X1161819Y335996D01*
X1162806Y335111D01*
X1163946Y334436D01*
X1165196Y333996D01*
X1166508Y333809D01*
X1167832Y333881D01*
X1169116Y334210D01*
X1170311Y334783D01*
X1171195Y335447D01*
X1171568Y335101D01*
X1171346Y334753D01*
X1171108Y333997D01*
X1171073Y333206D01*
X1171245Y332433D01*
X1171610Y331730D01*
X1172145Y331147D01*
X1172813Y330721D01*
X1173569Y330483D01*
X1174360Y330448D01*
X1175133Y330620D01*
X1175836Y330985D01*
X1176419Y331521D01*
X1176845Y332188D01*
X1177083Y332944D01*
X1177118Y333735D01*
X1176946Y334508D01*
X1176581Y335211D01*
X1176046Y335795D01*
X1175377Y336220D01*
X1174622Y336458D01*
X1173831Y336493D01*
X1173058Y336321D01*
X1172355Y335956D01*
X1172050Y336336D01*
X1172256Y336565D01*
X1172931Y337706D01*
X1173370Y338956D01*
X1173558Y340268D01*
X1173486Y341592D01*
X1173396Y341943D01*
X1173800Y342237D01*
X1174031Y342090D01*
X1175034Y341774D01*
X1176084Y341728D01*
X1177110Y341955D01*
X1178042Y342441D01*
X1178817Y343151D01*
X1179382Y344037D01*
X1179698Y345040D01*
X1179744Y346090D01*
X1179517Y347116D01*
X1179031Y348048D01*
X1178321Y348823D01*
X1177435Y349388D01*
X1177174Y349471D01*
X1177138Y349969D01*
X1177465Y350126D01*
X1178526Y350922D01*
X1179410Y351908D01*
X1180085Y353049D01*
X1180525Y354299D01*
X1180569Y354604D01*
X1181056Y354615D01*
X1181228Y353842D01*
X1181593Y353139D01*
X1182128Y352555D01*
X1182796Y352130D01*
X1183552Y351892D01*
X1184343Y351857D01*
X1185116Y352028D01*
X1185819Y352394D01*
X1186403Y352929D01*
X1186828Y353597D01*
X1187066Y354353D01*
X1187101Y355144D01*
X1186929Y355917D01*
X1186564Y356620D01*
X1186029Y357204D01*
X1185361Y357629D01*
X1184605Y357867D01*
X1183814Y357902D01*
X1183041Y357730D01*
X1182338Y357365D01*
X1181754Y356830D01*
X1181329Y356161D01*
X1181205Y355767D01*
X1180700Y355831D01*
X1180640Y356935D01*
X1180311Y358219D01*
X1179738Y359414D01*
X1178943Y360474D01*
X1177956Y361359D01*
X1176815Y362034D01*
X1175565Y362473D01*
X1174253Y362661D01*
X1172929Y362589D01*
X1171646Y362260D01*
X1170451Y361686D01*
X1170170Y361476D01*
X1169747Y361783D01*
X1172334Y369406D01*
X1174689Y377484D01*
X1176689Y385657D01*
X1177759Y391038D01*
X1178265Y391018D01*
X1178365Y390186D01*
X1178778Y388927D01*
X1179428Y387772D01*
X1180291Y386766D01*
X1181333Y385948D01*
X1182515Y385349D01*
X1183792Y384992D01*
X1185113Y384891D01*
X1186429Y385049D01*
X1187689Y385461D01*
X1188844Y386111D01*
X1189850Y386975D01*
X1190532Y387844D01*
X1190981Y387607D01*
X1190857Y387213D01*
X1190823Y386422D01*
X1190994Y385648D01*
X1191360Y384946D01*
X1191895Y384362D01*
X1192563Y383937D01*
X1193318Y383698D01*
X1194109Y383664D01*
X1194883Y383835D01*
X1195585Y384201D01*
X1196169Y384736D01*
X1196595Y385404D01*
X1196833Y386159D01*
X1196867Y386950D01*
X1196696Y387724D01*
X1196330Y388426D01*
X1195795Y389010D01*
X1195127Y389436D01*
X1194372Y389674D01*
X1193581Y389708D01*
X1192807Y389537D01*
X1192105Y389171D01*
X1191521Y388636D01*
X1191128Y388925D01*
X1191267Y389199D01*
X1191624Y390476D01*
X1191725Y391797D01*
X1191566Y393113D01*
X1191154Y394373D01*
X1190976Y394689D01*
X1191291Y395077D01*
X1191552Y394995D01*
X1192602Y394949D01*
X1193629Y395177D01*
X1194561Y395662D01*
X1195336Y396372D01*
X1195901Y397259D01*
X1196217Y398261D01*
X1196263Y399311D01*
X1196035Y400337D01*
X1195550Y401270D01*
X1194840Y402045D01*
X1193953Y402610D01*
X1192951Y402926D01*
X1192677Y402938D01*
X1192514Y403410D01*
X1192789Y403647D01*
X1193608Y404689D01*
X1194207Y405871D01*
X1194564Y407148D01*
X1194665Y408469D01*
X1194628Y408775D01*
X1195096Y408912D01*
X1195462Y408209D01*
X1195997Y407625D01*
X1196665Y407200D01*
X1197420Y406961D01*
X1198211Y406927D01*
X1198985Y407098D01*
X1199687Y407464D01*
X1200271Y407999D01*
X1200697Y408667D01*
X1200935Y409422D01*
X1200969Y410214D01*
X1200798Y410987D01*
X1200432Y411689D01*
X1199897Y412273D01*
X1199229Y412699D01*
X1198474Y412937D01*
X1197683Y412971D01*
X1196909Y412800D01*
X1196207Y412434D01*
X1195623Y411899D01*
X1195197Y411231D01*
X1194959Y410476D01*
X1194941Y410063D01*
X1194438Y409994D01*
X1194094Y411045D01*
X1193444Y412200D01*
X1192581Y413206D01*
X1191538Y414024D01*
X1190356Y414623D01*
X1189079Y414980D01*
X1187758Y415081D01*
X1186442Y414922D01*
X1185183Y414510D01*
X1184028Y413860D01*
X1183022Y412997D01*
X1182203Y411954D01*
X1181604Y410772D01*
X1181247Y409496D01*
X1181146Y408174D01*
X1181305Y406858D01*
X1181717Y405599D01*
X1181895Y405282D01*
X1181580Y404894D01*
X1181319Y404977D01*
X1180419Y405016D01*
X1179958Y405401D01*
X1180526Y410591D01*
X1181077Y418988D01*
X1181260Y427400D01*
X1181077Y435812D01*
X1180526Y444209D01*
X1179708Y451686D01*
X1180080Y452019D01*
X1180269Y451977D01*
X1181319Y452023D01*
X1181580Y452106D01*
X1181895Y451718D01*
X1181717Y451401D01*
X1181305Y450142D01*
X1181146Y448826D01*
X1181247Y447504D01*
X1181604Y446228D01*
X1182203Y445046D01*
X1183022Y444003D01*
X1184028Y443140D01*
X1185183Y442490D01*
X1186442Y442078D01*
X1187758Y441919D01*
X1189080Y442020D01*
X1190356Y442377D01*
X1191538Y442976D01*
X1192581Y443794D01*
X1193444Y444800D01*
X1194094Y445955D01*
X1194438Y447006D01*
X1194941Y446937D01*
X1194959Y446524D01*
X1195197Y445769D01*
X1195623Y445101D01*
X1196207Y444566D01*
X1196909Y444200D01*
X1197683Y444029D01*
X1198474Y444063D01*
X1199229Y444301D01*
X1199897Y444727D01*
X1200432Y445311D01*
X1200798Y446013D01*
X1200969Y446786D01*
X1200935Y447578D01*
X1200697Y448333D01*
X1200271Y449001D01*
X1199687Y449536D01*
X1198985Y449902D01*
X1198211Y450073D01*
X1197420Y450038D01*
X1196665Y449800D01*
X1195997Y449375D01*
X1195462Y448791D01*
X1195096Y448088D01*
X1194628Y448225D01*
X1194665Y448531D01*
X1194564Y449852D01*
X1194207Y451129D01*
X1193608Y452311D01*
X1192789Y453354D01*
X1192514Y453590D01*
X1192677Y454062D01*
X1192951Y454074D01*
X1193953Y454390D01*
X1194840Y454955D01*
X1195550Y455730D01*
X1196035Y456663D01*
X1196263Y457689D01*
X1196217Y458739D01*
X1195901Y459741D01*
X1195336Y460628D01*
X1194561Y461338D01*
X1193629Y461824D01*
X1192602Y462051D01*
X1191552Y462005D01*
X1191291Y461923D01*
X1190976Y462311D01*
X1191154Y462627D01*
X1191566Y463887D01*
X1191725Y465203D01*
X1191624Y466524D01*
X1191267Y467801D01*
X1191128Y468075D01*
X1191521Y468364D01*
X1192105Y467829D01*
X1192807Y467463D01*
X1193581Y467292D01*
X1194372Y467326D01*
X1195127Y467564D01*
X1195795Y467990D01*
X1196330Y468574D01*
X1196696Y469276D01*
X1196867Y470049D01*
X1196833Y470841D01*
X1196595Y471596D01*
X1196169Y472264D01*
X1195585Y472799D01*
X1194883Y473165D01*
X1194110Y473336D01*
X1193318Y473302D01*
X1192563Y473064D01*
X1191895Y472638D01*
X1191360Y472054D01*
X1190994Y471352D01*
X1190823Y470578D01*
X1190857Y469787D01*
X1190982Y469393D01*
X1190532Y469156D01*
X1189850Y470025D01*
X1188844Y470888D01*
X1187689Y471539D01*
X1186429Y471951D01*
X1185113Y472110D01*
X1183792Y472008D01*
X1182515Y471651D01*
X1181333Y471052D01*
X1180291Y470234D01*
X1179428Y469228D01*
X1178777Y468073D01*
X1178365Y466814D01*
X1178207Y465498D01*
X1178308Y464176D01*
X1178665Y462900D01*
X1179264Y461718D01*
X1180082Y460675D01*
X1180357Y460439D01*
X1180194Y459966D01*
X1179921Y459954D01*
X1179024Y459671D01*
X1178486Y459878D01*
X1178330Y460890D01*
X1176689Y469143D01*
X1174689Y477316D01*
X1172334Y485394D01*
X1169629Y493362D01*
X1168440Y496420D01*
X1168873Y496686D01*
X1169390Y496109D01*
X1170451Y495314D01*
X1171646Y494740D01*
X1172929Y494412D01*
X1174253Y494339D01*
X1175565Y494526D01*
X1176815Y494966D01*
X1177956Y495641D01*
X1178943Y496526D01*
X1179738Y497586D01*
X1180311Y498781D01*
X1180640Y500065D01*
X1180700Y501169D01*
X1181205Y501232D01*
X1181329Y500838D01*
X1181754Y500170D01*
X1182338Y499635D01*
X1183041Y499270D01*
X1183814Y499098D01*
X1184605Y499133D01*
X1185361Y499371D01*
X1186029Y499796D01*
X1186564Y500380D01*
X1186929Y501083D01*
X1187101Y501856D01*
X1187066Y502647D01*
X1186828Y503403D01*
X1186403Y504071D01*
X1185819Y504606D01*
X1185116Y504971D01*
X1184343Y505143D01*
X1183552Y505108D01*
X1182796Y504870D01*
X1182128Y504445D01*
X1181593Y503861D01*
X1181228Y503158D01*
X1181056Y502385D01*
X1180569Y502396D01*
X1180525Y502701D01*
X1180085Y503951D01*
X1179410Y505091D01*
X1178526Y506078D01*
X1177465Y506874D01*
X1177138Y507031D01*
X1177174Y507529D01*
X1177435Y507612D01*
X1178321Y508176D01*
X1179031Y508951D01*
X1179517Y509884D01*
X1179744Y510910D01*
X1179698Y511960D01*
X1179382Y512963D01*
X1178817Y513849D01*
X1178042Y514559D01*
X1177110Y515045D01*
X1176084Y515272D01*
X1175034Y515226D01*
X1174031Y514910D01*
X1173800Y514763D01*
X1173396Y515057D01*
X1173486Y515408D01*
X1173558Y516732D01*
X1173370Y518044D01*
X1172931Y519294D01*
X1172256Y520435D01*
X1172050Y520664D01*
X1172355Y521044D01*
X1173058Y520679D01*
X1173831Y520507D01*
X1174622Y520542D01*
X1175377Y520780D01*
X1176046Y521205D01*
X1176581Y521789D01*
X1176946Y522492D01*
X1177118Y523265D01*
X1177083Y524056D01*
X1176845Y524812D01*
X1176419Y525480D01*
X1175836Y526015D01*
X1175133Y526380D01*
X1174360Y526552D01*
X1173569Y526517D01*
X1172813Y526279D01*
X1172145Y525853D01*
X1171610Y525270D01*
X1171245Y524567D01*
X1171073Y523794D01*
X1171108Y523003D01*
X1171346Y522247D01*
X1171568Y521899D01*
X1171195Y521553D01*
X1170311Y522217D01*
X1169116Y522790D01*
X1167832Y523119D01*
X1166508Y523191D01*
X1165196Y523004D01*
X1163946Y522564D01*
X1162806Y521889D01*
X1161819Y521004D01*
X1161023Y519944D01*
X1160450Y518749D01*
X1160121Y517465D01*
X1160062Y516381D01*
X1159556Y516278D01*
X1159469Y516453D01*
X1155422Y523830D01*
X1151057Y531024D01*
X1146382Y538020D01*
X1145064Y539817D01*
X1145346Y540279D01*
X1146484Y540291D01*
X1147781Y540564D01*
X1149000Y541085D01*
X1150094Y541833D01*
X1151021Y542780D01*
X1151745Y543890D01*
X1152239Y545120D01*
X1152483Y546423D01*
X1152469Y547748D01*
X1152241Y548830D01*
X1152712Y549022D01*
X1152934Y548673D01*
X1153518Y548138D01*
X1154220Y547773D01*
X1154994Y547601D01*
X1155785Y547636D01*
X1156540Y547874D01*
X1157208Y548299D01*
X1157743Y548883D01*
X1158109Y549586D01*
X1158280Y550359D01*
X1158246Y551150D01*
X1158008Y551906D01*
X1157582Y552573D01*
X1156998Y553109D01*
X1156295Y553474D01*
X1155522Y553646D01*
X1154731Y553611D01*
X1153976Y553373D01*
X1153308Y552948D01*
X1152773Y552364D01*
X1152407Y551661D01*
X1152236Y550888D01*
X1152270Y550097D01*
X1151796Y549981D01*
X1151675Y550264D01*
X1150927Y551358D01*
X1149980Y552285D01*
X1148870Y553009D01*
X1147640Y553503D01*
X1147283Y553570D01*
X1147188Y554061D01*
X1147419Y554208D01*
X1148129Y554983D01*
X1148615Y555915D01*
X1148842Y556941D01*
X1148796Y557992D01*
X1148480Y558994D01*
X1147915Y559881D01*
X1147141Y560591D01*
X1146208Y561076D01*
X1145182Y561304D01*
X1144132Y561258D01*
X1143129Y560942D01*
X1142243Y560377D01*
X1142058Y560175D01*
X1141591Y560354D01*
X1141587Y560717D01*
X1141314Y562014D01*
X1140794Y563233D01*
X1140045Y564326D01*
X1139098Y565253D01*
X1138840Y565421D01*
X1139036Y565868D01*
X1139810Y565697D01*
X1140601Y565731D01*
X1141356Y565969D01*
X1142024Y566395D01*
X1142559Y566979D01*
X1142925Y567681D01*
X1143096Y568455D01*
X1143062Y569246D01*
X1142824Y570001D01*
X1142398Y570669D01*
X1141814Y571204D01*
X1141112Y571570D01*
X1140338Y571741D01*
X1139547Y571707D01*
X1138792Y571468D01*
X1138124Y571043D01*
X1137589Y570459D01*
X1137223Y569757D01*
X1137052Y568983D01*
X1137086Y568192D01*
X1137324Y567437D01*
X1137750Y566769D01*
X1138054Y566490D01*
X1137784Y566060D01*
X1136758Y566471D01*
X1135455Y566716D01*
X1134130Y566701D01*
X1132833Y566429D01*
X1131614Y565908D01*
X1130520Y565160D01*
X1129593Y564212D01*
X1128869Y563102D01*
X1128375Y561872D01*
X1128197Y560920D01*
X1127658Y560759D01*
X1124773Y563773D01*
X1118694Y569592D01*
X1112368Y575140D01*
X1106607Y579763D01*
X1106849Y580210D01*
X1107735Y579920D01*
X1109051Y579762D01*
X1110372Y579863D01*
X1111649Y580220D01*
X1112831Y580819D01*
X1113873Y581637D01*
X1114736Y582643D01*
X1115386Y583798D01*
X1115799Y585058D01*
X1115957Y586374D01*
X1115856Y587695D01*
X1115499Y588971D01*
X1115000Y589957D01*
X1115405Y590265D01*
X1115709Y589985D01*
X1116412Y589620D01*
X1117185Y589448D01*
X1117976Y589483D01*
X1118731Y589721D01*
X1119399Y590146D01*
X1119934Y590730D01*
X1120300Y591433D01*
X1120472Y592206D01*
X1120437Y592997D01*
X1120199Y593753D01*
X1119773Y594421D01*
X1119189Y594956D01*
X1118487Y595321D01*
X1117714Y595493D01*
X1116922Y595458D01*
X1116167Y595220D01*
X1115499Y594795D01*
X1114964Y594211D01*
X1114598Y593508D01*
X1114427Y592735D01*
X1114462Y591944D01*
X1114700Y591188D01*
X1114272Y590954D01*
X1114082Y591196D01*
X1113076Y592059D01*
X1111921Y592709D01*
X1110662Y593122D01*
X1109346Y593280D01*
X1108984Y593253D01*
X1108765Y593702D01*
X1108950Y593904D01*
X1109435Y594836D01*
X1109663Y595863D01*
X1109617Y596913D01*
X1109301Y597915D01*
X1108736Y598802D01*
X1107961Y599512D01*
X1107029Y599997D01*
X1106003Y600225D01*
X1104952Y600179D01*
X1103950Y599863D01*
X1103063Y599298D01*
X1102353Y598523D01*
X1102227Y598280D01*
X1101729Y598332D01*
X1101632Y598682D01*
X1101033Y599864D01*
X1100214Y600906D01*
X1099209Y601769D01*
X1098053Y602420D01*
X1097761Y602515D01*
X1097835Y602997D01*
X1098626Y603032D01*
X1099382Y603270D01*
X1100049Y603696D01*
X1100585Y604280D01*
X1100950Y604982D01*
X1101122Y605755D01*
X1101087Y606546D01*
X1100849Y607302D01*
X1100423Y607970D01*
X1099839Y608505D01*
X1099137Y608871D01*
X1098364Y609042D01*
X1097573Y609007D01*
X1096817Y608769D01*
X1096149Y608344D01*
X1095614Y607760D01*
X1095248Y607057D01*
X1095077Y606284D01*
X1095112Y605493D01*
X1095350Y604738D01*
X1095775Y604070D01*
X1096359Y603535D01*
X1096726Y603344D01*
X1096576Y602858D01*
X1095478Y602990D01*
X1094157Y602889D01*
X1092880Y602532D01*
X1091698Y601933D01*
X1090655Y601115D01*
X1089792Y600109D01*
X1089142Y598954D01*
X1088730Y597694D01*
X1088571Y596379D01*
X1088672Y595057D01*
X1089029Y593781D01*
X1089629Y592598D01*
X1090383Y591637D01*
X1090046Y591257D01*
X1084830Y594422D01*
X1077453Y598469D01*
X1069906Y602191D01*
X1062204Y605580D01*
X1054362Y608629D01*
X1046394Y611334D01*
X1038316Y613689D01*
X1030143Y615689D01*
X1021890Y617330D01*
X1013573Y618610D01*
X1005209Y619526D01*
X996812Y620077D01*
X988400Y620260D01*
X979988Y620077D01*
X971591Y619526D01*
X963227Y618610D01*
X954910Y617330D01*
X946657Y615689D01*
X938484Y613689D01*
X930767Y611439D01*
X930194Y611757D01*
X930140Y612028D01*
X929614Y612814D01*
X928828Y613340D01*
X927900Y613524D01*
X926972Y613340D01*
X926186Y612814D01*
X925660Y612028D01*
X925476Y611100D01*
X925660Y610172D01*
X925676Y610148D01*
X925516Y609674D01*
X922438Y608629D01*
X914596Y605580D01*
X906894Y602191D01*
X899347Y598469D01*
X891970Y594422D01*
X891254Y593987D01*
X890820Y593891D01*
X889886Y593405D01*
X889109Y592693D01*
X889102Y592682D01*
X884776Y590057D01*
X877780Y585382D01*
X870994Y580406D01*
X866717Y576974D01*
X866633Y576955D01*
X865698Y576469D01*
X864922Y575757D01*
X864630Y575298D01*
X864432Y575140D01*
X858105Y569592D01*
X852027Y563773D01*
X846208Y557694D01*
X840660Y551368D01*
X840374Y551012D01*
X840064Y551220D01*
X839136Y551404D01*
X838208Y551220D01*
X837422Y550694D01*
X836896Y549907D01*
X836712Y548980D01*
X836896Y548052D01*
X837397Y547302D01*
X835394Y544806D01*
X830418Y538020D01*
X825743Y531024D01*
X821378Y523830D01*
X817331Y516453D01*
X813609Y508906D01*
X810220Y501204D01*
X807171Y493362D01*
X804466Y485394D01*
X802111Y477316D01*
X800111Y469143D01*
X798470Y460890D01*
X798063Y458249D01*
X798063Y458249D01*
X797858Y457967D01*
X797629Y457873D01*
X797457Y457840D01*
X797457Y457840D01*
D01*
X796970Y457904D01*
X762854Y463442D01*
X762829Y463492D01*
X762660Y463980D01*
X762808Y464648D01*
X762774Y465440D01*
X762536Y466195D01*
X762110Y466863D01*
X761526Y467398D01*
X760824Y467764D01*
X760050Y467935D01*
X759259Y467901D01*
X758504Y467662D01*
X757836Y467237D01*
X757301Y466653D01*
X756935Y465951D01*
X756764Y465177D01*
X756779Y464821D01*
X756406Y464489D01*
X741970Y466832D01*
X741961Y466833D01*
X741515Y466907D01*
X741384Y466972D01*
X741273Y467040D01*
X741226Y467071D01*
X741013Y467495D01*
X741080Y467973D01*
X742567Y476299D01*
X744676Y485913D01*
X747161Y495436D01*
X750018Y504855D01*
X753243Y514154D01*
X756830Y523319D01*
X760775Y532337D01*
X765070Y541192D01*
X769709Y549873D01*
X774686Y558364D01*
X779993Y566653D01*
X785620Y574728D01*
X790422Y581071D01*
X790423Y581071D01*
X790803Y581220D01*
X791098Y581141D01*
X791173Y581120D01*
X791174Y581120D01*
X791174D01*
D01*
X791406Y581120D01*
X791660Y581118D01*
X791679Y581117D01*
X791875Y581100D01*
X795144Y580824D01*
X801500Y580646D01*
X807856Y580824D01*
X814192Y581359D01*
X820487Y582248D01*
X826724Y583488D01*
X832880Y585076D01*
X838939Y587007D01*
X844879Y589275D01*
X844980Y589320D01*
X884864Y617297D01*
X884877Y617285D01*
X885735Y618193D01*
X889901Y623127D01*
X893784Y628286D01*
X897371Y633655D01*
X900652Y639216D01*
X903616Y644953D01*
X906253Y650847D01*
X908556Y656880D01*
X910517Y663032D01*
X911001Y664909D01*
X911086Y665238D01*
X911086Y665238D01*
X911137Y665374D01*
X911265Y665559D01*
X911440Y665745D01*
X911477Y665781D01*
X911477Y665781D01*
X911932Y665960D01*
X920395Y668527D01*
X929914Y671011D01*
X939523Y673119D01*
X949208Y674849D01*
X958953Y676197D01*
X968743Y677161D01*
X978564Y677740D01*
X988400Y677933D01*
X998236Y677740D01*
D02*
G37*
G36*
X756079Y462476D02*
X756184Y462479D01*
X756286Y462453D01*
X756579Y462494D01*
X756874Y462504D01*
X756970Y462548D01*
X757074Y462562D01*
X757329Y462712D01*
X757598Y462834D01*
X757600Y462837D01*
X758046Y462428D01*
X758748Y462062D01*
X759522Y461891D01*
X760313Y461925D01*
X761068Y462163D01*
X761305Y462138D01*
X761378Y462082D01*
X761520Y461900D01*
X761663Y461819D01*
X761782Y461707D01*
X762005Y461624D01*
X762212Y461506D01*
X762374Y461486D01*
X762528Y461429D01*
X796643Y455891D01*
X796675Y455892D01*
X796706Y455882D01*
X796827Y455866D01*
X797127Y455466D01*
X796692Y452639D01*
X795774Y444253D01*
X795222Y435834D01*
X795038Y427400D01*
X795222Y418966D01*
X795774Y410547D01*
X796692Y402161D01*
X797976Y393823D01*
X799622Y385549D01*
X801627Y377354D01*
X803988Y369255D01*
X806699Y361266D01*
X809757Y353404D01*
X812509Y347149D01*
X812096Y346866D01*
X776929Y382033D01*
Y449562D01*
X777114Y449686D01*
X777640Y450472D01*
X777824Y451400D01*
X777640Y452328D01*
X777114Y453114D01*
X776328Y453640D01*
X775400Y453825D01*
X774472Y453640D01*
X773686Y453114D01*
X773160Y452328D01*
X772975Y451400D01*
X773160Y450472D01*
X773686Y449686D01*
X773871Y449562D01*
Y439856D01*
X758775Y424760D01*
X758372Y425065D01*
X759049Y426267D01*
X759653Y428113D01*
X759886Y430041D01*
X759737Y431977D01*
X759214Y433847D01*
X758337Y435579D01*
X757138Y437107D01*
X755664Y438371D01*
X753972Y439324D01*
X752126Y439928D01*
X750198Y440161D01*
X748262Y440012D01*
X746392Y439489D01*
X744660Y438611D01*
X743132Y437413D01*
X741867Y435939D01*
X740915Y434246D01*
X740311Y432401D01*
X740078Y430473D01*
X740227Y428537D01*
X740750Y426666D01*
X741627Y424934D01*
X742826Y423407D01*
X744300Y422142D01*
X745992Y421190D01*
X747838Y420586D01*
X749766Y420353D01*
X751702Y420501D01*
X753572Y421024D01*
X755112Y421805D01*
X755409Y421395D01*
X751060Y417045D01*
X750780Y417191D01*
X749752Y417419D01*
X748699Y417373D01*
X747695Y417057D01*
X746807Y416491D01*
X746095Y415714D01*
X745609Y414780D01*
X745381Y413752D01*
X745427Y412699D01*
X745744Y411695D01*
X746309Y410807D01*
X747086Y410095D01*
X748020Y409609D01*
X749048Y409381D01*
X750101Y409427D01*
X751105Y409743D01*
X751993Y410309D01*
X752705Y411086D01*
X753191Y412020D01*
X753419Y413048D01*
X753373Y414101D01*
X753150Y414810D01*
X754978Y416638D01*
X755427Y416379D01*
X755229Y415488D01*
X755275Y414436D01*
X755592Y413431D01*
X756157Y412543D01*
X756934Y411832D01*
X757868Y411345D01*
X758896Y411117D01*
X759949Y411163D01*
X760953Y411480D01*
X761841Y412046D01*
X762553Y412822D01*
X763039Y413757D01*
X763267Y414785D01*
X763221Y415837D01*
X762905Y416842D01*
X762339Y417730D01*
X761562Y418441D01*
X760628Y418928D01*
X759600Y419156D01*
X758547Y419110D01*
X757977Y418930D01*
X757710Y419370D01*
X773409Y435069D01*
X773871Y434877D01*
Y381400D01*
X773987Y380815D01*
X774319Y380319D01*
X817329Y337309D01*
X820944Y330719D01*
X825320Y323507D01*
X830007Y316492D01*
X831486Y314475D01*
Y300080D01*
X830999Y299878D01*
X830163Y299237D01*
X829522Y298401D01*
X829119Y297428D01*
X828981Y296384D01*
X829119Y295340D01*
X829522Y294367D01*
X830163Y293531D01*
X830999Y292890D01*
X831971Y292487D01*
X833016Y292350D01*
X834060Y292487D01*
X835033Y292890D01*
X835869Y293531D01*
X836510Y294367D01*
X836913Y295340D01*
X837050Y296384D01*
X836913Y297428D01*
X836510Y298401D01*
X835869Y299237D01*
X835033Y299878D01*
X834545Y300080D01*
Y309541D01*
X834722Y309599D01*
X835045Y309627D01*
X837304Y306813D01*
X837244Y306316D01*
X837234Y306308D01*
X836593Y305473D01*
X836190Y304500D01*
X836052Y303455D01*
X836190Y302411D01*
X836593Y301438D01*
X837234Y300603D01*
X838070Y299961D01*
X839043Y299558D01*
X840087Y299421D01*
X841131Y299558D01*
X842104Y299961D01*
X842662Y300389D01*
X845839Y296767D01*
X851672Y290672D01*
X857767Y284839D01*
X864109Y279276D01*
X870689Y273996D01*
X877492Y269007D01*
X884507Y264320D01*
X891719Y259944D01*
X898309Y256329D01*
X898871Y255767D01*
Y207245D01*
X898987Y206659D01*
X899319Y206163D01*
X899609Y205873D01*
X899407Y205385D01*
X899269Y204341D01*
X899407Y203297D01*
X899810Y202324D01*
X900451Y201488D01*
X901286Y200847D01*
X902260Y200444D01*
X903304Y200306D01*
X904348Y200444D01*
X905321Y200847D01*
X906157Y201488D01*
X906798Y202324D01*
X907201Y203297D01*
X907338Y204341D01*
X907201Y205385D01*
X906798Y206358D01*
X906157Y207194D01*
X905321Y207835D01*
X904348Y208238D01*
X903304Y208376D01*
X902429Y208260D01*
X901929Y208581D01*
Y211607D01*
X902374Y211942D01*
X902429Y211942D01*
X903039Y211147D01*
X903875Y210506D01*
X904848Y210103D01*
X905892Y209966D01*
X906936Y210103D01*
X907909Y210506D01*
X908745Y211147D01*
X909386Y211983D01*
X909789Y212956D01*
X909926Y214000D01*
X909789Y215044D01*
X909386Y216018D01*
X908745Y216853D01*
X907909Y217494D01*
X906936Y217897D01*
X905892Y218035D01*
X904848Y217897D01*
X903875Y217494D01*
X903039Y216853D01*
X902429Y216058D01*
X902374Y216058D01*
X901929Y216394D01*
Y254025D01*
X902354Y254289D01*
X906682Y252155D01*
X914404Y248757D01*
X922266Y245699D01*
X930255Y242987D01*
X938354Y240627D01*
X943859Y239280D01*
X944318Y239120D01*
X944216Y238655D01*
Y238655D01*
X937801Y209560D01*
X937332Y209388D01*
X936887Y209730D01*
X935914Y210133D01*
X934870Y210270D01*
X933825Y210133D01*
X932852Y209730D01*
X932017Y209088D01*
X931376Y208253D01*
X930973Y207280D01*
X930835Y206236D01*
X930973Y205191D01*
X931376Y204218D01*
X932017Y203383D01*
X932852Y202742D01*
X933825Y202339D01*
X934870Y202201D01*
X935691Y202309D01*
X936118Y201923D01*
X935596Y199554D01*
X935067Y199481D01*
X934299Y200070D01*
X933326Y200473D01*
X932281Y200611D01*
X931237Y200473D01*
X930264Y200070D01*
X929429Y199429D01*
X928788Y198594D01*
X928384Y197621D01*
X928247Y196576D01*
X928384Y195532D01*
X928788Y194559D01*
X929429Y193723D01*
X930264Y193082D01*
X931237Y192679D01*
X932281Y192542D01*
X933326Y192679D01*
X933656Y192816D01*
X934039Y192495D01*
X932126Y183817D01*
X930031Y184277D01*
X920531Y186756D01*
X911136Y189606D01*
X901860Y192822D01*
X892717Y196401D01*
X883722Y200335D01*
X874888Y204620D01*
X866229Y209248D01*
X857759Y214213D01*
X849490Y219506D01*
X841435Y225120D01*
X833607Y231046D01*
X826017Y237274D01*
X818678Y243796D01*
X811601Y250601D01*
X804796Y257678D01*
X798274Y265017D01*
X792046Y272607D01*
X786120Y280435D01*
X780506Y288490D01*
X775213Y296759D01*
X770248Y305229D01*
X765620Y313888D01*
X761335Y322722D01*
X757401Y331717D01*
X753822Y340860D01*
X750606Y350136D01*
X747756Y359531D01*
X745277Y369031D01*
X743173Y378621D01*
X741446Y388286D01*
X740101Y398012D01*
X739139Y407783D01*
X738561Y417584D01*
X738368Y427400D01*
X738561Y437216D01*
X739139Y447017D01*
X740101Y456788D01*
X741173Y464534D01*
X741435Y464727D01*
X741522Y464768D01*
X741715Y464807D01*
X756079Y462476D01*
D02*
G37*
G36*
X987628Y617725D02*
X992300D01*
X992296Y617746D01*
X992617Y618129D01*
X996723Y618039D01*
X1005031Y617494D01*
X1013307Y616588D01*
X1021536Y615322D01*
X1029701Y613697D01*
X1037788Y611719D01*
X1045781Y609389D01*
X1053664Y606713D01*
X1061424Y603695D01*
X1069044Y600342D01*
X1076511Y596660D01*
X1083810Y592656D01*
X1088988Y589514D01*
X1089192Y589439D01*
X1089380Y589330D01*
X1089562Y589305D01*
X1089736Y589242D01*
X1089953Y589251D01*
X1090168Y589221D01*
X1090346Y589268D01*
X1090530Y589276D01*
X1090727Y589368D01*
X1090938Y589423D01*
X1091084Y589535D01*
X1091252Y589612D01*
X1091398Y589773D01*
X1091572Y589904D01*
X1091909Y590284D01*
X1091975Y590399D01*
X1092608Y590043D01*
X1093273Y589825D01*
X1095361Y588430D01*
X1095093Y587916D01*
X1094866Y586890D01*
X1094912Y585839D01*
X1095228Y584837D01*
X1095793Y583950D01*
X1096568Y583240D01*
X1097500Y582755D01*
X1098526Y582527D01*
X1099576Y582573D01*
X1100579Y582889D01*
X1101465Y583454D01*
X1101880Y583907D01*
X1103804Y582496D01*
X1104314Y581846D01*
X1105070Y581198D01*
X1105056Y581181D01*
X1104814Y580734D01*
X1104750Y580527D01*
X1104649Y580334D01*
X1104633Y580151D01*
X1104579Y579974D01*
X1104599Y579758D01*
X1104580Y579541D01*
X1104635Y579366D01*
X1104652Y579182D01*
X1104754Y578990D01*
X1104819Y578783D01*
X1104938Y578641D01*
X1105024Y578478D01*
X1105191Y578340D01*
X1105331Y578173D01*
X1111057Y573577D01*
X1117317Y568088D01*
X1123331Y562330D01*
X1126185Y559349D01*
X1126444Y559168D01*
X1126687Y558966D01*
X1126767Y558941D01*
X1126836Y558893D01*
X1127145Y558824D01*
X1127447Y558731D01*
X1127531Y558739D01*
X1127613Y558720D01*
X1127924Y558775D01*
X1128238Y558805D01*
X1128418Y557948D01*
X1128939Y556729D01*
X1129687Y555635D01*
X1130634Y554708D01*
X1131744Y553984D01*
X1132974Y553490D01*
X1133331Y553423D01*
X1133426Y552932D01*
X1133195Y552785D01*
X1132485Y552010D01*
X1131999Y551078D01*
X1131772Y550051D01*
X1131818Y549001D01*
X1132134Y547999D01*
X1132699Y547112D01*
X1133474Y546402D01*
X1134406Y545917D01*
X1135432Y545689D01*
X1136482Y545735D01*
X1137485Y546051D01*
X1138371Y546616D01*
X1138556Y546818D01*
X1139023Y546639D01*
X1139027Y546276D01*
X1139300Y544979D01*
X1139820Y543760D01*
X1140569Y542666D01*
X1141516Y541739D01*
X1142626Y541015D01*
X1143277Y540754D01*
X1143185Y540502D01*
X1143049Y540131D01*
X1143049Y540129D01*
X1143049Y540127D01*
X1143066Y539733D01*
X1143083Y539336D01*
X1143083Y539334D01*
X1143084Y539332D01*
X1143251Y538974D01*
X1143418Y538614D01*
X1143419Y538613D01*
X1143420Y538611D01*
X1144711Y536850D01*
X1149337Y529928D01*
X1153656Y522810D01*
X1157660Y515511D01*
X1157727Y515376D01*
X1157812Y515265D01*
X1157866Y515136D01*
X1158052Y514952D01*
X1158211Y514745D01*
X1158332Y514675D01*
X1158432Y514576D01*
X1158674Y514477D01*
X1158900Y514347D01*
X1159039Y514328D01*
X1159169Y514276D01*
X1159430Y514277D01*
X1159689Y514243D01*
X1159824Y514279D01*
X1159964Y514280D01*
X1160398Y514369D01*
X1160676Y513579D01*
X1161351Y512439D01*
X1162236Y511452D01*
X1162646Y511144D01*
X1163269Y509882D01*
X1162440Y509354D01*
X1161730Y508579D01*
X1161245Y507647D01*
X1161017Y506620D01*
X1161063Y505570D01*
X1161379Y504568D01*
X1161944Y503681D01*
X1162719Y502971D01*
X1163651Y502486D01*
X1164678Y502258D01*
X1165728Y502304D01*
X1166532Y502558D01*
X1167043Y501396D01*
X1167212Y500961D01*
X1167204Y500799D01*
X1167391Y499487D01*
X1167772Y498402D01*
X1167373Y498157D01*
X1167214Y498009D01*
X1167030Y497893D01*
X1166924Y497742D01*
X1166789Y497616D01*
X1166698Y497419D01*
X1166574Y497241D01*
X1166534Y497061D01*
X1166457Y496894D01*
X1166449Y496676D01*
X1166402Y496464D01*
X1166434Y496283D01*
X1166427Y496099D01*
X1166502Y495895D01*
X1166540Y495681D01*
X1167713Y492664D01*
X1170389Y484781D01*
X1172719Y476788D01*
X1174697Y468701D01*
X1176322Y460536D01*
X1176470Y459568D01*
X1176563Y459314D01*
X1176622Y459051D01*
X1176698Y458944D01*
X1176743Y458821D01*
X1176925Y458622D01*
X1177081Y458401D01*
X1177192Y458331D01*
X1177280Y458234D01*
X1177283Y458225D01*
X1176836Y457366D01*
X1176609Y456340D01*
X1176655Y455290D01*
X1176971Y454287D01*
X1177535Y453401D01*
X1178084Y452898D01*
X1178009Y452755D01*
X1177869Y452568D01*
X1177827Y452405D01*
X1177750Y452256D01*
X1177729Y452023D01*
X1177671Y451797D01*
X1177695Y451631D01*
X1177680Y451464D01*
X1178494Y444031D01*
X1179039Y435723D01*
X1179221Y427400D01*
X1179039Y419076D01*
X1178494Y410769D01*
X1177931Y405623D01*
X1177949Y405421D01*
X1177927Y405219D01*
X1177983Y405028D01*
X1178000Y404830D01*
X1178094Y404650D01*
X1178151Y404455D01*
X1178276Y404301D01*
X1178284Y404285D01*
X1177535Y403599D01*
X1176970Y402713D01*
X1176654Y401710D01*
X1176609Y400660D01*
X1176836Y399634D01*
X1177322Y398702D01*
X1178032Y397927D01*
X1178918Y397362D01*
X1179348Y397226D01*
X1178955Y394674D01*
X1178665Y394100D01*
X1178371Y393049D01*
X1178343Y393056D01*
X1177837Y393075D01*
X1177600Y393038D01*
X1177361D01*
X1177211Y392976D01*
X1177051Y392950D01*
X1176847Y392825D01*
X1176626Y392733D01*
X1176511Y392618D01*
X1176373Y392534D01*
X1176233Y392340D01*
X1176063Y392171D01*
X1176001Y392021D01*
X1175906Y391889D01*
X1175850Y391657D01*
X1175759Y391436D01*
X1174697Y386099D01*
X1172719Y378012D01*
X1170389Y370019D01*
X1167816Y362439D01*
X1167803Y362344D01*
X1167763Y362257D01*
X1167752Y361952D01*
X1167712Y361650D01*
X1167737Y361558D01*
X1167733Y361462D01*
X1167839Y361176D01*
X1167918Y360881D01*
X1167976Y360806D01*
X1168009Y360716D01*
X1168216Y360492D01*
X1168402Y360250D01*
X1168412Y359746D01*
X1167830Y358764D01*
X1167391Y357513D01*
X1167204Y356201D01*
X1167276Y354878D01*
X1167353Y354576D01*
X1166918Y354260D01*
X1166730Y354380D01*
X1165728Y354696D01*
X1164678Y354742D01*
X1163651Y354514D01*
X1162719Y354029D01*
X1161944Y353319D01*
X1161379Y352432D01*
X1161063Y351430D01*
X1161017Y350380D01*
X1161245Y349353D01*
X1161730Y348421D01*
X1162440Y347646D01*
X1163327Y347081D01*
X1163539Y347014D01*
X1163577Y346478D01*
X1163296Y346343D01*
X1162236Y345548D01*
X1161351Y344561D01*
X1160676Y343421D01*
X1160236Y342170D01*
X1160125Y341392D01*
X1159892Y340969D01*
X1159536Y340922D01*
X1159178Y340889D01*
X1159143Y340871D01*
X1159103Y340865D01*
X1158792Y340686D01*
X1158474Y340518D01*
X1158449Y340487D01*
X1158414Y340468D01*
X1158195Y340182D01*
X1157966Y339906D01*
X1157954Y339868D01*
X1157930Y339836D01*
X1157660Y339289D01*
X1153656Y331990D01*
X1149337Y324872D01*
X1144711Y317950D01*
X1143595Y316428D01*
X1143462Y316142D01*
X1143305Y315867D01*
X1143295Y315783D01*
X1143259Y315707D01*
X1143245Y315391D01*
X1143206Y315078D01*
X1143228Y314996D01*
X1143224Y314912D01*
X1143332Y314615D01*
X1143416Y314310D01*
X1143412Y314300D01*
X1142626Y313985D01*
X1141516Y313261D01*
X1140569Y312334D01*
X1139820Y311240D01*
X1139300Y310021D01*
X1139027Y308724D01*
X1139023Y308361D01*
X1138556Y308182D01*
X1138371Y308384D01*
X1137485Y308949D01*
X1136482Y309265D01*
X1135432Y309311D01*
X1134406Y309083D01*
X1133474Y308598D01*
X1132699Y307888D01*
X1132134Y307001D01*
X1131818Y305999D01*
X1131772Y304949D01*
X1131999Y303922D01*
X1132485Y302990D01*
X1133195Y302215D01*
X1133426Y302068D01*
X1133331Y301577D01*
X1132974Y301510D01*
X1131744Y301016D01*
X1130634Y300292D01*
X1129687Y299365D01*
X1128939Y298271D01*
X1128418Y297052D01*
X1128204Y296034D01*
X1127956Y296057D01*
X1127645Y296112D01*
X1127562Y296094D01*
X1127478Y296102D01*
X1127176Y296008D01*
X1126868Y295940D01*
X1126799Y295892D01*
X1126718Y295867D01*
X1126475Y295665D01*
X1126216Y295484D01*
X1123331Y292469D01*
X1117317Y286712D01*
X1111057Y281223D01*
X1105719Y276939D01*
X1105708Y276926D01*
X1105693Y276918D01*
X1105453Y276621D01*
X1105208Y276329D01*
X1105203Y276313D01*
X1105192Y276300D01*
X1105083Y275934D01*
X1104969Y275571D01*
X1104970Y275554D01*
X1104965Y275537D01*
X1105005Y275158D01*
X1105038Y274778D01*
X1104695Y274454D01*
X1104202Y274293D01*
X1103047Y273643D01*
X1102042Y272780D01*
X1101223Y271737D01*
X1100624Y270555D01*
X1100540Y270255D01*
X1100006Y270199D01*
X1099903Y270396D01*
X1099193Y271171D01*
X1098306Y271736D01*
X1097304Y272052D01*
X1096253Y272098D01*
X1095227Y271871D01*
X1094295Y271385D01*
X1093520Y270675D01*
X1092955Y269789D01*
X1092639Y268786D01*
X1092593Y267736D01*
X1092821Y266710D01*
X1093306Y265777D01*
X1093456Y265613D01*
X1093221Y265130D01*
X1092910Y265154D01*
X1091595Y264995D01*
X1090335Y264583D01*
X1089180Y263932D01*
X1088174Y263070D01*
X1087698Y263031D01*
X1087442Y263151D01*
X1087200Y263299D01*
X1087084Y263318D01*
X1086977Y263368D01*
X1086694Y263380D01*
X1086415Y263424D01*
X1086300Y263397D01*
X1086182Y263402D01*
X1085916Y263305D01*
X1085641Y263240D01*
X1085545Y263170D01*
X1085435Y263130D01*
X1083810Y262144D01*
X1076511Y258140D01*
X1069044Y254458D01*
X1061424Y251105D01*
X1053664Y248087D01*
X1045781Y245411D01*
X1037788Y243081D01*
X1029701Y241103D01*
X1021536Y239478D01*
X1013307Y238212D01*
X1005031Y237305D01*
X996723Y236761D01*
X988400Y236579D01*
X980077Y236761D01*
X971769Y237305D01*
X963493Y238212D01*
X955264Y239478D01*
X947305Y241062D01*
X947104D01*
X946907Y241101D01*
X946784Y241076D01*
X946658Y241086D01*
X946421Y241056D01*
X946160Y240970D01*
X945890Y240916D01*
X945743Y240856D01*
X945675Y240810D01*
X945665Y240807D01*
X945649Y240793D01*
X945635Y240783D01*
X945528Y240747D01*
X945486Y240791D01*
X945230Y240903D01*
X944990Y241045D01*
X944531Y241205D01*
X944433Y241219D01*
X944344Y241260D01*
X938882Y242597D01*
X930868Y244933D01*
X922964Y247616D01*
X915184Y250641D01*
X907544Y254003D01*
X903256Y256118D01*
X903030Y256178D01*
X902817Y256275D01*
X902649Y256280D01*
X902487Y256324D01*
X902429Y256316D01*
X901990Y256390D01*
X901856Y256768D01*
X901813Y256985D01*
X901481Y257481D01*
X834097Y324866D01*
X813817Y345146D01*
X813952Y345718D01*
X813982Y345739D01*
X814084Y345899D01*
X814217Y346034D01*
X814296Y346231D01*
X814410Y346410D01*
X814443Y346597D01*
X814513Y346773D01*
X814511Y346985D01*
X814548Y347193D01*
X814507Y347379D01*
X814505Y347568D01*
X814421Y347763D01*
X814376Y347970D01*
X811641Y354184D01*
X808616Y361964D01*
X805933Y369868D01*
X803597Y377882D01*
X801613Y385990D01*
X799984Y394177D01*
X798715Y402427D01*
X797806Y410725D01*
X797260Y419055D01*
X797078Y427400D01*
X797260Y435745D01*
X797806Y444075D01*
X798715Y452373D01*
X799143Y455156D01*
X799143Y455168D01*
X799146Y455179D01*
X799125Y455565D01*
X799108Y455951D01*
X799103Y455962D01*
X799103Y455974D01*
X798962Y456266D01*
X799098Y456391D01*
X799300Y456526D01*
X799388Y456657D01*
X799505Y456765D01*
X799710Y457046D01*
X799747Y457126D01*
X799806Y457191D01*
X799860Y457338D01*
X799947Y457468D01*
X799978Y457624D01*
X800045Y457768D01*
X800049Y457856D01*
X800079Y457939D01*
X800478Y460536D01*
X802103Y468701D01*
X804082Y476788D01*
X806411Y484781D01*
X809087Y492664D01*
X812105Y500424D01*
X815458Y508044D01*
X819140Y515511D01*
X823144Y522810D01*
X827464Y529928D01*
X832089Y536850D01*
X837012Y543564D01*
X838848Y545852D01*
X839358Y545888D01*
X839458Y545851D01*
X839460Y545850D01*
X888529Y475772D01*
X888960Y475359D01*
X889517Y475143D01*
X913420Y470928D01*
X913534Y470413D01*
X914021Y469479D01*
X914732Y468702D01*
X915620Y468136D01*
X916625Y467819D01*
X917677Y467773D01*
X918705Y468002D01*
X919640Y468488D01*
X920416Y469199D01*
X920982Y470088D01*
X921299Y471092D01*
X921345Y472144D01*
X921117Y473173D01*
X920630Y474107D01*
X919919Y474883D01*
X919030Y475449D01*
X918026Y475766D01*
X916974Y475812D01*
X915946Y475584D01*
X915011Y475098D01*
X914235Y474386D01*
X913951Y473941D01*
X890672Y478046D01*
X841437Y548359D01*
X841560Y548980D01*
X841495Y549311D01*
X841507Y549316D01*
X841727Y549536D01*
X841965Y549735D01*
X842223Y550057D01*
X847712Y556317D01*
X853469Y562331D01*
X859484Y568088D01*
X863753Y571832D01*
X864295Y571642D01*
X864708Y570850D01*
X865419Y570073D01*
X866307Y569507D01*
X867312Y569191D01*
X868364Y569144D01*
X869392Y569373D01*
X870327Y569859D01*
X871103Y570570D01*
X871669Y571459D01*
X871986Y572463D01*
X872032Y573515D01*
X871804Y574544D01*
X871317Y575478D01*
X870606Y576254D01*
X870116Y576566D01*
X870089Y577065D01*
X871586Y578267D01*
X872141Y578071D01*
X872284Y577429D01*
X872770Y576495D01*
X873482Y575718D01*
X874370Y575153D01*
X875374Y574836D01*
X876427Y574790D01*
X877455Y575018D01*
X878389Y575504D01*
X879166Y576216D01*
X879731Y577104D01*
X880048Y578109D01*
X880094Y579161D01*
X879866Y580189D01*
X879380Y581123D01*
X878668Y581900D01*
X877950Y582358D01*
X877869Y582919D01*
X878950Y583711D01*
X879664Y584189D01*
X880159Y583918D01*
X880346Y583075D01*
X880833Y582140D01*
X881544Y581364D01*
X882432Y580798D01*
X883437Y580481D01*
X884489Y580435D01*
X885517Y580663D01*
X886452Y581150D01*
X887228Y581861D01*
X887794Y582750D01*
X888111Y583754D01*
X888157Y584806D01*
X887929Y585835D01*
X887442Y586769D01*
X886731Y587545D01*
X886146Y587918D01*
X886152Y588507D01*
X887816Y589516D01*
X888276Y589320D01*
X888409Y588720D01*
X888895Y587786D01*
X889607Y587009D01*
X890495Y586444D01*
X891499Y586127D01*
X892552Y586081D01*
X893580Y586309D01*
X894514Y586795D01*
X895291Y587507D01*
X895856Y588395D01*
X896173Y589399D01*
X896219Y590452D01*
X895991Y591480D01*
X895505Y592414D01*
X894864Y593114D01*
X894848Y593675D01*
X900289Y596660D01*
X907756Y600342D01*
X915376Y603695D01*
X923135Y606713D01*
X925264Y607435D01*
X925643Y607110D01*
X916144Y553239D01*
X916158Y552642D01*
X916398Y552096D01*
X922596Y543245D01*
X912143Y483964D01*
X911238Y484003D01*
X910210Y483775D01*
X909276Y483289D01*
X908499Y482578D01*
X907933Y481689D01*
X907616Y480685D01*
X907570Y479633D01*
X907798Y478604D01*
X908285Y477670D01*
X908996Y476894D01*
X909885Y476328D01*
X910889Y476011D01*
X911941Y475965D01*
X912970Y476193D01*
X913904Y476679D01*
X914680Y477391D01*
X915246Y478279D01*
X915563Y479284D01*
X915609Y480336D01*
X915381Y481364D01*
X914940Y482211D01*
X925718Y543337D01*
X925705Y543934D01*
X925465Y544480D01*
X919267Y553331D01*
X929089Y609034D01*
X929614Y609386D01*
X929791Y609650D01*
X930161Y609533D01*
X930537Y609413D01*
X930541Y609413D01*
X930545Y609412D01*
X930937Y609447D01*
X931330Y609480D01*
X931334Y609481D01*
X931338Y609482D01*
X939012Y611719D01*
X947099Y613697D01*
X955264Y615322D01*
X963493Y616588D01*
X971769Y617494D01*
X980077Y618039D01*
X987233Y618195D01*
X987628Y617725D01*
D02*
G37*
G36*
X891730Y262907D02*
X891419Y262511D01*
X885603Y266040D01*
X878662Y270678D01*
X871930Y275614D01*
X865420Y280839D01*
X859145Y286342D01*
X853115Y292115D01*
X847342Y298145D01*
X844195Y301734D01*
X843931Y301936D01*
X843826Y302029D01*
X843984Y302411D01*
X844121Y303455D01*
X843984Y304500D01*
X843581Y305473D01*
X842940Y306308D01*
X842104Y306949D01*
X841131Y307352D01*
X840087Y307490D01*
X839264Y307382D01*
X839262Y307383D01*
X839083Y307727D01*
X838908Y308071D01*
X838900Y308079D01*
X838894Y308089D01*
X836635Y310904D01*
X836482Y311032D01*
X836357Y311188D01*
X836180Y311285D01*
X836026Y311415D01*
X835835Y311475D01*
X835660Y311572D01*
X835459Y311594D01*
X835267Y311654D01*
X835068Y311637D01*
X834869Y311659D01*
X834545Y312133D01*
Y319439D01*
X835007Y319630D01*
X891730Y262907D01*
D02*
G37*
%LPC*%
G36*
X1090689Y334269D02*
X1089917Y334098D01*
X1089217Y333733D01*
X1088634Y333200D01*
X1088210Y332534D01*
X1087973Y331780D01*
X1087938Y330991D01*
X1088109Y330220D01*
X1088474Y329519D01*
X1089007Y328937D01*
X1089674Y328512D01*
X1090427Y328275D01*
X1091216Y328240D01*
X1091987Y328411D01*
X1092688Y328776D01*
X1093270Y329310D01*
X1093695Y329976D01*
X1093932Y330729D01*
X1093967Y331519D01*
X1093796Y332290D01*
X1093431Y332990D01*
X1092897Y333573D01*
X1092231Y333997D01*
X1091478Y334235D01*
X1090689Y334269D01*
D02*
G37*
G36*
X1208376Y334844D02*
X1206930Y331743D01*
X1210030Y330297D01*
X1210192Y330809D01*
X1210237Y331849D01*
X1210012Y332865D01*
X1209531Y333788D01*
X1208828Y334556D01*
X1208376Y334844D01*
D02*
G37*
G36*
X1192629Y330636D02*
X1191613Y330411D01*
X1190689Y329930D01*
X1189922Y329227D01*
X1189363Y328349D01*
X1189050Y327357D01*
X1189005Y326317D01*
X1189230Y325301D01*
X1189710Y324378D01*
X1190413Y323610D01*
X1191291Y323051D01*
X1192284Y322738D01*
X1193324Y322693D01*
X1194340Y322918D01*
X1195263Y323399D01*
X1196030Y324102D01*
X1196589Y324980D01*
X1196902Y325972D01*
X1196948Y327012D01*
X1196723Y328028D01*
X1196242Y328951D01*
X1195539Y329719D01*
X1194661Y330278D01*
X1193668Y330591D01*
X1192629Y330636D01*
D02*
G37*
G36*
X1206507Y330837D02*
X1205062Y327736D01*
X1205573Y327575D01*
X1206613Y327530D01*
X1207629Y327755D01*
X1208552Y328236D01*
X1209320Y328939D01*
X1209608Y329391D01*
X1206507Y330837D01*
D02*
G37*
G36*
X1202501Y332705D02*
X1202339Y332194D01*
X1202294Y331154D01*
X1202519Y330138D01*
X1203000Y329215D01*
X1203703Y328447D01*
X1204155Y328159D01*
X1205601Y331260D01*
X1202501Y332705D01*
D02*
G37*
G36*
X1119669Y357750D02*
X1118898Y357579D01*
X1118198Y357214D01*
X1117615Y356680D01*
X1117191Y356014D01*
X1116953Y355261D01*
X1116919Y354471D01*
X1117090Y353700D01*
X1117454Y353000D01*
X1117988Y352417D01*
X1118654Y351993D01*
X1119408Y351755D01*
X1120197Y351721D01*
X1120968Y351892D01*
X1121669Y352256D01*
X1122251Y352790D01*
X1122676Y353456D01*
X1122913Y354210D01*
X1122948Y354999D01*
X1122777Y355770D01*
X1122412Y356471D01*
X1121878Y357053D01*
X1121212Y357478D01*
X1120459Y357715D01*
X1119669Y357750D01*
D02*
G37*
G36*
X846349Y372835D02*
X844413Y372687D01*
X842543Y372164D01*
X840811Y371286D01*
X839283Y370087D01*
X838019Y368613D01*
X837066Y366921D01*
X836462Y365075D01*
X836230Y363147D01*
X836378Y361211D01*
X836901Y359341D01*
X837778Y357609D01*
X838977Y356081D01*
X840451Y354817D01*
X842144Y353864D01*
X843989Y353260D01*
X845917Y353028D01*
X847853Y353176D01*
X849723Y353699D01*
X851456Y354576D01*
X852983Y355775D01*
X854248Y357249D01*
X855200Y358942D01*
X855804Y360787D01*
X856037Y362715D01*
X855889Y364651D01*
X855365Y366521D01*
X854488Y368254D01*
X853289Y369781D01*
X851815Y371046D01*
X850123Y371998D01*
X848277Y372602D01*
X846349Y372835D01*
D02*
G37*
G36*
X1130085Y360059D02*
X1129313Y359888D01*
X1128613Y359524D01*
X1128030Y358990D01*
X1127606Y358324D01*
X1127368Y357570D01*
X1127334Y356781D01*
X1127505Y356010D01*
X1127870Y355309D01*
X1128403Y354727D01*
X1129070Y354302D01*
X1129823Y354065D01*
X1130612Y354030D01*
X1131383Y354201D01*
X1132084Y354566D01*
X1132666Y355100D01*
X1133091Y355766D01*
X1133328Y356519D01*
X1133363Y357309D01*
X1133192Y358080D01*
X1132827Y358780D01*
X1132293Y359363D01*
X1131627Y359787D01*
X1130874Y360025D01*
X1130085Y360059D01*
D02*
G37*
G36*
X1201081Y348762D02*
X1200065Y348537D01*
X1199142Y348057D01*
X1198374Y347353D01*
X1197815Y346476D01*
X1197502Y345483D01*
X1197457Y344443D01*
X1197682Y343427D01*
X1198163Y342504D01*
X1198866Y341737D01*
X1199744Y341177D01*
X1200736Y340864D01*
X1201776Y340819D01*
X1202792Y341044D01*
X1203715Y341525D01*
X1204483Y342228D01*
X1205042Y343106D01*
X1205355Y344098D01*
X1205400Y345138D01*
X1205175Y346154D01*
X1204694Y347077D01*
X1203991Y347845D01*
X1203113Y348404D01*
X1202121Y348717D01*
X1201081Y348762D01*
D02*
G37*
G36*
X1196855Y339699D02*
X1195839Y339474D01*
X1194916Y338993D01*
X1194148Y338290D01*
X1193589Y337413D01*
X1193276Y336420D01*
X1193231Y335380D01*
X1193456Y334364D01*
X1193937Y333441D01*
X1194640Y332674D01*
X1195517Y332114D01*
X1196510Y331801D01*
X1197550Y331756D01*
X1198566Y331981D01*
X1199489Y332462D01*
X1200257Y333165D01*
X1200816Y334043D01*
X1201129Y335035D01*
X1201174Y336075D01*
X1200949Y337091D01*
X1200468Y338014D01*
X1199765Y338782D01*
X1198887Y339341D01*
X1197895Y339654D01*
X1196855Y339699D01*
D02*
G37*
G36*
X1205918Y335473D02*
X1204902Y335248D01*
X1203979Y334767D01*
X1203211Y334064D01*
X1202923Y333612D01*
X1206024Y332166D01*
X1207469Y335266D01*
X1206958Y335428D01*
X1205918Y335473D01*
D02*
G37*
G36*
X1210144Y344536D02*
X1209128Y344311D01*
X1208205Y343830D01*
X1207438Y343127D01*
X1206878Y342249D01*
X1206565Y341257D01*
X1206520Y340217D01*
X1206745Y339201D01*
X1207226Y338278D01*
X1207929Y337510D01*
X1208807Y336951D01*
X1209799Y336638D01*
X1210839Y336593D01*
X1211855Y336818D01*
X1212778Y337299D01*
X1213546Y338002D01*
X1214105Y338880D01*
X1214418Y339872D01*
X1214463Y340912D01*
X1214238Y341928D01*
X1213758Y342851D01*
X1213054Y343619D01*
X1212177Y344178D01*
X1211184Y344491D01*
X1210144Y344536D01*
D02*
G37*
G36*
X805887Y297961D02*
X804688Y297842D01*
X803535Y297493D01*
X802472Y296924D01*
X801540Y296160D01*
X800776Y295228D01*
X800207Y294165D01*
X799858Y293012D01*
X799740Y291813D01*
X799858Y290614D01*
X800207Y289460D01*
X800776Y288397D01*
X801540Y287466D01*
X802472Y286701D01*
X803535Y286133D01*
X804688Y285783D01*
X805887Y285665D01*
X807086Y285783D01*
X808240Y286133D01*
X809303Y286701D01*
X810234Y287466D01*
X810999Y288397D01*
X811567Y289460D01*
X811917Y290614D01*
X812035Y291813D01*
X811917Y293012D01*
X811567Y294165D01*
X810999Y295228D01*
X810234Y296160D01*
X809303Y296924D01*
X808240Y297493D01*
X807086Y297842D01*
X805887Y297961D01*
D02*
G37*
G36*
X840087Y293348D02*
X839043Y293210D01*
X838070Y292807D01*
X837234Y292166D01*
X836593Y291331D01*
X836190Y290357D01*
X836052Y289313D01*
X836190Y288269D01*
X836593Y287296D01*
X837234Y286460D01*
X838070Y285819D01*
X839043Y285416D01*
X840087Y285279D01*
X841131Y285416D01*
X842104Y285819D01*
X842940Y286460D01*
X843581Y287296D01*
X843984Y288269D01*
X844121Y289313D01*
X843984Y290357D01*
X843581Y291331D01*
X842940Y292166D01*
X842104Y292807D01*
X841131Y293210D01*
X840087Y293348D01*
D02*
G37*
G36*
X816035Y293539D02*
X815121Y293419D01*
X814270Y293066D01*
X813539Y292505D01*
X812978Y291774D01*
X812625Y290923D01*
X812505Y290009D01*
X812625Y289095D01*
X812978Y288244D01*
X813539Y287513D01*
X814270Y286952D01*
X815121Y286599D01*
X816035Y286479D01*
X816949Y286599D01*
X817800Y286952D01*
X818531Y287513D01*
X819092Y288244D01*
X819445Y289095D01*
X819565Y290009D01*
X819445Y290923D01*
X819092Y291774D01*
X818531Y292505D01*
X817800Y293066D01*
X816949Y293419D01*
X816035Y293539D01*
D02*
G37*
G36*
X1169058Y294113D02*
X1168042Y293887D01*
X1167119Y293407D01*
X1166352Y292704D01*
X1165792Y291826D01*
X1165479Y290833D01*
X1165434Y289794D01*
X1165659Y288777D01*
X1166140Y287854D01*
X1166843Y287087D01*
X1167721Y286528D01*
X1168713Y286215D01*
X1169753Y286169D01*
X1170769Y286395D01*
X1171692Y286875D01*
X1172460Y287578D01*
X1173019Y288456D01*
X1173332Y289449D01*
X1173377Y290489D01*
X1173152Y291505D01*
X1172672Y292428D01*
X1171968Y293195D01*
X1171091Y293754D01*
X1170098Y294067D01*
X1169058Y294113D01*
D02*
G37*
G36*
X1176719Y287685D02*
X1175702Y287460D01*
X1174779Y286979D01*
X1174012Y286276D01*
X1173453Y285398D01*
X1173140Y284405D01*
X1173094Y283366D01*
X1173320Y282350D01*
X1173800Y281426D01*
X1174503Y280659D01*
X1175381Y280100D01*
X1176374Y279787D01*
X1177413Y279742D01*
X1178430Y279967D01*
X1179353Y280447D01*
X1180120Y281151D01*
X1180679Y282028D01*
X1180992Y283021D01*
X1181038Y284061D01*
X1180812Y285077D01*
X1180332Y286000D01*
X1179629Y286767D01*
X1178751Y287327D01*
X1177758Y287639D01*
X1176719Y287685D01*
D02*
G37*
G36*
X804888Y283761D02*
X804634Y283430D01*
X804281Y282579D01*
X804161Y281665D01*
X804281Y280751D01*
X804634Y279900D01*
X804888Y279569D01*
X806984Y281665D01*
X804888Y283761D01*
D02*
G37*
G36*
X796614Y290306D02*
X795829Y290203D01*
X795097Y289900D01*
X794469Y289418D01*
X793987Y288789D01*
X793684Y288057D01*
X793580Y287272D01*
X793684Y286487D01*
X793987Y285755D01*
X794469Y285127D01*
X795097Y284645D01*
X795829Y284342D01*
X796614Y284239D01*
X797399Y284342D01*
X798131Y284645D01*
X798759Y285127D01*
X799241Y285755D01*
X799544Y286487D01*
X799648Y287272D01*
X799544Y288057D01*
X799241Y288789D01*
X798759Y289418D01*
X798131Y289900D01*
X797399Y290203D01*
X796614Y290306D01*
D02*
G37*
G36*
X807691Y285195D02*
X806777Y285075D01*
X805926Y284722D01*
X805595Y284468D01*
X807691Y282372D01*
X809787Y284468D01*
X809456Y284722D01*
X808605Y285075D01*
X807691Y285195D01*
D02*
G37*
G36*
X1200127Y327691D02*
X1196786Y320526D01*
X1203951Y317185D01*
X1207292Y324350D01*
X1200127Y327691D01*
D02*
G37*
G36*
X905848Y323626D02*
X904671Y323511D01*
X903541Y323168D01*
X902498Y322610D01*
X901585Y321861D01*
X900835Y320947D01*
X900278Y319905D01*
X899934Y318774D01*
X899819Y317598D01*
X899934Y316421D01*
X900278Y315290D01*
X900835Y314248D01*
X901585Y313334D01*
X902498Y312584D01*
X903541Y312027D01*
X904671Y311684D01*
X905848Y311568D01*
X907024Y311684D01*
X908155Y312027D01*
X909197Y312584D01*
X910111Y313334D01*
X910861Y314248D01*
X911418Y315290D01*
X911761Y316421D01*
X911877Y317598D01*
X911761Y318774D01*
X911418Y319905D01*
X910861Y320947D01*
X910111Y321861D01*
X909197Y322610D01*
X908155Y323168D01*
X907024Y323511D01*
X905848Y323626D01*
D02*
G37*
G36*
X1092997Y323854D02*
X1092226Y323683D01*
X1091525Y323318D01*
X1090943Y322784D01*
X1090518Y322118D01*
X1090281Y321365D01*
X1090246Y320576D01*
X1090417Y319804D01*
X1090782Y319104D01*
X1091316Y318521D01*
X1091982Y318097D01*
X1092735Y317859D01*
X1093525Y317825D01*
X1094296Y317996D01*
X1094996Y318361D01*
X1095579Y318894D01*
X1096003Y319561D01*
X1096241Y320314D01*
X1096275Y321103D01*
X1096104Y321874D01*
X1095739Y322575D01*
X1095206Y323157D01*
X1094540Y323582D01*
X1093786Y323819D01*
X1092997Y323854D01*
D02*
G37*
G36*
X1103655Y323389D02*
X1102884Y323218D01*
X1102183Y322853D01*
X1101601Y322320D01*
X1101177Y321653D01*
X1100939Y320900D01*
X1100905Y320111D01*
X1101076Y319340D01*
X1101440Y318639D01*
X1101974Y318057D01*
X1102640Y317632D01*
X1103393Y317395D01*
X1104183Y317360D01*
X1104954Y317531D01*
X1105655Y317896D01*
X1106237Y318429D01*
X1106661Y319096D01*
X1106899Y319849D01*
X1106933Y320638D01*
X1106762Y321409D01*
X1106398Y322110D01*
X1105864Y322692D01*
X1105198Y323117D01*
X1104444Y323354D01*
X1103655Y323389D01*
D02*
G37*
G36*
X1059289Y297117D02*
X1058518Y296946D01*
X1057817Y296581D01*
X1057235Y296048D01*
X1056811Y295381D01*
X1056573Y294628D01*
X1056539Y293839D01*
X1056710Y293068D01*
X1057074Y292367D01*
X1057608Y291785D01*
X1058274Y291360D01*
X1059027Y291123D01*
X1059817Y291088D01*
X1060588Y291259D01*
X1061289Y291624D01*
X1061871Y292158D01*
X1062295Y292824D01*
X1062533Y293577D01*
X1062567Y294366D01*
X1062396Y295138D01*
X1062032Y295838D01*
X1061498Y296421D01*
X1060832Y296845D01*
X1060078Y297083D01*
X1059289Y297117D01*
D02*
G37*
G36*
X1069464Y293910D02*
X1068693Y293739D01*
X1067992Y293374D01*
X1067410Y292840D01*
X1066985Y292174D01*
X1066748Y291421D01*
X1066713Y290632D01*
X1066884Y289860D01*
X1067249Y289160D01*
X1067783Y288577D01*
X1068449Y288153D01*
X1069202Y287915D01*
X1069991Y287881D01*
X1070763Y288052D01*
X1071463Y288417D01*
X1072046Y288950D01*
X1072470Y289616D01*
X1072708Y290370D01*
X1072742Y291159D01*
X1072571Y291930D01*
X1072206Y292631D01*
X1071673Y293213D01*
X1071006Y293638D01*
X1070253Y293875D01*
X1069464Y293910D01*
D02*
G37*
G36*
X823823Y316555D02*
X822647Y316440D01*
X821516Y316096D01*
X820474Y315539D01*
X819560Y314790D01*
X818810Y313876D01*
X818253Y312834D01*
X817910Y311703D01*
X817794Y310526D01*
X817910Y309350D01*
X818253Y308219D01*
X818810Y307177D01*
X819560Y306263D01*
X820474Y305514D01*
X821516Y304956D01*
X822647Y304613D01*
X823823Y304497D01*
X825000Y304613D01*
X826131Y304956D01*
X827173Y305514D01*
X828086Y306263D01*
X828836Y307177D01*
X829393Y308219D01*
X829737Y309350D01*
X829852Y310526D01*
X829737Y311703D01*
X829393Y312834D01*
X828836Y313876D01*
X828086Y314790D01*
X827173Y315539D01*
X826131Y316096D01*
X825000Y316440D01*
X823823Y316555D01*
D02*
G37*
G36*
X1059755Y307775D02*
X1058984Y307604D01*
X1058283Y307239D01*
X1057701Y306706D01*
X1057277Y306040D01*
X1057039Y305286D01*
X1057005Y304497D01*
X1057176Y303726D01*
X1057540Y303025D01*
X1058074Y302443D01*
X1058740Y302018D01*
X1059493Y301781D01*
X1060283Y301746D01*
X1061054Y301917D01*
X1061754Y302282D01*
X1062337Y302816D01*
X1062761Y303482D01*
X1062999Y304235D01*
X1063033Y305024D01*
X1062862Y305796D01*
X1062498Y306496D01*
X1061964Y307079D01*
X1061298Y307503D01*
X1060544Y307741D01*
X1059755Y307775D01*
D02*
G37*
G36*
X758434Y368179D02*
X757382Y368133D01*
X756377Y367816D01*
X755489Y367250D01*
X754777Y366474D01*
X754291Y365540D01*
X754063Y364511D01*
X754109Y363459D01*
X754426Y362455D01*
X754992Y361566D01*
X755768Y360855D01*
X756703Y360368D01*
X757731Y360140D01*
X758783Y360186D01*
X759788Y360503D01*
X760676Y361069D01*
X761387Y361845D01*
X761874Y362780D01*
X762102Y363808D01*
X762056Y364860D01*
X761739Y365865D01*
X761173Y366753D01*
X760396Y367464D01*
X759462Y367951D01*
X758434Y368179D01*
D02*
G37*
G36*
X753225Y397723D02*
X752676Y397699D01*
X753278Y394283D01*
X756695Y394885D01*
X756530Y395409D01*
X755964Y396297D01*
X755187Y397009D01*
X754253Y397495D01*
X753225Y397723D01*
D02*
G37*
G36*
X1145224Y401149D02*
X1144452Y400978D01*
X1143752Y400613D01*
X1143169Y400079D01*
X1142745Y399413D01*
X1142507Y398660D01*
X1142473Y397871D01*
X1142644Y397099D01*
X1143009Y396399D01*
X1143542Y395816D01*
X1144208Y395392D01*
X1144962Y395155D01*
X1145751Y395120D01*
X1146522Y395291D01*
X1147223Y395656D01*
X1147805Y396189D01*
X1148230Y396856D01*
X1148467Y397609D01*
X1148502Y398398D01*
X1148331Y399169D01*
X1147966Y399870D01*
X1147432Y400452D01*
X1146766Y400877D01*
X1146013Y401114D01*
X1145224Y401149D01*
D02*
G37*
G36*
X761540Y399262D02*
X761016Y399097D01*
X760128Y398531D01*
X759416Y397754D01*
X758930Y396820D01*
X758702Y395792D01*
X758726Y395244D01*
X762142Y395846D01*
X761540Y399262D01*
D02*
G37*
G36*
X1225081Y397082D02*
X1224065Y396857D01*
X1223142Y396376D01*
X1222375Y395673D01*
X1221815Y394795D01*
X1221654Y394284D01*
X1225023Y393689D01*
X1225617Y397059D01*
X1225081Y397082D01*
D02*
G37*
G36*
X766716Y395637D02*
X763300Y395035D01*
X763903Y391619D01*
X764426Y391784D01*
X765314Y392350D01*
X766026Y393126D01*
X766512Y394060D01*
X766740Y395089D01*
X766716Y395637D01*
D02*
G37*
G36*
X1226602Y396885D02*
X1226008Y393516D01*
X1229377Y392922D01*
X1229400Y393458D01*
X1229175Y394474D01*
X1228694Y395397D01*
X1227991Y396164D01*
X1227114Y396724D01*
X1226602Y396885D01*
D02*
G37*
G36*
X751691Y397525D02*
X751168Y397360D01*
X750280Y396795D01*
X749568Y396018D01*
X749082Y395084D01*
X748854Y394056D01*
X748878Y393507D01*
X752294Y394109D01*
X751691Y397525D01*
D02*
G37*
G36*
X763073Y399460D02*
X762524Y399436D01*
X763127Y396020D01*
X766543Y396622D01*
X766378Y397145D01*
X765812Y398034D01*
X765035Y398745D01*
X764101Y399232D01*
X763073Y399460D01*
D02*
G37*
G36*
X761336Y409308D02*
X760284Y409262D01*
X759279Y408945D01*
X758391Y408379D01*
X757680Y407603D01*
X757193Y406668D01*
X756965Y405640D01*
X757011Y404588D01*
X757328Y403583D01*
X757894Y402695D01*
X758670Y401983D01*
X759605Y401497D01*
X760633Y401269D01*
X761685Y401315D01*
X762690Y401632D01*
X763578Y402198D01*
X764290Y402974D01*
X764776Y403908D01*
X765004Y404937D01*
X764958Y405989D01*
X764641Y406993D01*
X764075Y407882D01*
X763299Y408593D01*
X762364Y409080D01*
X761336Y409308D01*
D02*
G37*
G36*
X1030400Y407400D02*
X1028575D01*
X1028660Y406972D01*
X1029186Y406186D01*
X1029972Y405660D01*
X1030400Y405575D01*
Y407400D01*
D02*
G37*
G36*
X1033225D02*
X1031400D01*
Y405575D01*
X1031828Y405660D01*
X1032614Y406186D01*
X1033140Y406972D01*
X1033225Y407400D01*
D02*
G37*
G36*
X1216969Y408667D02*
X1215953Y408441D01*
X1215030Y407961D01*
X1214263Y407258D01*
X1213704Y406380D01*
X1213391Y405387D01*
X1213345Y404347D01*
X1213571Y403331D01*
X1214051Y402408D01*
X1214754Y401641D01*
X1215632Y401082D01*
X1216625Y400769D01*
X1217665Y400723D01*
X1218681Y400948D01*
X1219604Y401429D01*
X1220371Y402132D01*
X1220930Y403010D01*
X1221243Y404003D01*
X1221289Y405042D01*
X1221063Y406058D01*
X1220583Y406982D01*
X1219880Y407749D01*
X1219002Y408308D01*
X1218009Y408621D01*
X1216969Y408667D01*
D02*
G37*
G36*
X1128554Y404088D02*
X1127783Y403917D01*
X1127082Y403552D01*
X1126500Y403019D01*
X1126075Y402353D01*
X1125838Y401599D01*
X1125803Y400810D01*
X1125974Y400039D01*
X1126339Y399338D01*
X1126873Y398756D01*
X1127539Y398331D01*
X1128292Y398094D01*
X1129081Y398059D01*
X1129852Y398230D01*
X1130553Y398595D01*
X1131136Y399129D01*
X1131560Y399795D01*
X1131798Y400548D01*
X1131832Y401337D01*
X1131661Y402109D01*
X1131296Y402809D01*
X1130763Y403392D01*
X1130096Y403816D01*
X1129343Y404054D01*
X1128554Y404088D01*
D02*
G37*
G36*
X1226818Y406930D02*
X1225801Y406705D01*
X1224878Y406224D01*
X1224111Y405521D01*
X1223552Y404643D01*
X1223239Y403651D01*
X1223193Y402611D01*
X1223419Y401595D01*
X1223899Y400671D01*
X1224602Y399904D01*
X1225480Y399345D01*
X1226473Y399032D01*
X1227513Y398987D01*
X1228529Y399212D01*
X1229452Y399693D01*
X1230219Y400396D01*
X1230778Y401273D01*
X1231091Y402266D01*
X1231137Y403306D01*
X1230912Y404322D01*
X1230431Y405245D01*
X1229728Y406012D01*
X1228850Y406572D01*
X1227857Y406885D01*
X1226818Y406930D01*
D02*
G37*
G36*
X751488Y407571D02*
X750436Y407525D01*
X749431Y407208D01*
X748543Y406642D01*
X747832Y405866D01*
X747345Y404932D01*
X747117Y403903D01*
X747163Y402851D01*
X747480Y401847D01*
X748046Y400959D01*
X748822Y400247D01*
X749757Y399761D01*
X750785Y399533D01*
X751837Y399579D01*
X752842Y399895D01*
X753730Y400461D01*
X754441Y401238D01*
X754928Y402172D01*
X755156Y403200D01*
X755110Y404252D01*
X754793Y405257D01*
X754227Y406145D01*
X753451Y406857D01*
X752516Y407343D01*
X751488Y407571D01*
D02*
G37*
G36*
X1220486Y387841D02*
X1219113Y380056D01*
X1226898Y378683D01*
X1228271Y386468D01*
X1220486Y387841D01*
D02*
G37*
G36*
X754961Y387875D02*
X753909Y387829D01*
X752904Y387512D01*
X752016Y386946D01*
X751305Y386170D01*
X750818Y385236D01*
X750590Y384207D01*
X750636Y383155D01*
X750953Y382151D01*
X751519Y381262D01*
X752295Y380551D01*
X753230Y380065D01*
X754258Y379837D01*
X755310Y379883D01*
X756315Y380199D01*
X757203Y380765D01*
X757914Y381542D01*
X758401Y382476D01*
X758629Y383504D01*
X758583Y384556D01*
X758266Y385561D01*
X757700Y386449D01*
X756924Y387161D01*
X755989Y387647D01*
X754961Y387875D01*
D02*
G37*
G36*
X1213497Y388970D02*
X1212481Y388745D01*
X1211557Y388264D01*
X1210790Y387561D01*
X1210231Y386684D01*
X1209918Y385691D01*
X1209872Y384651D01*
X1210098Y383635D01*
X1210578Y382712D01*
X1211281Y381944D01*
X1212159Y381385D01*
X1213152Y381072D01*
X1214192Y381027D01*
X1215208Y381252D01*
X1216131Y381733D01*
X1216898Y382436D01*
X1217457Y383314D01*
X1217770Y384306D01*
X1217816Y385346D01*
X1217591Y386362D01*
X1217110Y387285D01*
X1216407Y388053D01*
X1215529Y388612D01*
X1214536Y388925D01*
X1213497Y388970D01*
D02*
G37*
G36*
X766546Y379763D02*
X765493Y379717D01*
X764489Y379401D01*
X763601Y378835D01*
X762889Y378058D01*
X762403Y377124D01*
X762175Y376096D01*
X762221Y375044D01*
X762537Y374039D01*
X763103Y373151D01*
X763880Y372439D01*
X764814Y371953D01*
X765842Y371725D01*
X766895Y371771D01*
X767899Y372088D01*
X768787Y372654D01*
X769499Y373430D01*
X769985Y374364D01*
X770213Y375393D01*
X770167Y376445D01*
X769850Y377449D01*
X769285Y378338D01*
X768508Y379049D01*
X767574Y379535D01*
X766546Y379763D01*
D02*
G37*
G36*
X1114744Y367213D02*
X1113973Y367042D01*
X1113272Y366677D01*
X1112690Y366143D01*
X1112265Y365477D01*
X1112028Y364724D01*
X1111993Y363935D01*
X1112164Y363163D01*
X1112529Y362463D01*
X1113062Y361880D01*
X1113729Y361456D01*
X1114482Y361218D01*
X1115271Y361184D01*
X1116043Y361355D01*
X1116743Y361720D01*
X1117325Y362253D01*
X1117750Y362919D01*
X1117988Y363673D01*
X1118022Y364462D01*
X1117851Y365233D01*
X1117486Y365934D01*
X1116953Y366516D01*
X1116286Y366941D01*
X1115533Y367178D01*
X1114744Y367213D01*
D02*
G37*
G36*
X768282Y369915D02*
X767230Y369869D01*
X766225Y369553D01*
X765337Y368987D01*
X764626Y368210D01*
X764139Y367276D01*
X763911Y366248D01*
X763957Y365195D01*
X764274Y364191D01*
X764840Y363303D01*
X765616Y362591D01*
X766551Y362105D01*
X767579Y361877D01*
X768631Y361923D01*
X769635Y362240D01*
X770524Y362806D01*
X771235Y363582D01*
X771722Y364516D01*
X771950Y365545D01*
X771904Y366597D01*
X771587Y367601D01*
X771021Y368489D01*
X770245Y369201D01*
X769310Y369687D01*
X768282Y369915D01*
D02*
G37*
G36*
X756698Y378027D02*
X755645Y377981D01*
X754641Y377664D01*
X753753Y377098D01*
X753041Y376322D01*
X752555Y375388D01*
X752327Y374359D01*
X752373Y373307D01*
X752689Y372303D01*
X753255Y371414D01*
X754032Y370703D01*
X754966Y370216D01*
X755994Y369988D01*
X757047Y370035D01*
X758051Y370351D01*
X758939Y370917D01*
X759651Y371694D01*
X760137Y372628D01*
X760365Y373656D01*
X760319Y374708D01*
X760003Y375713D01*
X759437Y376601D01*
X758660Y377313D01*
X757726Y377799D01*
X756698Y378027D01*
D02*
G37*
G36*
X764809Y389611D02*
X763757Y389565D01*
X762752Y389249D01*
X761864Y388683D01*
X761153Y387906D01*
X760666Y386972D01*
X760438Y385944D01*
X760484Y384892D01*
X760801Y383887D01*
X761367Y382999D01*
X762143Y382287D01*
X763078Y381801D01*
X764106Y381573D01*
X765158Y381619D01*
X766163Y381936D01*
X767051Y382502D01*
X767762Y383278D01*
X768249Y384212D01*
X768477Y385241D01*
X768431Y386293D01*
X768114Y387297D01*
X767548Y388186D01*
X766772Y388897D01*
X765837Y389384D01*
X764809Y389611D01*
D02*
G37*
G36*
X1135761Y396222D02*
X1134990Y396051D01*
X1134289Y395687D01*
X1133707Y395153D01*
X1133282Y394487D01*
X1133045Y393733D01*
X1133010Y392944D01*
X1133181Y392173D01*
X1133546Y391472D01*
X1134080Y390890D01*
X1134746Y390465D01*
X1135499Y390228D01*
X1136288Y390194D01*
X1137059Y390364D01*
X1137760Y390729D01*
X1138343Y391263D01*
X1138767Y391929D01*
X1139005Y392682D01*
X1139039Y393472D01*
X1138868Y394243D01*
X1138503Y394943D01*
X1137970Y395526D01*
X1137303Y395950D01*
X1136550Y396188D01*
X1135761Y396222D01*
D02*
G37*
G36*
X1215233Y398818D02*
X1214217Y398593D01*
X1213294Y398113D01*
X1212526Y397409D01*
X1211967Y396532D01*
X1211654Y395539D01*
X1211609Y394499D01*
X1211834Y393483D01*
X1212315Y392560D01*
X1213018Y391793D01*
X1213896Y391233D01*
X1214888Y390920D01*
X1215928Y390875D01*
X1216944Y391100D01*
X1217867Y391581D01*
X1218635Y392284D01*
X1219194Y393162D01*
X1219507Y394154D01*
X1219552Y395194D01*
X1219327Y396210D01*
X1218846Y397133D01*
X1218143Y397901D01*
X1217266Y398460D01*
X1216273Y398773D01*
X1215233Y398818D01*
D02*
G37*
G36*
X762315Y394861D02*
X758899Y394259D01*
X759064Y393735D01*
X759630Y392847D01*
X760407Y392135D01*
X761341Y391649D01*
X762369Y391421D01*
X762918Y391445D01*
X762315Y394861D01*
D02*
G37*
G36*
X756868Y393901D02*
X753452Y393298D01*
X754054Y389882D01*
X754578Y390047D01*
X755466Y390613D01*
X756178Y391390D01*
X756664Y392324D01*
X756892Y393352D01*
X756868Y393901D01*
D02*
G37*
G36*
X1225834Y392531D02*
X1225240Y389162D01*
X1225776Y389139D01*
X1226792Y389364D01*
X1227715Y389844D01*
X1228483Y390547D01*
X1229042Y391425D01*
X1229203Y391937D01*
X1225834Y392531D01*
D02*
G37*
G36*
X1221480Y393299D02*
X1221457Y392763D01*
X1221682Y391747D01*
X1222163Y390824D01*
X1222866Y390056D01*
X1223744Y389497D01*
X1224255Y389336D01*
X1224849Y392705D01*
X1221480Y393299D01*
D02*
G37*
G36*
X752467Y393125D02*
X749051Y392522D01*
X749216Y391999D01*
X749782Y391110D01*
X750559Y390399D01*
X751493Y389913D01*
X752521Y389685D01*
X753070Y389709D01*
X752467Y393125D01*
D02*
G37*
G36*
X810494Y283761D02*
X808398Y281665D01*
X810494Y279569D01*
X810748Y279900D01*
X811101Y280751D01*
X811221Y281665D01*
X811101Y282579D01*
X810748Y283430D01*
X810494Y283761D01*
D02*
G37*
G36*
X926721Y212528D02*
X925823Y209177D01*
X929173Y208280D01*
X929245Y208824D01*
X929107Y209868D01*
X928704Y210841D01*
X928063Y211677D01*
X927228Y212318D01*
X926721Y212528D01*
D02*
G37*
G36*
X925210Y212858D02*
X924166Y212721D01*
X923193Y212318D01*
X922358Y211677D01*
X921716Y210841D01*
X921506Y210334D01*
X924857Y209436D01*
X925755Y212787D01*
X925210Y212858D01*
D02*
G37*
G36*
X1115481Y230585D02*
X1109006Y226050D01*
X1113540Y219575D01*
X1120016Y224109D01*
X1115481Y230585D01*
D02*
G37*
G36*
X915551Y215446D02*
X914507Y215309D01*
X913534Y214906D01*
X912698Y214265D01*
X912057Y213429D01*
X911654Y212456D01*
X911517Y211412D01*
X911654Y210368D01*
X912057Y209395D01*
X912698Y208559D01*
X913534Y207918D01*
X914507Y207515D01*
X915551Y207378D01*
X916595Y207515D01*
X917568Y207918D01*
X918404Y208559D01*
X919045Y209395D01*
X919448Y210368D01*
X919586Y211412D01*
X919448Y212456D01*
X919045Y213429D01*
X918404Y214265D01*
X917568Y214906D01*
X916595Y215309D01*
X915551Y215446D01*
D02*
G37*
G36*
X888920Y221877D02*
X886979Y221814D01*
X885088Y221373D01*
X883319Y220571D01*
X881741Y219440D01*
X880413Y218023D01*
X879388Y216374D01*
X878704Y214556D01*
X878387Y212640D01*
X878451Y210699D01*
X878892Y208808D01*
X879693Y207039D01*
X880824Y205461D01*
X882242Y204134D01*
X883891Y203108D01*
X885708Y202424D01*
X887624Y202108D01*
X889565Y202171D01*
X891456Y202612D01*
X893225Y203414D01*
X894804Y204545D01*
X896131Y205962D01*
X897157Y207611D01*
X897841Y209429D01*
X898157Y211345D01*
X898093Y213285D01*
X897652Y215177D01*
X896851Y216945D01*
X895720Y218524D01*
X894302Y219851D01*
X892653Y220877D01*
X890836Y221561D01*
X888920Y221877D01*
D02*
G37*
G36*
X925564Y208211D02*
X924666Y204861D01*
X925210Y204789D01*
X926255Y204927D01*
X927228Y205330D01*
X928063Y205971D01*
X928704Y206807D01*
X928915Y207314D01*
X925564Y208211D01*
D02*
G37*
G36*
X921247Y209368D02*
X921176Y208824D01*
X921313Y207780D01*
X921716Y206807D01*
X922358Y205971D01*
X923193Y205330D01*
X923700Y205120D01*
X924598Y208470D01*
X921247Y209368D01*
D02*
G37*
G36*
X1122579Y230119D02*
X1119777Y228157D01*
X1120139Y227761D01*
X1121017Y227202D01*
X1122010Y226889D01*
X1123050Y226844D01*
X1124066Y227069D01*
X1124542Y227317D01*
X1122579Y230119D01*
D02*
G37*
G36*
X1130546Y240523D02*
X1129530Y240298D01*
X1128607Y239817D01*
X1127839Y239114D01*
X1127280Y238236D01*
X1126967Y237244D01*
X1126922Y236204D01*
X1127147Y235188D01*
X1127628Y234264D01*
X1128331Y233497D01*
X1129209Y232938D01*
X1130201Y232625D01*
X1131241Y232579D01*
X1132257Y232805D01*
X1133180Y233285D01*
X1133948Y233988D01*
X1134507Y234866D01*
X1134820Y235859D01*
X1134865Y236899D01*
X1134640Y237915D01*
X1134159Y238838D01*
X1133456Y239605D01*
X1132578Y240164D01*
X1131586Y240477D01*
X1130546Y240523D01*
D02*
G37*
G36*
X1116619Y242979D02*
X1115603Y242753D01*
X1114680Y242273D01*
X1113912Y241570D01*
X1113353Y240692D01*
X1113040Y239699D01*
X1112995Y238660D01*
X1113220Y237643D01*
X1113700Y236720D01*
X1114404Y235953D01*
X1115281Y235394D01*
X1116274Y235081D01*
X1117314Y235035D01*
X1118330Y235261D01*
X1119253Y235741D01*
X1120020Y236444D01*
X1120580Y237322D01*
X1120893Y238315D01*
X1120938Y239354D01*
X1120713Y240370D01*
X1120232Y241294D01*
X1119529Y242061D01*
X1118651Y242620D01*
X1117659Y242933D01*
X1116619Y242979D01*
D02*
G37*
G36*
X1124810Y248714D02*
X1123794Y248489D01*
X1122871Y248008D01*
X1122104Y247305D01*
X1121544Y246428D01*
X1121232Y245435D01*
X1121186Y244395D01*
X1121411Y243379D01*
X1121892Y242456D01*
X1122595Y241688D01*
X1123473Y241129D01*
X1124466Y240816D01*
X1125505Y240771D01*
X1126521Y240996D01*
X1127445Y241477D01*
X1128212Y242180D01*
X1128771Y243058D01*
X1129084Y244050D01*
X1129130Y245090D01*
X1128904Y246106D01*
X1128424Y247029D01*
X1127721Y247797D01*
X1126843Y248356D01*
X1125850Y248669D01*
X1124810Y248714D01*
D02*
G37*
G36*
X1122355Y234787D02*
X1121338Y234562D01*
X1120863Y234314D01*
X1122825Y231512D01*
X1125627Y233474D01*
X1125265Y233870D01*
X1124387Y234429D01*
X1123394Y234742D01*
X1122355Y234787D01*
D02*
G37*
G36*
X1126201Y232655D02*
X1123398Y230693D01*
X1125361Y227890D01*
X1125756Y228253D01*
X1126315Y229131D01*
X1126628Y230123D01*
X1126674Y231163D01*
X1126449Y232179D01*
X1126201Y232655D01*
D02*
G37*
G36*
X1120043Y233741D02*
X1119648Y233378D01*
X1119089Y232500D01*
X1118776Y231508D01*
X1118730Y230468D01*
X1118956Y229452D01*
X1119203Y228976D01*
X1122006Y230938D01*
X1120043Y233741D01*
D02*
G37*
G36*
X1108427Y237243D02*
X1107411Y237018D01*
X1106488Y236537D01*
X1105721Y235834D01*
X1105161Y234956D01*
X1104848Y233963D01*
X1104803Y232924D01*
X1105028Y231908D01*
X1105509Y230984D01*
X1106212Y230217D01*
X1107090Y229658D01*
X1108082Y229345D01*
X1109122Y229299D01*
X1110138Y229525D01*
X1111062Y230005D01*
X1111829Y230709D01*
X1112388Y231586D01*
X1112701Y232579D01*
X1112747Y233619D01*
X1112521Y234635D01*
X1112041Y235558D01*
X1111337Y236325D01*
X1110460Y236884D01*
X1109467Y237197D01*
X1108427Y237243D01*
D02*
G37*
G36*
X951600Y195434D02*
X950556Y195297D01*
X949583Y194894D01*
X948747Y194253D01*
X948106Y193417D01*
X947896Y192910D01*
X951246Y192012D01*
X952144Y195363D01*
X951600Y195434D01*
D02*
G37*
G36*
X922976Y198552D02*
X922078Y195202D01*
X922622Y195130D01*
X923666Y195267D01*
X924640Y195671D01*
X925475Y196312D01*
X926116Y197147D01*
X926326Y197654D01*
X922976Y198552D01*
D02*
G37*
G36*
X918659Y199709D02*
X918588Y199165D01*
X918725Y198120D01*
X919128Y197147D01*
X919769Y196312D01*
X920605Y195671D01*
X921112Y195460D01*
X922010Y198811D01*
X918659Y199709D01*
D02*
G37*
G36*
X953110Y195104D02*
X952212Y191753D01*
X955563Y190856D01*
X955634Y191400D01*
X955497Y192444D01*
X955094Y193417D01*
X954453Y194253D01*
X953617Y194894D01*
X953110Y195104D01*
D02*
G37*
G36*
X951954Y190788D02*
X951056Y187437D01*
X951600Y187365D01*
X952644Y187503D01*
X953617Y187906D01*
X954453Y188547D01*
X955094Y189383D01*
X955304Y189890D01*
X951954Y190788D01*
D02*
G37*
G36*
X947637Y191944D02*
X947565Y191400D01*
X947703Y190356D01*
X948106Y189383D01*
X948747Y188547D01*
X949583Y187906D01*
X950090Y187696D01*
X950988Y191046D01*
X947637Y191944D01*
D02*
G37*
G36*
X941941Y198023D02*
X940897Y197885D01*
X939923Y197482D01*
X939088Y196841D01*
X938447Y196005D01*
X938044Y195032D01*
X937906Y193988D01*
X938044Y192944D01*
X938447Y191971D01*
X939088Y191135D01*
X939923Y190494D01*
X940897Y190091D01*
X941941Y189954D01*
X942985Y190091D01*
X943958Y190494D01*
X944794Y191135D01*
X945435Y191971D01*
X945838Y192944D01*
X945975Y193988D01*
X945838Y195032D01*
X945435Y196005D01*
X944794Y196841D01*
X943958Y197482D01*
X942985Y197885D01*
X941941Y198023D01*
D02*
G37*
G36*
X954542Y200447D02*
X953644Y197096D01*
X954188Y197025D01*
X955232Y197162D01*
X956205Y197565D01*
X957041Y198206D01*
X957682Y199042D01*
X957892Y199549D01*
X954542Y200447D01*
D02*
G37*
G36*
X922622Y203199D02*
X921578Y203062D01*
X920605Y202659D01*
X919769Y202017D01*
X919128Y201182D01*
X918918Y200675D01*
X922269Y199777D01*
X923166Y203127D01*
X922622Y203199D01*
D02*
G37*
G36*
X955698Y204763D02*
X954801Y201413D01*
X958151Y200515D01*
X958223Y201059D01*
X958085Y202103D01*
X957682Y203077D01*
X957041Y203912D01*
X956205Y204553D01*
X955698Y204763D01*
D02*
G37*
G36*
X954188Y205094D02*
X953144Y204956D01*
X952171Y204553D01*
X951335Y203912D01*
X950694Y203077D01*
X950484Y202569D01*
X953835Y201672D01*
X954732Y205022D01*
X954188Y205094D01*
D02*
G37*
G36*
X944529Y207682D02*
X943485Y207544D01*
X942512Y207141D01*
X941676Y206500D01*
X941035Y205665D01*
X940632Y204692D01*
X940494Y203647D01*
X940632Y202603D01*
X941035Y201630D01*
X941676Y200795D01*
X942512Y200153D01*
X943485Y199750D01*
X944529Y199613D01*
X945573Y199750D01*
X946546Y200153D01*
X947382Y200795D01*
X948023Y201630D01*
X948426Y202603D01*
X948563Y203647D01*
X948426Y204692D01*
X948023Y205665D01*
X947382Y206500D01*
X946546Y207141D01*
X945573Y207544D01*
X944529Y207682D01*
D02*
G37*
G36*
X950225Y201604D02*
X950154Y201059D01*
X950291Y200015D01*
X950694Y199042D01*
X951335Y198206D01*
X952171Y197565D01*
X952678Y197355D01*
X953576Y200706D01*
X950225Y201604D01*
D02*
G37*
G36*
X912963Y205787D02*
X911919Y205650D01*
X910946Y205247D01*
X910110Y204606D01*
X909469Y203770D01*
X909066Y202797D01*
X908928Y201753D01*
X909066Y200709D01*
X909469Y199735D01*
X910110Y198900D01*
X910946Y198259D01*
X911919Y197856D01*
X912963Y197718D01*
X914007Y197856D01*
X914980Y198259D01*
X915816Y198900D01*
X916457Y199735D01*
X916860Y200709D01*
X916998Y201753D01*
X916860Y202797D01*
X916457Y203770D01*
X915816Y204606D01*
X914980Y205247D01*
X914007Y205650D01*
X912963Y205787D01*
D02*
G37*
G36*
X924132Y202869D02*
X923235Y199518D01*
X926585Y198620D01*
X926657Y199165D01*
X926519Y200209D01*
X926116Y201182D01*
X925475Y202017D01*
X924640Y202659D01*
X924132Y202869D01*
D02*
G37*
G36*
X818852Y275403D02*
X816756Y273307D01*
X818852Y271211D01*
X819106Y271542D01*
X819459Y272393D01*
X819579Y273307D01*
X819459Y274221D01*
X819106Y275072D01*
X818852Y275403D01*
D02*
G37*
G36*
X813246D02*
X812992Y275072D01*
X812639Y274221D01*
X812519Y273307D01*
X812639Y272393D01*
X812992Y271542D01*
X813246Y271211D01*
X815342Y273307D01*
X813246Y275403D01*
D02*
G37*
G36*
X1170700Y275348D02*
X1168501Y272728D01*
X1168953Y272439D01*
X1169946Y272126D01*
X1170986Y272081D01*
X1172002Y272306D01*
X1172925Y272787D01*
X1173320Y273149D01*
X1170700Y275348D01*
D02*
G37*
G36*
X854229Y279206D02*
X853185Y279068D01*
X852212Y278665D01*
X851376Y278024D01*
X850735Y277188D01*
X850332Y276215D01*
X850194Y275171D01*
X850332Y274127D01*
X850735Y273154D01*
X851376Y272318D01*
X852212Y271677D01*
X853185Y271274D01*
X854229Y271136D01*
X855273Y271274D01*
X856246Y271677D01*
X857082Y272318D01*
X857723Y273154D01*
X858126Y274127D01*
X858263Y275171D01*
X858126Y276215D01*
X857723Y277188D01*
X857082Y278024D01*
X856246Y278665D01*
X855273Y279068D01*
X854229Y279206D01*
D02*
G37*
G36*
X832757Y276817D02*
X831844Y276696D01*
X830992Y276344D01*
X830261Y275783D01*
X829700Y275052D01*
X829347Y274200D01*
X829227Y273287D01*
X829347Y272373D01*
X829700Y271521D01*
X830261Y270790D01*
X830992Y270229D01*
X831844Y269877D01*
X832757Y269756D01*
X833671Y269877D01*
X834522Y270229D01*
X835254Y270790D01*
X835814Y271521D01*
X836167Y272373D01*
X836287Y273287D01*
X836167Y274200D01*
X835814Y275052D01*
X835254Y275783D01*
X834522Y276344D01*
X833671Y276696D01*
X832757Y276817D01*
D02*
G37*
G36*
X816049Y272600D02*
X813953Y270504D01*
X814284Y270250D01*
X815135Y269897D01*
X816049Y269777D01*
X816963Y269897D01*
X817814Y270250D01*
X818145Y270504D01*
X816049Y272600D01*
D02*
G37*
G36*
X1156202Y278792D02*
X1155186Y278567D01*
X1154263Y278086D01*
X1153496Y277383D01*
X1152936Y276505D01*
X1152624Y275512D01*
X1152578Y274473D01*
X1152803Y273457D01*
X1153284Y272533D01*
X1153987Y271766D01*
X1154865Y271207D01*
X1155857Y270894D01*
X1156897Y270848D01*
X1157913Y271074D01*
X1158837Y271554D01*
X1159604Y272257D01*
X1160163Y273135D01*
X1160476Y274128D01*
X1160522Y275168D01*
X1160296Y276184D01*
X1159816Y277107D01*
X1159113Y277874D01*
X1158235Y278433D01*
X1157242Y278746D01*
X1156202Y278792D01*
D02*
G37*
G36*
X1167313Y278190D02*
X1167025Y277738D01*
X1166712Y276745D01*
X1166667Y275705D01*
X1166892Y274689D01*
X1167372Y273766D01*
X1167735Y273370D01*
X1169934Y275991D01*
X1167313Y278190D01*
D02*
G37*
G36*
X807691Y280958D02*
X805595Y278862D01*
X805926Y278608D01*
X806777Y278255D01*
X807691Y278135D01*
X808605Y278255D01*
X809456Y278608D01*
X809787Y278862D01*
X807691Y280958D01*
D02*
G37*
G36*
X847158Y286277D02*
X846114Y286139D01*
X845141Y285736D01*
X844305Y285095D01*
X843664Y284259D01*
X843261Y283286D01*
X843123Y282242D01*
X843261Y281198D01*
X843664Y280225D01*
X844305Y279389D01*
X845141Y278748D01*
X846114Y278345D01*
X847158Y278208D01*
X848202Y278345D01*
X849175Y278748D01*
X850011Y279389D01*
X850652Y280225D01*
X851055Y281198D01*
X851192Y282242D01*
X851055Y283286D01*
X850652Y284259D01*
X850011Y285095D01*
X849175Y285736D01*
X848202Y286139D01*
X847158Y286277D01*
D02*
G37*
G36*
X1162630Y286452D02*
X1161614Y286227D01*
X1160691Y285747D01*
X1159924Y285043D01*
X1159365Y284166D01*
X1159052Y283173D01*
X1159006Y282133D01*
X1159231Y281117D01*
X1159712Y280194D01*
X1160415Y279427D01*
X1161293Y278867D01*
X1162286Y278554D01*
X1163325Y278509D01*
X1164341Y278734D01*
X1165265Y279215D01*
X1166032Y279918D01*
X1166591Y280796D01*
X1166904Y281788D01*
X1166949Y282828D01*
X1166724Y283844D01*
X1166244Y284767D01*
X1165541Y285535D01*
X1164663Y286094D01*
X1163670Y286407D01*
X1162630Y286452D01*
D02*
G37*
G36*
X824406Y285168D02*
X823492Y285048D01*
X822641Y284696D01*
X821909Y284135D01*
X821348Y283403D01*
X820996Y282552D01*
X820875Y281638D01*
X820996Y280725D01*
X821348Y279873D01*
X821909Y279142D01*
X822641Y278581D01*
X823492Y278228D01*
X824406Y278108D01*
X825319Y278228D01*
X826171Y278581D01*
X826902Y279142D01*
X827463Y279873D01*
X827816Y280725D01*
X827936Y281638D01*
X827816Y282552D01*
X827463Y283403D01*
X826902Y284135D01*
X826171Y284696D01*
X825319Y285048D01*
X824406Y285168D01*
D02*
G37*
G36*
X1173542Y278735D02*
X1171343Y276114D01*
X1173963Y273915D01*
X1174251Y274368D01*
X1174564Y275360D01*
X1174610Y276400D01*
X1174385Y277416D01*
X1173904Y278340D01*
X1173542Y278735D01*
D02*
G37*
G36*
X816049Y276837D02*
X815135Y276717D01*
X814284Y276364D01*
X813953Y276110D01*
X816049Y274014D01*
X818145Y276110D01*
X817814Y276364D01*
X816963Y276717D01*
X816049Y276837D01*
D02*
G37*
G36*
X1170291Y280024D02*
X1169275Y279799D01*
X1168351Y279319D01*
X1167956Y278956D01*
X1170577Y276757D01*
X1172776Y279378D01*
X1172323Y279666D01*
X1171331Y279979D01*
X1170291Y280024D01*
D02*
G37*
G36*
X835568Y258687D02*
X833472Y256591D01*
X835568Y254495D01*
X835822Y254826D01*
X836175Y255677D01*
X836295Y256591D01*
X836175Y257505D01*
X835822Y258356D01*
X835568Y258687D01*
D02*
G37*
G36*
X832765Y260121D02*
X831851Y260001D01*
X831000Y259648D01*
X830669Y259394D01*
X832765Y257298D01*
X834861Y259394D01*
X834530Y259648D01*
X833679Y260001D01*
X832765Y260121D01*
D02*
G37*
G36*
X990573Y280567D02*
X988632Y280503D01*
X986741Y280062D01*
X984972Y279261D01*
X983394Y278130D01*
X982066Y276712D01*
X981041Y275063D01*
X980357Y273246D01*
X980040Y271330D01*
X980104Y269389D01*
X980545Y267498D01*
X981346Y265729D01*
X982477Y264150D01*
X983895Y262823D01*
X985544Y261797D01*
X987361Y261113D01*
X989277Y260797D01*
X991218Y260861D01*
X993109Y261302D01*
X994878Y262103D01*
X996457Y263234D01*
X997784Y264651D01*
X998810Y266301D01*
X999494Y268118D01*
X999810Y270034D01*
X999746Y271975D01*
X999306Y273866D01*
X998504Y275635D01*
X997373Y277213D01*
X995956Y278541D01*
X994306Y279566D01*
X992489Y280250D01*
X990573Y280567D01*
D02*
G37*
G36*
X829962Y258687D02*
X829708Y258356D01*
X829355Y257505D01*
X829235Y256591D01*
X829355Y255677D01*
X829708Y254826D01*
X829962Y254495D01*
X832058Y256591D01*
X829962Y258687D01*
D02*
G37*
G36*
X838371Y248547D02*
X837586Y248443D01*
X836854Y248140D01*
X836226Y247658D01*
X835744Y247030D01*
X835441Y246298D01*
X835337Y245513D01*
X835441Y244728D01*
X835744Y243996D01*
X836226Y243368D01*
X836854Y242886D01*
X837586Y242583D01*
X838371Y242479D01*
X839156Y242583D01*
X839888Y242886D01*
X840516Y243368D01*
X840999Y243996D01*
X841302Y244728D01*
X841405Y245513D01*
X841302Y246298D01*
X840999Y247030D01*
X840516Y247658D01*
X839888Y248140D01*
X839156Y248443D01*
X838371Y248547D01*
D02*
G37*
G36*
X842913Y260935D02*
X841714Y260817D01*
X840560Y260467D01*
X839497Y259899D01*
X838566Y259134D01*
X837801Y258203D01*
X837233Y257140D01*
X836883Y255986D01*
X836765Y254787D01*
X836883Y253588D01*
X837233Y252434D01*
X837801Y251372D01*
X838566Y250440D01*
X839497Y249675D01*
X840560Y249107D01*
X841714Y248758D01*
X842913Y248639D01*
X844112Y248758D01*
X845265Y249107D01*
X846328Y249675D01*
X847260Y250440D01*
X848024Y251372D01*
X848593Y252434D01*
X848942Y253588D01*
X849061Y254787D01*
X848942Y255986D01*
X848593Y257140D01*
X848024Y258203D01*
X847260Y259134D01*
X846328Y259899D01*
X845265Y260467D01*
X844112Y260817D01*
X842913Y260935D01*
D02*
G37*
G36*
X832765Y255884D02*
X830669Y253788D01*
X831000Y253534D01*
X831851Y253181D01*
X832765Y253061D01*
X833679Y253181D01*
X834530Y253534D01*
X834861Y253788D01*
X832765Y255884D01*
D02*
G37*
G36*
X841109Y268465D02*
X840195Y268345D01*
X839344Y267992D01*
X838613Y267431D01*
X838052Y266700D01*
X837699Y265849D01*
X837579Y264935D01*
X837699Y264021D01*
X838052Y263170D01*
X838613Y262439D01*
X839344Y261878D01*
X840195Y261525D01*
X841109Y261405D01*
X842023Y261525D01*
X842874Y261878D01*
X843605Y262439D01*
X844166Y263170D01*
X844519Y264021D01*
X844639Y264935D01*
X844519Y265849D01*
X844166Y266700D01*
X843605Y267431D01*
X842874Y267992D01*
X842023Y268345D01*
X841109Y268465D01*
D02*
G37*
G36*
X861300Y272134D02*
X860256Y271997D01*
X859283Y271594D01*
X858447Y270953D01*
X857806Y270117D01*
X857403Y269144D01*
X857265Y268100D01*
X857403Y267056D01*
X857806Y266083D01*
X858447Y265247D01*
X859283Y264606D01*
X860256Y264203D01*
X861300Y264066D01*
X862344Y264203D01*
X863317Y264606D01*
X864153Y265247D01*
X864794Y266083D01*
X865197Y267056D01*
X865335Y268100D01*
X865197Y269144D01*
X864794Y270117D01*
X864153Y270953D01*
X863317Y271594D01*
X862344Y271997D01*
X861300Y272134D01*
D02*
G37*
G36*
X824407Y268479D02*
X823493Y268359D01*
X822642Y268006D01*
X822311Y267752D01*
X824407Y265656D01*
X826503Y267752D01*
X826172Y268006D01*
X825321Y268359D01*
X824407Y268479D01*
D02*
G37*
G36*
X1027932Y296034D02*
X1025807Y295979D01*
X1023718Y295591D01*
X1021715Y294882D01*
X1019847Y293868D01*
X1018162Y292575D01*
X1016699Y291033D01*
X1015495Y289282D01*
X1014581Y287364D01*
X1013977Y285327D01*
X1013700Y283220D01*
X1013755Y281096D01*
X1014143Y279006D01*
X1014852Y277003D01*
X1015866Y275136D01*
X1017159Y273450D01*
X1018701Y271987D01*
X1020452Y270784D01*
X1022370Y269869D01*
X1024407Y269265D01*
X1026514Y268988D01*
X1028638Y269044D01*
X1030728Y269431D01*
X1032731Y270140D01*
X1034598Y271154D01*
X1036284Y272448D01*
X1037747Y273989D01*
X1038950Y275740D01*
X1039865Y277658D01*
X1040469Y279696D01*
X1040746Y281802D01*
X1040690Y283927D01*
X1040303Y286016D01*
X1039594Y288019D01*
X1038580Y289886D01*
X1037286Y291572D01*
X1035745Y293035D01*
X1033994Y294239D01*
X1032076Y295153D01*
X1030038Y295757D01*
X1027932Y296034D01*
D02*
G37*
G36*
X821604Y267045D02*
X821350Y266714D01*
X820997Y265863D01*
X820877Y264949D01*
X820997Y264035D01*
X821350Y263184D01*
X821604Y262853D01*
X823700Y264949D01*
X821604Y267045D01*
D02*
G37*
G36*
X824407Y264242D02*
X822311Y262146D01*
X822642Y261892D01*
X823493Y261539D01*
X824407Y261419D01*
X825321Y261539D01*
X826172Y261892D01*
X826503Y262146D01*
X824407Y264242D01*
D02*
G37*
G36*
X1163723Y273961D02*
X1158642Y267905D01*
X1164697Y262824D01*
X1169779Y268880D01*
X1163723Y273961D01*
D02*
G37*
G36*
X827210Y267045D02*
X825114Y264949D01*
X827210Y262853D01*
X827464Y263184D01*
X827817Y264035D01*
X827937Y264949D01*
X827817Y265863D01*
X827464Y266714D01*
X827210Y267045D01*
D02*
G37*
G36*
X1086900Y556496D02*
X1086111Y556462D01*
X1085358Y556224D01*
X1084692Y555800D01*
X1084158Y555217D01*
X1083793Y554517D01*
X1083622Y553746D01*
X1083657Y552956D01*
X1083894Y552203D01*
X1084319Y551537D01*
X1084901Y551003D01*
X1085602Y550638D01*
X1086373Y550467D01*
X1087162Y550502D01*
X1087916Y550739D01*
X1088582Y551164D01*
X1089115Y551746D01*
X1089480Y552447D01*
X1089651Y553218D01*
X1089617Y554007D01*
X1089379Y554761D01*
X1088955Y555427D01*
X1088372Y555961D01*
X1087672Y556325D01*
X1086900Y556496D01*
D02*
G37*
G36*
X867171Y564005D02*
X860695Y559471D01*
X865229Y552995D01*
X871705Y557529D01*
X867171Y564005D01*
D02*
G37*
G36*
X836200Y562224D02*
X835272Y562040D01*
X834486Y561514D01*
X833960Y560728D01*
X833776Y559800D01*
X833960Y558872D01*
X834486Y558086D01*
X835272Y557560D01*
X836200Y557375D01*
X837128Y557560D01*
X837914Y558086D01*
X838440Y558872D01*
X838624Y559800D01*
X838440Y560728D01*
X837914Y561514D01*
X837128Y562040D01*
X836200Y562224D01*
D02*
G37*
G36*
X1087366Y545838D02*
X1086577Y545804D01*
X1085824Y545566D01*
X1085158Y545142D01*
X1084624Y544559D01*
X1084259Y543859D01*
X1084088Y543087D01*
X1084123Y542298D01*
X1084360Y541545D01*
X1084785Y540879D01*
X1085367Y540345D01*
X1086068Y539980D01*
X1086839Y539809D01*
X1087628Y539844D01*
X1088381Y540081D01*
X1089048Y540506D01*
X1089581Y541088D01*
X1089946Y541789D01*
X1090117Y542560D01*
X1090082Y543349D01*
X1089845Y544102D01*
X1089421Y544769D01*
X1088838Y545302D01*
X1088138Y545667D01*
X1087366Y545838D01*
D02*
G37*
G36*
X908656Y540425D02*
X908228Y540340D01*
X907442Y539814D01*
X906916Y539028D01*
X906831Y538600D01*
X908656D01*
Y540425D01*
D02*
G37*
G36*
X909656D02*
Y538600D01*
X911481D01*
X911396Y539028D01*
X910870Y539814D01*
X910084Y540340D01*
X909656Y540425D01*
D02*
G37*
G36*
X788328Y545626D02*
X787536Y545592D01*
X786781Y545354D01*
X786113Y544928D01*
X785578Y544344D01*
X785212Y543642D01*
X785041Y542869D01*
X785076Y542077D01*
X785314Y541322D01*
X785739Y540654D01*
X786323Y540119D01*
X787026Y539753D01*
X787799Y539582D01*
X788590Y539616D01*
X789345Y539854D01*
X790013Y540280D01*
X790548Y540864D01*
X790914Y541566D01*
X791085Y542340D01*
X791051Y543131D01*
X790813Y543886D01*
X790387Y544554D01*
X789803Y545089D01*
X789101Y545455D01*
X788328Y545626D01*
D02*
G37*
G36*
X950286Y585812D02*
X948162Y585756D01*
X946072Y585369D01*
X944069Y584660D01*
X942202Y583646D01*
X940516Y582352D01*
X939053Y580811D01*
X937850Y579060D01*
X936935Y577142D01*
X936331Y575104D01*
X936054Y572998D01*
X936110Y570873D01*
X936497Y568784D01*
X937206Y566781D01*
X938220Y564914D01*
X939514Y563228D01*
X941055Y561765D01*
X942806Y560561D01*
X944724Y559647D01*
X946762Y559043D01*
X948868Y558766D01*
X950993Y558821D01*
X953082Y559209D01*
X955085Y559918D01*
X956952Y560932D01*
X958638Y562225D01*
X960101Y563767D01*
X961305Y565518D01*
X962219Y567436D01*
X962823Y569473D01*
X963100Y571580D01*
X963045Y573704D01*
X962658Y575794D01*
X961948Y577797D01*
X960934Y579664D01*
X959641Y581350D01*
X958099Y582813D01*
X956348Y584016D01*
X954430Y584931D01*
X952393Y585535D01*
X950286Y585812D01*
D02*
G37*
G36*
X882236Y573943D02*
X881219Y573718D01*
X880296Y573237D01*
X879529Y572534D01*
X878970Y571657D01*
X878657Y570664D01*
X878611Y569624D01*
X878837Y568608D01*
X879317Y567685D01*
X880020Y566917D01*
X880898Y566358D01*
X881891Y566045D01*
X882930Y566000D01*
X883947Y566225D01*
X884870Y566706D01*
X885637Y567409D01*
X886196Y568287D01*
X886509Y569279D01*
X886555Y570319D01*
X886329Y571335D01*
X885849Y572258D01*
X885146Y573026D01*
X884268Y573585D01*
X883275Y573898D01*
X882236Y573943D01*
D02*
G37*
G36*
X1163325Y576491D02*
X1162285Y576446D01*
X1161293Y576133D01*
X1160415Y575573D01*
X1159712Y574806D01*
X1159231Y573883D01*
X1159006Y572867D01*
X1159051Y571827D01*
X1159364Y570834D01*
X1159924Y569957D01*
X1160691Y569253D01*
X1161614Y568773D01*
X1162630Y568548D01*
X1163670Y568593D01*
X1164663Y568906D01*
X1165540Y569465D01*
X1166244Y570233D01*
X1166724Y571156D01*
X1166949Y572172D01*
X1166904Y573212D01*
X1166591Y574204D01*
X1166032Y575082D01*
X1165265Y575785D01*
X1164341Y576266D01*
X1163325Y576491D01*
D02*
G37*
G36*
X890469Y579700D02*
X889453Y579475D01*
X888530Y578994D01*
X887763Y578291D01*
X887204Y577413D01*
X886891Y576421D01*
X886845Y575381D01*
X887070Y574365D01*
X887551Y573442D01*
X888254Y572674D01*
X889132Y572115D01*
X890125Y571802D01*
X891164Y571757D01*
X892181Y571982D01*
X893104Y572463D01*
X893871Y573166D01*
X894430Y574044D01*
X894743Y575036D01*
X894789Y576076D01*
X894563Y577092D01*
X894083Y578015D01*
X893380Y578783D01*
X892502Y579342D01*
X891509Y579655D01*
X890469Y579700D01*
D02*
G37*
G36*
X1177553Y576856D02*
X1171497Y571774D01*
X1176579Y565718D01*
X1182635Y570800D01*
X1177553Y576856D01*
D02*
G37*
G36*
X874044Y568207D02*
X873028Y567982D01*
X872105Y567502D01*
X871337Y566798D01*
X870778Y565921D01*
X870465Y564928D01*
X870420Y563888D01*
X870645Y562872D01*
X871126Y561949D01*
X871829Y561182D01*
X872707Y560622D01*
X873699Y560310D01*
X874739Y560264D01*
X875755Y560489D01*
X876678Y560970D01*
X877446Y561673D01*
X878005Y562551D01*
X878318Y563544D01*
X878363Y564583D01*
X878138Y565599D01*
X877657Y566523D01*
X876954Y567290D01*
X876076Y567849D01*
X875084Y568162D01*
X874044Y568207D01*
D02*
G37*
G36*
X1169753Y568831D02*
X1168713Y568785D01*
X1167721Y568472D01*
X1166843Y567913D01*
X1166140Y567146D01*
X1165659Y566222D01*
X1165434Y565206D01*
X1165479Y564167D01*
X1165792Y563174D01*
X1166352Y562296D01*
X1167119Y561593D01*
X1168042Y561112D01*
X1169058Y560887D01*
X1170098Y560933D01*
X1171091Y561246D01*
X1171968Y561805D01*
X1172672Y562572D01*
X1173152Y563495D01*
X1173377Y564511D01*
X1173332Y565551D01*
X1173019Y566544D01*
X1172460Y567422D01*
X1171692Y568125D01*
X1170769Y568605D01*
X1169753Y568831D01*
D02*
G37*
G36*
X1011400Y568824D02*
X1010472Y568640D01*
X1009686Y568114D01*
X1009160Y567328D01*
X1008976Y566400D01*
X1009160Y565472D01*
X1009686Y564686D01*
X1010472Y564160D01*
X1011400Y563975D01*
X1012328Y564160D01*
X1013114Y564686D01*
X1013640Y565472D01*
X1013824Y566400D01*
X1013640Y567328D01*
X1013114Y568114D01*
X1012328Y568640D01*
X1011400Y568824D01*
D02*
G37*
G36*
X1204155Y528841D02*
X1203703Y528553D01*
X1203000Y527785D01*
X1202519Y526862D01*
X1202294Y525846D01*
X1202339Y524806D01*
X1202501Y524295D01*
X1205601Y525740D01*
X1204155Y528841D01*
D02*
G37*
G36*
X1206613Y529470D02*
X1205573Y529425D01*
X1205062Y529263D01*
X1206507Y526163D01*
X1209608Y527609D01*
X1209320Y528061D01*
X1208552Y528764D01*
X1207629Y529245D01*
X1206613Y529470D01*
D02*
G37*
G36*
X787852Y534251D02*
X786802Y534205D01*
X785800Y533889D01*
X784913Y533324D01*
X784203Y532549D01*
X783717Y531617D01*
X783490Y530590D01*
X783536Y529540D01*
X783852Y528538D01*
X784417Y527651D01*
X785192Y526941D01*
X786124Y526456D01*
X787150Y526228D01*
X788201Y526274D01*
X789203Y526590D01*
X790090Y527155D01*
X790800Y527930D01*
X791285Y528862D01*
X791512Y529889D01*
X791467Y530939D01*
X791151Y531941D01*
X790586Y532828D01*
X789811Y533538D01*
X788878Y534023D01*
X787852Y534251D01*
D02*
G37*
G36*
X798951Y530211D02*
X797901Y530165D01*
X796898Y529849D01*
X796012Y529285D01*
X795302Y528510D01*
X794816Y527577D01*
X794589Y526551D01*
X794635Y525501D01*
X794951Y524498D01*
X795515Y523612D01*
X796290Y522902D01*
X797223Y522416D01*
X798249Y522189D01*
X799299Y522235D01*
X800302Y522551D01*
X801188Y523115D01*
X801898Y523890D01*
X802384Y524823D01*
X802611Y525849D01*
X802565Y526899D01*
X802249Y527902D01*
X801685Y528788D01*
X800910Y529498D01*
X799977Y529984D01*
X798951Y530211D01*
D02*
G37*
G36*
X868500Y526325D02*
X867572Y526140D01*
X866786Y525614D01*
X866260Y524828D01*
X866076Y523900D01*
X866260Y522972D01*
X866786Y522186D01*
X867572Y521660D01*
X868500Y521476D01*
X869428Y521660D01*
X870214Y522186D01*
X870740Y522972D01*
X870924Y523900D01*
X870740Y524828D01*
X870214Y525614D01*
X869428Y526140D01*
X868500Y526325D01*
D02*
G37*
G36*
X1206024Y524834D02*
X1202923Y523388D01*
X1203211Y522936D01*
X1203979Y522233D01*
X1204902Y521752D01*
X1205918Y521527D01*
X1206958Y521572D01*
X1207469Y521734D01*
X1206024Y524834D01*
D02*
G37*
G36*
X1210030Y526702D02*
X1206930Y525257D01*
X1208376Y522156D01*
X1208828Y522444D01*
X1209531Y523212D01*
X1210012Y524135D01*
X1210237Y525151D01*
X1210192Y526191D01*
X1210030Y526702D01*
D02*
G37*
G36*
X1193324Y534307D02*
X1192284Y534262D01*
X1191291Y533949D01*
X1190413Y533390D01*
X1189710Y532622D01*
X1189230Y531699D01*
X1189005Y530683D01*
X1189050Y529643D01*
X1189363Y528651D01*
X1189922Y527773D01*
X1190689Y527070D01*
X1191613Y526589D01*
X1192629Y526364D01*
X1193668Y526409D01*
X1194661Y526722D01*
X1195539Y527281D01*
X1196242Y528049D01*
X1196723Y528972D01*
X1196948Y529988D01*
X1196902Y531028D01*
X1196589Y532020D01*
X1196030Y532898D01*
X1195263Y533601D01*
X1194340Y534082D01*
X1193324Y534307D01*
D02*
G37*
G36*
X911481Y537600D02*
X909656D01*
Y535775D01*
X910084Y535860D01*
X910870Y536386D01*
X911396Y537172D01*
X911481Y537600D01*
D02*
G37*
G36*
X1000900Y541024D02*
X999972Y540840D01*
X999186Y540314D01*
X998660Y539528D01*
X998475Y538600D01*
X998660Y537672D01*
X999186Y536886D01*
X999972Y536360D01*
X1000900Y536175D01*
X1001828Y536360D01*
X1002614Y536886D01*
X1003140Y537672D01*
X1003325Y538600D01*
X1003140Y539528D01*
X1002614Y540314D01*
X1001828Y540840D01*
X1000900Y541024D01*
D02*
G37*
G36*
X1077192Y542631D02*
X1076402Y542596D01*
X1075649Y542359D01*
X1074983Y541934D01*
X1074449Y541352D01*
X1074084Y540651D01*
X1073913Y539880D01*
X1073948Y539091D01*
X1074185Y538337D01*
X1074610Y537671D01*
X1075192Y537138D01*
X1075893Y536773D01*
X1076664Y536602D01*
X1077453Y536636D01*
X1078207Y536874D01*
X1078873Y537298D01*
X1079407Y537881D01*
X1079771Y538581D01*
X1079942Y539353D01*
X1079908Y540142D01*
X1079670Y540895D01*
X1079246Y541561D01*
X1078664Y542095D01*
X1077963Y542460D01*
X1077192Y542631D01*
D02*
G37*
G36*
X908656Y537600D02*
X906831D01*
X906916Y537172D01*
X907442Y536386D01*
X908228Y535860D01*
X908656Y535775D01*
Y537600D01*
D02*
G37*
G36*
X948916Y534801D02*
X947887Y534573D01*
X946953Y534087D01*
X946177Y533375D01*
X945611Y532487D01*
X945294Y531482D01*
X945248Y530430D01*
X945476Y529402D01*
X945962Y528468D01*
X946674Y527691D01*
X947562Y527125D01*
X948567Y526809D01*
X949619Y526763D01*
X950647Y526991D01*
X951581Y527477D01*
X952358Y528189D01*
X952924Y529077D01*
X953240Y530081D01*
X953286Y531134D01*
X953059Y532162D01*
X952572Y533096D01*
X951861Y533873D01*
X950972Y534438D01*
X949968Y534755D01*
X948916Y534801D01*
D02*
G37*
G36*
X1202387Y538533D02*
X1201347Y538488D01*
X1200354Y538175D01*
X1199477Y537616D01*
X1198773Y536848D01*
X1198293Y535925D01*
X1198068Y534909D01*
X1198113Y533869D01*
X1198426Y532877D01*
X1198985Y531999D01*
X1199753Y531296D01*
X1200676Y530815D01*
X1201692Y530590D01*
X1202732Y530635D01*
X1203724Y530948D01*
X1204602Y531507D01*
X1205305Y532275D01*
X1205786Y533198D01*
X1206011Y534214D01*
X1205966Y535254D01*
X1205653Y536246D01*
X1205093Y537124D01*
X1204326Y537827D01*
X1203403Y538308D01*
X1202387Y538533D01*
D02*
G37*
G36*
X981228Y540086D02*
X980415Y539906D01*
X979675Y539521D01*
X979061Y538958D01*
X978613Y538255D01*
X978362Y537460D01*
X978326Y536628D01*
X978506Y535814D01*
X978891Y535075D01*
X979454Y534460D01*
X980157Y534012D01*
X980952Y533762D01*
X981785Y533725D01*
X982599Y533906D01*
X983338Y534291D01*
X983952Y534854D01*
X984400Y535557D01*
X984651Y536351D01*
X984687Y537184D01*
X984507Y537998D01*
X984122Y538737D01*
X983559Y539352D01*
X982856Y539799D01*
X982061Y540050D01*
X981228Y540086D01*
D02*
G37*
G36*
X1027556Y574100D02*
X1025731D01*
X1025816Y573672D01*
X1026342Y572886D01*
X1027128Y572360D01*
X1027556Y572275D01*
Y574100D01*
D02*
G37*
G36*
X1111395Y625326D02*
X1110355Y625281D01*
X1109363Y624968D01*
X1108485Y624408D01*
X1107782Y623641D01*
X1107301Y622718D01*
X1107076Y621702D01*
X1107121Y620662D01*
X1107434Y619669D01*
X1107993Y618792D01*
X1108761Y618088D01*
X1109684Y617608D01*
X1110700Y617383D01*
X1111740Y617428D01*
X1112733Y617741D01*
X1113610Y618300D01*
X1114313Y619067D01*
X1114794Y619991D01*
X1115019Y621007D01*
X1114974Y622047D01*
X1114661Y623039D01*
X1114102Y623917D01*
X1113334Y624620D01*
X1112411Y625101D01*
X1111395Y625326D01*
D02*
G37*
G36*
X1081700Y627702D02*
X1080656Y627656D01*
X1079660Y627342D01*
X1078778Y626781D01*
X1078073Y626010D01*
X1077590Y625083D01*
X1077364Y624063D01*
X1077409Y623019D01*
X1077724Y622023D01*
X1078285Y621141D01*
X1079056Y620436D01*
X1079982Y619953D01*
X1081003Y619727D01*
X1082047Y619772D01*
X1083043Y620087D01*
X1083924Y620648D01*
X1084630Y621419D01*
X1085113Y622345D01*
X1085339Y623366D01*
X1085293Y624409D01*
X1084979Y625406D01*
X1084418Y626287D01*
X1083647Y626993D01*
X1082720Y627476D01*
X1081700Y627702D01*
D02*
G37*
G36*
X1125098Y623114D02*
X1123135Y620311D01*
X1123611Y620064D01*
X1124627Y619838D01*
X1125667Y619884D01*
X1126660Y620197D01*
X1127538Y620756D01*
X1127900Y621151D01*
X1125098Y623114D01*
D02*
G37*
G36*
X918700Y620088D02*
X917772Y619903D01*
X916986Y619378D01*
X916460Y618591D01*
X916276Y617663D01*
X916460Y616735D01*
X916986Y615949D01*
X917772Y615423D01*
X918700Y615239D01*
X919628Y615423D01*
X920414Y615949D01*
X920940Y616735D01*
X921124Y617663D01*
X920940Y618591D01*
X920414Y619378D01*
X919628Y619903D01*
X918700Y620088D01*
D02*
G37*
G36*
X1132196Y623579D02*
X1127661Y617103D01*
X1134137Y612569D01*
X1138671Y619045D01*
X1132196Y623579D01*
D02*
G37*
G36*
X989475Y616725D02*
X987650D01*
X987735Y616297D01*
X988260Y615511D01*
X989047Y614985D01*
X989475Y614900D01*
Y616725D01*
D02*
G37*
G36*
X992300D02*
X990475D01*
Y614900D01*
X990903Y614985D01*
X991689Y615511D01*
X992215Y616297D01*
X992300Y616725D01*
D02*
G37*
G36*
X1121476Y625649D02*
X1121228Y625174D01*
X1121003Y624157D01*
X1121049Y623118D01*
X1121362Y622125D01*
X1121921Y621247D01*
X1122316Y620885D01*
X1124278Y623687D01*
X1121476Y625649D01*
D02*
G37*
G36*
X1058764Y641414D02*
X1057975Y641380D01*
X1057221Y641142D01*
X1056555Y640718D01*
X1056021Y640136D01*
X1055657Y639435D01*
X1055486Y638664D01*
X1055520Y637875D01*
X1055758Y637121D01*
X1056182Y636455D01*
X1056764Y635921D01*
X1057465Y635557D01*
X1058236Y635386D01*
X1059025Y635420D01*
X1059779Y635658D01*
X1060445Y636082D01*
X1060979Y636664D01*
X1061343Y637365D01*
X1061514Y638136D01*
X1061480Y638925D01*
X1061242Y639679D01*
X1060818Y640345D01*
X1060236Y640879D01*
X1059535Y641243D01*
X1058764Y641414D01*
D02*
G37*
G36*
X1031904Y645826D02*
X1030860Y645781D01*
X1029863Y645467D01*
X1028982Y644905D01*
X1028276Y644135D01*
X1027794Y643208D01*
X1027568Y642188D01*
X1027613Y641144D01*
X1027927Y640147D01*
X1028489Y639266D01*
X1029259Y638560D01*
X1030186Y638077D01*
X1031206Y637851D01*
X1032250Y637897D01*
X1033247Y638211D01*
X1034128Y638772D01*
X1034834Y639543D01*
X1035316Y640470D01*
X1035543Y641490D01*
X1035497Y642534D01*
X1035183Y643531D01*
X1034621Y644412D01*
X1033851Y645118D01*
X1032924Y645600D01*
X1031904Y645826D01*
D02*
G37*
G36*
X1035997Y657073D02*
X1034953Y657027D01*
X1033957Y656713D01*
X1033076Y656152D01*
X1032370Y655381D01*
X1031887Y654455D01*
X1031661Y653434D01*
X1031707Y652390D01*
X1032021Y651394D01*
X1032582Y650513D01*
X1033353Y649807D01*
X1034280Y649324D01*
X1035300Y649098D01*
X1036344Y649144D01*
X1037340Y649458D01*
X1038221Y650019D01*
X1038927Y650790D01*
X1039410Y651717D01*
X1039636Y652737D01*
X1039590Y653781D01*
X1039276Y654777D01*
X1038715Y655658D01*
X1037945Y656364D01*
X1037018Y656847D01*
X1035997Y657073D01*
D02*
G37*
G36*
X1085794Y638949D02*
X1084750Y638903D01*
X1083753Y638589D01*
X1082872Y638027D01*
X1082166Y637257D01*
X1081684Y636330D01*
X1081457Y635310D01*
X1081503Y634266D01*
X1081817Y633270D01*
X1082379Y632388D01*
X1083149Y631682D01*
X1084076Y631200D01*
X1085096Y630974D01*
X1086140Y631019D01*
X1087136Y631333D01*
X1088018Y631895D01*
X1088724Y632665D01*
X1089206Y633592D01*
X1089432Y634612D01*
X1089387Y635656D01*
X1089073Y636653D01*
X1088511Y637534D01*
X1087741Y638240D01*
X1086814Y638723D01*
X1085794Y638949D01*
D02*
G37*
G36*
X1127633Y626735D02*
X1125671Y623933D01*
X1128473Y621971D01*
X1128721Y622446D01*
X1128946Y623462D01*
X1128901Y624502D01*
X1128588Y625495D01*
X1128029Y626373D01*
X1127633Y626735D01*
D02*
G37*
G36*
X1125322Y627782D02*
X1124282Y627736D01*
X1123290Y627423D01*
X1122412Y626864D01*
X1122050Y626469D01*
X1124852Y624506D01*
X1126814Y627309D01*
X1126338Y627556D01*
X1125322Y627782D01*
D02*
G37*
G36*
X1117131Y633518D02*
X1116091Y633472D01*
X1115098Y633159D01*
X1114221Y632600D01*
X1113517Y631833D01*
X1113037Y630909D01*
X1112812Y629893D01*
X1112857Y628854D01*
X1113170Y627861D01*
X1113729Y626983D01*
X1114497Y626280D01*
X1115420Y625799D01*
X1116436Y625574D01*
X1117476Y625620D01*
X1118468Y625932D01*
X1119346Y626492D01*
X1120049Y627259D01*
X1120530Y628182D01*
X1120755Y629198D01*
X1120710Y630238D01*
X1120397Y631231D01*
X1119837Y632108D01*
X1119070Y632812D01*
X1118147Y633292D01*
X1117131Y633518D01*
D02*
G37*
G36*
X1156897Y584152D02*
X1155858Y584106D01*
X1154865Y583793D01*
X1153987Y583234D01*
X1153284Y582467D01*
X1152803Y581543D01*
X1152578Y580527D01*
X1152624Y579488D01*
X1152936Y578495D01*
X1153496Y577617D01*
X1154263Y576914D01*
X1155186Y576433D01*
X1156202Y576208D01*
X1157242Y576254D01*
X1158235Y576567D01*
X1159113Y577126D01*
X1159816Y577893D01*
X1160296Y578816D01*
X1160522Y579832D01*
X1160476Y580872D01*
X1160163Y581865D01*
X1159604Y582743D01*
X1158837Y583446D01*
X1157913Y583926D01*
X1156897Y584152D01*
D02*
G37*
G36*
X1173963Y581085D02*
X1171343Y578886D01*
X1173542Y576265D01*
X1173904Y576660D01*
X1174385Y577584D01*
X1174610Y578600D01*
X1174564Y579640D01*
X1174251Y580632D01*
X1173963Y581085D01*
D02*
G37*
G36*
X1167735Y581630D02*
X1167372Y581234D01*
X1166892Y580311D01*
X1166667Y579295D01*
X1166712Y578255D01*
X1167025Y577262D01*
X1167313Y576810D01*
X1169934Y579009D01*
X1167735Y581630D01*
D02*
G37*
G36*
X1028556Y576925D02*
Y575100D01*
X1030381D01*
X1030296Y575528D01*
X1029770Y576314D01*
X1028984Y576840D01*
X1028556Y576925D01*
D02*
G37*
G36*
X1030381Y574100D02*
X1028556D01*
Y572275D01*
X1028984Y572360D01*
X1029770Y572886D01*
X1030296Y573672D01*
X1030381Y574100D01*
D02*
G37*
G36*
X1170576Y578243D02*
X1167956Y576044D01*
X1168351Y575681D01*
X1169275Y575201D01*
X1170291Y574976D01*
X1171331Y575021D01*
X1172323Y575334D01*
X1172776Y575622D01*
X1170576Y578243D01*
D02*
G37*
G36*
X1027556Y576925D02*
X1027128Y576840D01*
X1026342Y576314D01*
X1025816Y575528D01*
X1025731Y575100D01*
X1027556D01*
Y576925D01*
D02*
G37*
G36*
X898661Y585436D02*
X897645Y585211D01*
X896722Y584730D01*
X895954Y584027D01*
X895395Y583149D01*
X895082Y582157D01*
X895037Y581117D01*
X895262Y580101D01*
X895743Y579178D01*
X896446Y578410D01*
X897324Y577851D01*
X898316Y577538D01*
X899356Y577493D01*
X900372Y577718D01*
X901295Y578198D01*
X902063Y578901D01*
X902622Y579779D01*
X902935Y580772D01*
X902980Y581812D01*
X902755Y582828D01*
X902274Y583751D01*
X901571Y584518D01*
X900693Y585078D01*
X899701Y585391D01*
X898661Y585436D01*
D02*
G37*
G36*
X1002923Y604924D02*
X1001995Y604740D01*
X1001208Y604214D01*
X1000683Y603428D01*
X1000498Y602500D01*
X1000683Y601572D01*
X1001208Y600786D01*
X1001995Y600260D01*
X1002923Y600075D01*
X1003851Y600260D01*
X1004637Y600786D01*
X1005163Y601572D01*
X1005347Y602500D01*
X1005163Y603428D01*
X1004637Y604214D01*
X1003851Y604740D01*
X1002923Y604924D01*
D02*
G37*
G36*
X1127778Y613854D02*
X1126738Y613809D01*
X1125746Y613496D01*
X1124868Y612937D01*
X1124165Y612170D01*
X1123684Y611246D01*
X1123459Y610230D01*
X1123504Y609190D01*
X1123817Y608198D01*
X1124376Y607320D01*
X1125144Y606617D01*
X1126067Y606136D01*
X1127083Y605911D01*
X1128123Y605956D01*
X1129115Y606269D01*
X1129993Y606829D01*
X1130696Y607596D01*
X1131177Y608519D01*
X1131402Y609535D01*
X1131357Y610575D01*
X1131044Y611568D01*
X1130485Y612445D01*
X1129717Y613149D01*
X1128794Y613629D01*
X1127778Y613854D01*
D02*
G37*
G36*
X1119586Y619590D02*
X1118547Y619545D01*
X1117554Y619232D01*
X1116676Y618673D01*
X1115973Y617905D01*
X1115493Y616982D01*
X1115267Y615966D01*
X1115313Y614926D01*
X1115626Y613934D01*
X1116185Y613056D01*
X1116952Y612353D01*
X1117875Y611872D01*
X1118892Y611647D01*
X1119931Y611692D01*
X1120924Y612005D01*
X1121802Y612564D01*
X1122505Y613332D01*
X1122985Y614255D01*
X1123211Y615271D01*
X1123165Y616311D01*
X1122852Y617303D01*
X1122293Y618181D01*
X1121526Y618884D01*
X1120603Y619365D01*
X1119586Y619590D01*
D02*
G37*
G36*
X968715Y604924D02*
X967787Y604740D01*
X967001Y604214D01*
X966475Y603428D01*
X966290Y602500D01*
X966475Y601572D01*
X967001Y600786D01*
X967787Y600260D01*
X968715Y600075D01*
X969643Y600260D01*
X970429Y600786D01*
X970955Y601572D01*
X971140Y602500D01*
X970955Y603428D01*
X970429Y604214D01*
X969643Y604740D01*
X968715Y604924D01*
D02*
G37*
G36*
X1170986Y582919D02*
X1169946Y582873D01*
X1168953Y582561D01*
X1168501Y582272D01*
X1170700Y579652D01*
X1173320Y581851D01*
X1172925Y582213D01*
X1172002Y582694D01*
X1170986Y582919D01*
D02*
G37*
G36*
X908171Y592705D02*
X901695Y588171D01*
X906229Y581695D01*
X912705Y586229D01*
X908171Y592705D01*
D02*
G37*
G36*
X1164558Y590579D02*
X1163518Y590534D01*
X1162525Y590221D01*
X1161648Y589662D01*
X1160944Y588895D01*
X1160464Y587971D01*
X1160239Y586955D01*
X1160284Y585915D01*
X1160597Y584923D01*
X1161156Y584045D01*
X1161924Y583342D01*
X1162847Y582861D01*
X1163863Y582636D01*
X1164903Y582681D01*
X1165895Y582994D01*
X1166773Y583554D01*
X1167476Y584321D01*
X1167957Y585244D01*
X1168182Y586260D01*
X1168137Y587300D01*
X1167824Y588293D01*
X1167264Y589170D01*
X1166497Y589874D01*
X1165574Y590354D01*
X1164558Y590579D01*
D02*
G37*
G36*
X835246Y473289D02*
X834318Y473105D01*
X833532Y472579D01*
X833006Y471793D01*
X832821Y470865D01*
X833006Y469937D01*
X833532Y469150D01*
X834318Y468625D01*
X835246Y468440D01*
X836174Y468625D01*
X836960Y469150D01*
X837486Y469937D01*
X837671Y470865D01*
X837486Y471793D01*
X836960Y472579D01*
X836174Y473105D01*
X835246Y473289D01*
D02*
G37*
G36*
X1224040Y477709D02*
X1223000Y477664D01*
X1222007Y477351D01*
X1221129Y476792D01*
X1220426Y476025D01*
X1219946Y475101D01*
X1219720Y474085D01*
X1219766Y473045D01*
X1220079Y472053D01*
X1220638Y471175D01*
X1221405Y470472D01*
X1222328Y469991D01*
X1223345Y469766D01*
X1224384Y469811D01*
X1225377Y470124D01*
X1226255Y470684D01*
X1226958Y471451D01*
X1227439Y472374D01*
X1227664Y473390D01*
X1227618Y474430D01*
X1227306Y475423D01*
X1226746Y476300D01*
X1225979Y477004D01*
X1225056Y477484D01*
X1224040Y477709D01*
D02*
G37*
G36*
X767654Y478757D02*
X766604Y478711D01*
X765601Y478395D01*
X764715Y477831D01*
X764005Y477056D01*
X763519Y476123D01*
X763292Y475097D01*
X763338Y474047D01*
X763654Y473044D01*
X764219Y472158D01*
X764994Y471448D01*
X765926Y470962D01*
X766952Y470735D01*
X768002Y470781D01*
X769005Y471097D01*
X769892Y471661D01*
X770602Y472436D01*
X771087Y473369D01*
X771314Y474395D01*
X771269Y475445D01*
X770953Y476448D01*
X770388Y477334D01*
X769613Y478044D01*
X768680Y478530D01*
X767654Y478757D01*
D02*
G37*
G36*
X1214192Y475973D02*
X1213152Y475928D01*
X1212159Y475615D01*
X1211281Y475056D01*
X1210578Y474288D01*
X1210098Y473365D01*
X1209872Y472349D01*
X1209918Y471309D01*
X1210231Y470316D01*
X1210790Y469439D01*
X1211557Y468736D01*
X1212480Y468255D01*
X1213497Y468030D01*
X1214536Y468075D01*
X1215529Y468388D01*
X1216407Y468947D01*
X1217110Y469715D01*
X1217591Y470638D01*
X1217816Y471654D01*
X1217770Y472694D01*
X1217457Y473686D01*
X1216898Y474564D01*
X1216131Y475267D01*
X1215208Y475748D01*
X1214192Y475973D01*
D02*
G37*
G36*
X1225776Y467861D02*
X1225240Y467838D01*
X1225834Y464469D01*
X1229203Y465063D01*
X1229042Y465575D01*
X1228483Y466453D01*
X1227715Y467156D01*
X1226792Y467636D01*
X1225776Y467861D01*
D02*
G37*
G36*
X778753Y474718D02*
X777703Y474672D01*
X776700Y474356D01*
X775814Y473791D01*
X775104Y473016D01*
X774618Y472084D01*
X774391Y471057D01*
X774437Y470007D01*
X774753Y469005D01*
X775317Y468118D01*
X776092Y467408D01*
X777025Y466923D01*
X778051Y466695D01*
X779101Y466741D01*
X780104Y467057D01*
X780990Y467622D01*
X781700Y468397D01*
X782186Y469329D01*
X782413Y470355D01*
X782367Y471406D01*
X782051Y472408D01*
X781487Y473295D01*
X780712Y474005D01*
X779779Y474490D01*
X778753Y474718D01*
D02*
G37*
G36*
X877738Y473770D02*
X876924Y473590D01*
X876185Y473205D01*
X875571Y472642D01*
X875123Y471939D01*
X874872Y471144D01*
X874836Y470311D01*
X875016Y469498D01*
X875401Y468758D01*
X875964Y468144D01*
X876667Y467696D01*
X877462Y467446D01*
X878294Y467409D01*
X879108Y467590D01*
X879848Y467974D01*
X880462Y468538D01*
X880910Y469240D01*
X881160Y470035D01*
X881197Y470868D01*
X881016Y471682D01*
X880632Y472421D01*
X880068Y473035D01*
X879366Y473483D01*
X878571Y473734D01*
X877738Y473770D01*
D02*
G37*
G36*
X1133238Y477313D02*
X1132449Y477278D01*
X1131695Y477041D01*
X1131029Y476616D01*
X1130495Y476034D01*
X1130131Y475333D01*
X1129960Y474562D01*
X1129994Y473773D01*
X1130232Y473020D01*
X1130656Y472354D01*
X1131238Y471820D01*
X1131939Y471455D01*
X1132710Y471284D01*
X1133499Y471319D01*
X1134253Y471556D01*
X1134919Y471980D01*
X1135453Y472563D01*
X1135817Y473264D01*
X1135988Y474035D01*
X1135954Y474824D01*
X1135716Y475577D01*
X1135292Y476243D01*
X1134710Y476777D01*
X1134009Y477142D01*
X1133238Y477313D01*
D02*
G37*
G36*
X771694Y489856D02*
X770644Y489810D01*
X769641Y489494D01*
X768755Y488929D01*
X768045Y488154D01*
X767559Y487222D01*
X767332Y486196D01*
X767378Y485146D01*
X767694Y484143D01*
X768258Y483256D01*
X769033Y482546D01*
X769966Y482061D01*
X770992Y481833D01*
X772042Y481879D01*
X773044Y482195D01*
X773931Y482760D01*
X774641Y483535D01*
X775127Y484468D01*
X775354Y485494D01*
X775308Y486544D01*
X774992Y487546D01*
X774427Y488433D01*
X773652Y489143D01*
X772720Y489628D01*
X771694Y489856D01*
D02*
G37*
G36*
X905502Y492195D02*
X904474Y491967D01*
X903540Y491481D01*
X902763Y490769D01*
X902197Y489881D01*
X901881Y488876D01*
X901835Y487824D01*
X902063Y486796D01*
X902549Y485862D01*
X903261Y485085D01*
X904149Y484519D01*
X905153Y484202D01*
X906205Y484157D01*
X907234Y484384D01*
X908168Y484871D01*
X908945Y485582D01*
X909510Y486471D01*
X909827Y487475D01*
X909873Y488527D01*
X909645Y489556D01*
X909159Y490490D01*
X908447Y491266D01*
X907559Y491832D01*
X906555Y492149D01*
X905502Y492195D01*
D02*
G37*
G36*
X977594Y493843D02*
X976566Y493615D01*
X975632Y493129D01*
X974856Y492418D01*
X974290Y491529D01*
X973973Y490525D01*
X973927Y489473D01*
X974155Y488444D01*
X974641Y487510D01*
X975353Y486734D01*
X976241Y486168D01*
X977246Y485851D01*
X978298Y485805D01*
X979326Y486033D01*
X980260Y486519D01*
X981037Y487231D01*
X981603Y488119D01*
X981919Y489124D01*
X981965Y490176D01*
X981737Y491204D01*
X981251Y492138D01*
X980539Y492915D01*
X979651Y493481D01*
X978647Y493797D01*
X977594Y493843D01*
D02*
G37*
G36*
X1138163Y486776D02*
X1137374Y486742D01*
X1136621Y486504D01*
X1135954Y486080D01*
X1135421Y485497D01*
X1135056Y484796D01*
X1134885Y484025D01*
X1134920Y483236D01*
X1135157Y482483D01*
X1135582Y481817D01*
X1136164Y481283D01*
X1136865Y480918D01*
X1137636Y480747D01*
X1138425Y480782D01*
X1139178Y481019D01*
X1139845Y481444D01*
X1140378Y482026D01*
X1140743Y482727D01*
X1140914Y483498D01*
X1140880Y484287D01*
X1140642Y485040D01*
X1140217Y485707D01*
X1139635Y486240D01*
X1138935Y486605D01*
X1138163Y486776D01*
D02*
G37*
G36*
X1122822Y479623D02*
X1122033Y479588D01*
X1121280Y479351D01*
X1120614Y478926D01*
X1120080Y478344D01*
X1119715Y477643D01*
X1119544Y476872D01*
X1119579Y476083D01*
X1119816Y475329D01*
X1120241Y474663D01*
X1120823Y474129D01*
X1121524Y473765D01*
X1122295Y473594D01*
X1123084Y473628D01*
X1123837Y473866D01*
X1124504Y474290D01*
X1125037Y474872D01*
X1125402Y475573D01*
X1125573Y476344D01*
X1125539Y477134D01*
X1125301Y477887D01*
X1124877Y478553D01*
X1124294Y479087D01*
X1123594Y479452D01*
X1122822Y479623D01*
D02*
G37*
G36*
X983330Y485652D02*
X982302Y485424D01*
X981368Y484938D01*
X980591Y484226D01*
X980025Y483338D01*
X979709Y482333D01*
X979663Y481281D01*
X979891Y480253D01*
X979976Y480090D01*
X917716Y417829D01*
X880933D01*
X858029Y440733D01*
Y448728D01*
X860231Y450930D01*
X860450Y450886D01*
X861377Y451071D01*
X862164Y451596D01*
X862689Y452383D01*
X862874Y453311D01*
X862689Y454239D01*
X862164Y455025D01*
X861377Y455551D01*
X860450Y455735D01*
X859522Y455551D01*
X858735Y455025D01*
X858210Y454239D01*
X858025Y453311D01*
X858068Y453093D01*
X855419Y450443D01*
X855087Y449947D01*
X854971Y449361D01*
Y440100D01*
X855087Y439515D01*
X855419Y439019D01*
X879219Y415219D01*
X879715Y414887D01*
X880300Y414771D01*
X918349D01*
X918934Y414887D01*
X919431Y415219D01*
X982137Y477925D01*
X982981Y477660D01*
X984033Y477614D01*
X985062Y477842D01*
X985996Y478328D01*
X986773Y479039D01*
X987338Y479928D01*
X987655Y480932D01*
X987701Y481984D01*
X987473Y483013D01*
X986987Y483947D01*
X986275Y484723D01*
X985387Y485289D01*
X984382Y485606D01*
X983330Y485652D01*
D02*
G37*
G36*
X782793Y485816D02*
X781742Y485771D01*
X780740Y485454D01*
X779853Y484890D01*
X779143Y484115D01*
X778658Y483182D01*
X778430Y482156D01*
X778476Y481106D01*
X778792Y480103D01*
X779357Y479217D01*
X780132Y478507D01*
X781064Y478021D01*
X782091Y477794D01*
X783141Y477840D01*
X784143Y478156D01*
X785030Y478721D01*
X785740Y479495D01*
X786225Y480428D01*
X786453Y481454D01*
X786407Y482504D01*
X786091Y483507D01*
X785526Y484393D01*
X784751Y485104D01*
X783819Y485589D01*
X782793Y485816D01*
D02*
G37*
G36*
X1132184Y441344D02*
X1131395Y441310D01*
X1130641Y441073D01*
X1129975Y440648D01*
X1129442Y440066D01*
X1129077Y439365D01*
X1128906Y438594D01*
X1128940Y437805D01*
X1129178Y437051D01*
X1129602Y436385D01*
X1130185Y435851D01*
X1130885Y435487D01*
X1131657Y435316D01*
X1132446Y435350D01*
X1133199Y435588D01*
X1133865Y436012D01*
X1134399Y436594D01*
X1134764Y437295D01*
X1134935Y438066D01*
X1134900Y438856D01*
X1134663Y439609D01*
X1134238Y440275D01*
X1133656Y440809D01*
X1132955Y441174D01*
X1132184Y441344D01*
D02*
G37*
G36*
X1148854Y444284D02*
X1148065Y444249D01*
X1147311Y444012D01*
X1146645Y443587D01*
X1146111Y443005D01*
X1145747Y442304D01*
X1145576Y441533D01*
X1145610Y440744D01*
X1145848Y439991D01*
X1146272Y439324D01*
X1146854Y438791D01*
X1147555Y438426D01*
X1148326Y438255D01*
X1149115Y438289D01*
X1149869Y438527D01*
X1150535Y438951D01*
X1151069Y439534D01*
X1151433Y440235D01*
X1151604Y441006D01*
X1151570Y441795D01*
X1151332Y442548D01*
X1150908Y443214D01*
X1150325Y443748D01*
X1149625Y444113D01*
X1148854Y444284D01*
D02*
G37*
G36*
X901246Y449986D02*
X900318Y449801D01*
X899532Y449276D01*
X899006Y448489D01*
X898823Y447568D01*
X898021Y447728D01*
X897093Y447543D01*
X896307Y447018D01*
X895781Y446231D01*
X895682Y445736D01*
X895267Y445458D01*
X894728Y445565D01*
X893800Y445380D01*
X893014Y444855D01*
X892488Y444068D01*
X892374Y443494D01*
X891958Y443216D01*
X891503Y443307D01*
X890575Y443122D01*
X889789Y442596D01*
X889263Y441810D01*
X889079Y440882D01*
X889263Y439954D01*
X889789Y439168D01*
X890575Y438642D01*
X891503Y438457D01*
X892431Y438642D01*
X893218Y439168D01*
X893743Y439954D01*
X893857Y440528D01*
X894273Y440806D01*
X894728Y440716D01*
X895656Y440900D01*
X896443Y441426D01*
X896968Y442212D01*
X897067Y442708D01*
X897483Y442986D01*
X898021Y442879D01*
X898949Y443063D01*
X899735Y443589D01*
X900261Y444376D01*
X900375Y444950D01*
X900791Y445227D01*
X901246Y445137D01*
X902174Y445322D01*
X902960Y445847D01*
X903486Y446634D01*
X903671Y447562D01*
X903486Y448489D01*
X902960Y449276D01*
X902174Y449801D01*
X901246Y449986D01*
D02*
G37*
G36*
X1141647Y436418D02*
X1140858Y436383D01*
X1140104Y436146D01*
X1139438Y435721D01*
X1138904Y435139D01*
X1138540Y434439D01*
X1138369Y433667D01*
X1138403Y432878D01*
X1138640Y432125D01*
X1139065Y431459D01*
X1139647Y430925D01*
X1140348Y430560D01*
X1141119Y430389D01*
X1141908Y430424D01*
X1142662Y430661D01*
X1143328Y431086D01*
X1143862Y431668D01*
X1144226Y432369D01*
X1144397Y433140D01*
X1144363Y433929D01*
X1144125Y434682D01*
X1143701Y435349D01*
X1143118Y435882D01*
X1142418Y436247D01*
X1141647Y436418D01*
D02*
G37*
G36*
X1030400Y410225D02*
X1029972Y410140D01*
X1029186Y409614D01*
X1028660Y408828D01*
X1028575Y408400D01*
X1030400D01*
Y410225D01*
D02*
G37*
G36*
X1031400D02*
Y408400D01*
X1033225D01*
X1033140Y408828D01*
X1032614Y409614D01*
X1031828Y410140D01*
X1031400Y410225D01*
D02*
G37*
G36*
X934181Y451237D02*
X933153Y451009D01*
X932219Y450523D01*
X931442Y449812D01*
X930876Y448923D01*
X930560Y447919D01*
X930514Y446867D01*
X930742Y445838D01*
X930827Y445675D01*
X912781Y427629D01*
X885923D01*
X865691Y447861D01*
X865734Y448079D01*
X865550Y449007D01*
X865024Y449793D01*
X864238Y450319D01*
X863310Y450504D01*
X862382Y450319D01*
X861596Y449793D01*
X861070Y449007D01*
X860886Y448079D01*
X861070Y447151D01*
X861596Y446365D01*
X862382Y445839D01*
X863310Y445654D01*
X863528Y445698D01*
X884208Y425019D01*
X884704Y424687D01*
X885289Y424571D01*
X913415D01*
X914000Y424687D01*
X914496Y425019D01*
X932988Y443511D01*
X933832Y443245D01*
X934884Y443199D01*
X935913Y443427D01*
X936847Y443913D01*
X937623Y444625D01*
X938189Y445513D01*
X938506Y446518D01*
X938552Y447570D01*
X938324Y448598D01*
X937838Y449532D01*
X937126Y450309D01*
X936238Y450875D01*
X935233Y451191D01*
X934181Y451237D01*
D02*
G37*
G36*
X1217665Y456277D02*
X1216625Y456231D01*
X1215632Y455919D01*
X1214754Y455359D01*
X1214051Y454592D01*
X1213571Y453669D01*
X1213345Y452653D01*
X1213391Y451613D01*
X1213704Y450620D01*
X1214263Y449743D01*
X1215030Y449039D01*
X1215953Y448559D01*
X1216969Y448334D01*
X1218009Y448379D01*
X1219002Y448692D01*
X1219880Y449251D01*
X1220583Y450018D01*
X1221063Y450942D01*
X1221289Y451958D01*
X1221243Y452997D01*
X1220930Y453990D01*
X1220371Y454868D01*
X1219604Y455571D01*
X1218681Y456052D01*
X1217665Y456277D01*
D02*
G37*
G36*
X1225023Y463310D02*
X1221654Y462716D01*
X1221815Y462205D01*
X1222375Y461327D01*
X1223142Y460624D01*
X1224065Y460143D01*
X1225081Y459918D01*
X1225617Y459941D01*
X1225023Y463310D01*
D02*
G37*
G36*
X1229377Y464078D02*
X1226008Y463484D01*
X1226602Y460115D01*
X1227114Y460276D01*
X1227991Y460836D01*
X1228695Y461603D01*
X1229175Y462526D01*
X1229400Y463542D01*
X1229377Y464078D01*
D02*
G37*
G36*
X1224255Y467664D02*
X1223744Y467503D01*
X1222866Y466944D01*
X1222163Y466177D01*
X1221682Y465253D01*
X1221457Y464237D01*
X1221480Y463701D01*
X1224849Y464295D01*
X1224255Y467664D01*
D02*
G37*
G36*
X922710Y467620D02*
X921681Y467392D01*
X920747Y466906D01*
X919971Y466194D01*
X919405Y465306D01*
X919088Y464302D01*
X919042Y463250D01*
X919270Y462221D01*
X919756Y461287D01*
X920468Y460511D01*
X921356Y459945D01*
X922361Y459628D01*
X923413Y459582D01*
X924441Y459810D01*
X925375Y460296D01*
X926152Y461008D01*
X926718Y461896D01*
X927034Y462901D01*
X927080Y463953D01*
X926852Y464981D01*
X926366Y465915D01*
X925655Y466692D01*
X924766Y467258D01*
X923762Y467574D01*
X922710Y467620D01*
D02*
G37*
G36*
X1230371Y458621D02*
X1222586Y457248D01*
X1223959Y449463D01*
X1231744Y450835D01*
X1230371Y458621D01*
D02*
G37*
G36*
X928445Y459429D02*
X927417Y459201D01*
X926483Y458715D01*
X925706Y458003D01*
X925140Y457115D01*
X924824Y456110D01*
X924778Y455058D01*
X925006Y454030D01*
X925492Y453096D01*
X926204Y452319D01*
X927092Y451753D01*
X928096Y451436D01*
X929149Y451391D01*
X930177Y451618D01*
X931111Y452105D01*
X931888Y452816D01*
X932454Y453705D01*
X932770Y454709D01*
X932816Y455761D01*
X932588Y456790D01*
X932102Y457724D01*
X931390Y458500D01*
X930502Y459066D01*
X929498Y459383D01*
X928445Y459429D01*
D02*
G37*
G36*
X1215928Y466125D02*
X1214888Y466080D01*
X1213896Y465767D01*
X1213018Y465207D01*
X1212315Y464440D01*
X1211834Y463517D01*
X1211609Y462501D01*
X1211654Y461461D01*
X1211967Y460468D01*
X1212526Y459590D01*
X1213294Y458887D01*
X1214217Y458407D01*
X1215233Y458182D01*
X1216273Y458227D01*
X1217266Y458540D01*
X1218143Y459099D01*
X1218846Y459867D01*
X1219327Y460790D01*
X1219552Y461806D01*
X1219507Y462846D01*
X1219194Y463838D01*
X1218635Y464716D01*
X1217867Y465419D01*
X1216944Y465900D01*
X1215928Y466125D01*
D02*
G37*
G36*
X786832Y496915D02*
X785782Y496869D01*
X784780Y496553D01*
X783893Y495988D01*
X783183Y495213D01*
X782697Y494281D01*
X782470Y493255D01*
X782516Y492205D01*
X782832Y491202D01*
X783397Y490316D01*
X784172Y489605D01*
X785104Y489120D01*
X786130Y488893D01*
X787180Y488938D01*
X788183Y489255D01*
X789069Y489819D01*
X789780Y490594D01*
X790265Y491527D01*
X790492Y492553D01*
X790447Y493603D01*
X790131Y494605D01*
X789566Y495492D01*
X788791Y496202D01*
X787858Y496688D01*
X786832Y496915D01*
D02*
G37*
G36*
X1201776Y516181D02*
X1200736Y516136D01*
X1199744Y515823D01*
X1198866Y515263D01*
X1198163Y514496D01*
X1197682Y513573D01*
X1197457Y512557D01*
X1197502Y511517D01*
X1197815Y510524D01*
X1198374Y509647D01*
X1199142Y508943D01*
X1200065Y508463D01*
X1201081Y508238D01*
X1202121Y508283D01*
X1203113Y508596D01*
X1203991Y509155D01*
X1204694Y509923D01*
X1205175Y510846D01*
X1205400Y511862D01*
X1205355Y512902D01*
X1205042Y513894D01*
X1204483Y514772D01*
X1203715Y515475D01*
X1202792Y515956D01*
X1201776Y516181D01*
D02*
G37*
G36*
X779773Y512053D02*
X778723Y512008D01*
X777720Y511691D01*
X776834Y511127D01*
X776124Y510352D01*
X775871Y509867D01*
X779123Y508683D01*
X780307Y511935D01*
X779773Y512053D01*
D02*
G37*
G36*
X997789Y511831D02*
X997361Y511746D01*
X996574Y511220D01*
X996049Y510433D01*
X995866Y509512D01*
X995064Y509672D01*
X994136Y509487D01*
X993349Y508962D01*
X992824Y508175D01*
X992639Y507247D01*
X992824Y506320D01*
X993349Y505533D01*
X994136Y505007D01*
X995064Y504823D01*
X995992Y505007D01*
X996778Y505533D01*
X997304Y506320D01*
X997487Y507240D01*
X997789Y507181D01*
Y509506D01*
Y511831D01*
D02*
G37*
G36*
X1113359Y513537D02*
X1112570Y513503D01*
X1111817Y513265D01*
X1111151Y512841D01*
X1110617Y512258D01*
X1110252Y511557D01*
X1110081Y510786D01*
X1110116Y509997D01*
X1110353Y509244D01*
X1110778Y508578D01*
X1111360Y508044D01*
X1112061Y507679D01*
X1112832Y507508D01*
X1113621Y507543D01*
X1114374Y507780D01*
X1115041Y508205D01*
X1115574Y508787D01*
X1115939Y509488D01*
X1116110Y510259D01*
X1116076Y511048D01*
X1115838Y511801D01*
X1115414Y512468D01*
X1114831Y513001D01*
X1114130Y513366D01*
X1113359Y513537D01*
D02*
G37*
G36*
X775529Y508927D02*
X775411Y508393D01*
X775457Y507343D01*
X775773Y506340D01*
X776337Y505454D01*
X777112Y504744D01*
X777598Y504491D01*
X778781Y507743D01*
X775529Y508927D01*
D02*
G37*
G36*
X1102701Y513072D02*
X1101912Y513038D01*
X1101159Y512800D01*
X1100492Y512376D01*
X1099959Y511793D01*
X1099594Y511093D01*
X1099423Y510322D01*
X1099458Y509532D01*
X1099695Y508779D01*
X1100119Y508113D01*
X1100702Y507579D01*
X1101403Y507214D01*
X1102174Y507043D01*
X1102963Y507078D01*
X1103716Y507315D01*
X1104383Y507740D01*
X1104916Y508322D01*
X1105281Y509023D01*
X1105452Y509794D01*
X1105417Y510583D01*
X1105180Y511337D01*
X1104755Y512003D01*
X1104173Y512536D01*
X1103472Y512901D01*
X1102701Y513072D01*
D02*
G37*
G36*
X781247Y511593D02*
X780063Y508341D01*
X783315Y507157D01*
X783433Y507691D01*
X783387Y508741D01*
X783071Y509744D01*
X782507Y510630D01*
X781732Y511341D01*
X781247Y511593D01*
D02*
G37*
G36*
X960387Y518418D02*
X959359Y518190D01*
X958425Y517704D01*
X957648Y516992D01*
X957082Y516104D01*
X956766Y515099D01*
X956720Y514047D01*
X956948Y513019D01*
X957434Y512085D01*
X958146Y511308D01*
X959034Y510742D01*
X960038Y510426D01*
X961090Y510380D01*
X962119Y510608D01*
X963053Y511094D01*
X963829Y511805D01*
X964395Y512694D01*
X964712Y513698D01*
X964758Y514750D01*
X964530Y515779D01*
X964044Y516713D01*
X963332Y517489D01*
X962444Y518055D01*
X961439Y518372D01*
X960387Y518418D01*
D02*
G37*
G36*
X1197550Y525244D02*
X1196510Y525199D01*
X1195518Y524886D01*
X1194640Y524327D01*
X1193937Y523559D01*
X1193456Y522636D01*
X1193231Y521620D01*
X1193276Y520580D01*
X1193589Y519587D01*
X1194148Y518710D01*
X1194916Y518007D01*
X1195839Y517526D01*
X1196855Y517301D01*
X1197895Y517346D01*
X1198887Y517659D01*
X1199765Y518218D01*
X1200468Y518986D01*
X1200949Y519909D01*
X1201174Y520925D01*
X1201129Y521965D01*
X1200816Y522957D01*
X1200257Y523835D01*
X1199489Y524538D01*
X1198566Y525019D01*
X1197550Y525244D01*
D02*
G37*
G36*
X1115668Y523952D02*
X1114879Y523918D01*
X1114125Y523680D01*
X1113459Y523256D01*
X1112925Y522674D01*
X1112561Y521973D01*
X1112390Y521202D01*
X1112424Y520413D01*
X1112662Y519659D01*
X1113086Y518993D01*
X1113669Y518459D01*
X1114369Y518095D01*
X1115140Y517924D01*
X1115930Y517958D01*
X1116683Y518196D01*
X1117349Y518620D01*
X1117883Y519203D01*
X1118248Y519903D01*
X1118419Y520674D01*
X1118384Y521463D01*
X1118147Y522217D01*
X1117722Y522883D01*
X1117140Y523417D01*
X1116439Y523781D01*
X1115668Y523952D01*
D02*
G37*
G36*
X954651Y526610D02*
X953623Y526381D01*
X952689Y525895D01*
X951912Y525184D01*
X951346Y524295D01*
X951030Y523291D01*
X950984Y522239D01*
X951212Y521210D01*
X951698Y520276D01*
X952410Y519500D01*
X953298Y518934D01*
X954302Y518617D01*
X955355Y518571D01*
X956383Y518799D01*
X957317Y519285D01*
X958094Y519997D01*
X958660Y520885D01*
X958976Y521890D01*
X959022Y522942D01*
X958794Y523970D01*
X958308Y524904D01*
X957596Y525681D01*
X956708Y526247D01*
X955704Y526564D01*
X954651Y526610D01*
D02*
G37*
G36*
X783813Y523152D02*
X782762Y523106D01*
X781760Y522790D01*
X780873Y522225D01*
X780163Y521450D01*
X779678Y520518D01*
X779450Y519492D01*
X779496Y518442D01*
X779812Y517439D01*
X780377Y516553D01*
X781152Y515842D01*
X782085Y515357D01*
X783111Y515130D01*
X784161Y515175D01*
X785163Y515492D01*
X786050Y516056D01*
X786760Y516831D01*
X787245Y517764D01*
X787473Y518790D01*
X787427Y519840D01*
X787111Y520843D01*
X786546Y521729D01*
X785771Y522439D01*
X784839Y522925D01*
X783813Y523152D01*
D02*
G37*
G36*
X794911Y519112D02*
X793861Y519067D01*
X792859Y518751D01*
X791972Y518186D01*
X791262Y517411D01*
X790777Y516478D01*
X790549Y515452D01*
X790595Y514402D01*
X790911Y513400D01*
X791476Y512513D01*
X792251Y511803D01*
X793183Y511317D01*
X794209Y511090D01*
X795260Y511136D01*
X796262Y511452D01*
X797149Y512017D01*
X797859Y512792D01*
X798344Y513724D01*
X798572Y514750D01*
X798526Y515801D01*
X798210Y516803D01*
X797645Y517690D01*
X796870Y518400D01*
X795938Y518885D01*
X794911Y519112D01*
D02*
G37*
G36*
X1212403Y521688D02*
X1205239Y518347D01*
X1208580Y511183D01*
X1215744Y514524D01*
X1212403Y521688D01*
D02*
G37*
G36*
X1004807Y516351D02*
X1003879Y516167D01*
X1003092Y515641D01*
X1002567Y514855D01*
X1002383Y513934D01*
X1001582Y514093D01*
X1000654Y513909D01*
X999867Y513383D01*
X999342Y512597D01*
X999243Y512101D01*
X998827Y511823D01*
X998789Y511831D01*
Y509506D01*
Y507181D01*
X999217Y507266D01*
X1000003Y507791D01*
X1000529Y508578D01*
X1000627Y509073D01*
X1001043Y509351D01*
X1001582Y509244D01*
X1002509Y509429D01*
X1003296Y509954D01*
X1003822Y510741D01*
X1004005Y511662D01*
X1004807Y511502D01*
X1005734Y511687D01*
X1006521Y512212D01*
X1007047Y512999D01*
X1007231Y513927D01*
X1007047Y514855D01*
X1006521Y515641D01*
X1005734Y516167D01*
X1004807Y516351D01*
D02*
G37*
G36*
X775681Y496303D02*
X774498Y493050D01*
X775032Y492932D01*
X776082Y492978D01*
X777084Y493294D01*
X777971Y493859D01*
X778681Y494634D01*
X778933Y495119D01*
X775681Y496303D01*
D02*
G37*
G36*
X771490Y497828D02*
X771371Y497294D01*
X771417Y496244D01*
X771733Y495242D01*
X772298Y494355D01*
X773073Y493645D01*
X773558Y493393D01*
X774742Y496645D01*
X771490Y497828D01*
D02*
G37*
G36*
X971859Y502035D02*
X970830Y501807D01*
X969896Y501321D01*
X969120Y500609D01*
X968554Y499721D01*
X968237Y498716D01*
X968191Y497664D01*
X968419Y496636D01*
X968905Y495702D01*
X969617Y494925D01*
X970505Y494359D01*
X971510Y494043D01*
X972562Y493997D01*
X973590Y494225D01*
X974524Y494711D01*
X975301Y495422D01*
X975867Y496311D01*
X976184Y497315D01*
X976229Y498367D01*
X976001Y499396D01*
X975515Y500330D01*
X974804Y501106D01*
X973915Y501672D01*
X972911Y501989D01*
X971859Y502035D01*
D02*
G37*
G36*
X1041581Y496400D02*
X1036931D01*
X1037016Y495972D01*
X1037541Y495186D01*
X1038065Y494836D01*
X1038073Y494240D01*
X1037586Y493914D01*
X1037060Y493128D01*
X1036975Y492700D01*
X1041625D01*
X1041540Y493128D01*
X1041014Y493914D01*
X1040491Y494264D01*
X1040483Y494860D01*
X1040970Y495186D01*
X1041496Y495972D01*
X1041581Y496400D01*
D02*
G37*
G36*
X1038800Y491700D02*
X1036975D01*
X1037060Y491272D01*
X1037586Y490486D01*
X1038372Y489960D01*
X1038800Y489875D01*
Y491700D01*
D02*
G37*
G36*
X1041625D02*
X1039800D01*
Y489875D01*
X1040228Y489960D01*
X1041014Y490486D01*
X1041540Y491272D01*
X1041625Y491700D01*
D02*
G37*
G36*
X901100Y501938D02*
X894547Y497350D01*
X899136Y490796D01*
X905689Y495385D01*
X901100Y501938D01*
D02*
G37*
G36*
X777207Y500494D02*
X776023Y497242D01*
X779275Y496059D01*
X779394Y496593D01*
X779348Y497643D01*
X779032Y498645D01*
X778467Y499532D01*
X777692Y500242D01*
X777207Y500494D01*
D02*
G37*
G36*
X790872Y508014D02*
X789822Y507968D01*
X788819Y507652D01*
X787932Y507087D01*
X787222Y506312D01*
X786737Y505380D01*
X786510Y504354D01*
X786555Y503303D01*
X786871Y502301D01*
X787436Y501414D01*
X788211Y500704D01*
X789144Y500219D01*
X790170Y499991D01*
X791220Y500037D01*
X792222Y500353D01*
X793109Y500918D01*
X793819Y501693D01*
X794305Y502625D01*
X794532Y503652D01*
X794486Y504702D01*
X794170Y505704D01*
X793605Y506591D01*
X792830Y507301D01*
X791898Y507786D01*
X790872Y508014D01*
D02*
G37*
G36*
X966123Y510226D02*
X965095Y509999D01*
X964160Y509512D01*
X963384Y508801D01*
X962818Y507912D01*
X962501Y506908D01*
X962455Y505856D01*
X962683Y504827D01*
X963170Y503893D01*
X963881Y503117D01*
X964769Y502551D01*
X965774Y502234D01*
X966826Y502188D01*
X967854Y502416D01*
X968789Y502902D01*
X969565Y503614D01*
X970131Y504502D01*
X970448Y505507D01*
X970494Y506559D01*
X970266Y507587D01*
X969779Y508521D01*
X969068Y509298D01*
X968180Y509864D01*
X967175Y510181D01*
X966123Y510226D01*
D02*
G37*
G36*
X779721Y507401D02*
X778537Y504149D01*
X779071Y504031D01*
X780121Y504077D01*
X781124Y504393D01*
X782010Y504958D01*
X782720Y505733D01*
X782973Y506218D01*
X779721Y507401D01*
D02*
G37*
G36*
X880400Y504824D02*
X879472Y504640D01*
X878686Y504114D01*
X878160Y503328D01*
X877975Y502400D01*
X878160Y501472D01*
X878686Y500686D01*
X879472Y500160D01*
X880400Y499975D01*
X881328Y500160D01*
X882114Y500686D01*
X882640Y501472D01*
X882825Y502400D01*
X882640Y503328D01*
X882114Y504114D01*
X881328Y504640D01*
X880400Y504824D01*
D02*
G37*
G36*
X1038756Y499225D02*
X1038328Y499140D01*
X1037541Y498614D01*
X1037016Y497828D01*
X1036931Y497400D01*
X1038756D01*
Y499225D01*
D02*
G37*
G36*
X1039756D02*
Y497400D01*
X1041581D01*
X1041496Y497828D01*
X1040970Y498614D01*
X1040184Y499140D01*
X1039756Y499225D01*
D02*
G37*
G36*
X775733Y500955D02*
X774683Y500909D01*
X773681Y500593D01*
X772794Y500028D01*
X772084Y499253D01*
X771832Y498768D01*
X775084Y497584D01*
X776267Y500836D01*
X775733Y500955D01*
D02*
G37*
%LPD*%
D10*
X900400Y207245D02*
X903304Y204341D01*
X900400Y207245D02*
Y256400D01*
X833016Y296384D02*
Y323784D01*
X900400Y256400D01*
X749218Y413040D02*
X774989Y438811D01*
X775400Y381400D02*
X833016Y323784D01*
X775400Y381400D02*
Y451400D01*
X839136Y548980D02*
X889782Y476649D01*
X917325Y471793D01*
X917651Y552973D02*
X927900Y611100D01*
X917651Y552973D02*
X924212Y543603D01*
X913192Y481106D02*
X924212Y543603D01*
X911387Y479842D02*
X913192Y481106D01*
X856500Y449361D02*
X860450Y453311D01*
X856500Y440100D02*
Y449361D01*
Y440100D02*
X880300Y416300D01*
X918349D01*
X983682Y481633D01*
X863310Y448079D02*
X885289Y426100D01*
X913415D01*
X934533Y447218D01*
D90*
X1206266Y331501D02*
D03*
X1170638Y276053D02*
D03*
X1122702Y230815D02*
D03*
X1225429Y393110D02*
D03*
X1225429Y463890D02*
D03*
X1206266Y525498D02*
D03*
X1170638Y578947D02*
D03*
X1124975Y623810D02*
D03*
D92*
X752873Y393704D02*
D03*
X749400Y413400D02*
D03*
X762721Y395440D02*
D03*
X954188Y201059D02*
D03*
X925210Y208824D02*
D03*
X903304Y204341D02*
D03*
X922622Y199165D02*
D03*
X951600Y191400D02*
D03*
X983682Y481633D02*
D03*
X934533Y447218D02*
D03*
X917325Y471793D02*
D03*
X911590Y479984D02*
D03*
X833016Y296384D02*
D03*
D93*
X779422Y508042D02*
D03*
X775382Y496943D02*
D03*
D103*
X824407Y264949D02*
D03*
X807691Y281665D02*
D03*
X816049Y273307D02*
D03*
X832765Y256591D02*
D03*
D113*
X775400Y451400D02*
D03*
X839136Y548980D02*
D03*
X927900Y611100D02*
D03*
X863310Y448079D02*
D03*
X860450Y453311D02*
D03*
X1030900Y407900D02*
D03*
X998289Y509506D02*
D03*
X1039300Y492200D02*
D03*
X1039256Y496900D02*
D03*
X1028056Y574600D02*
D03*
X989975Y617225D02*
D03*
X909156Y538100D02*
D03*
M02*
