G04*
G04 #@! TF.GenerationSoftware,Altium Limited,CircuitStudio,1.5.2 (30)*
G04*
G04 Layer_Physical_Order=1*
G04 Layer_Color=11767835*
%FSLAX25Y25*%
%MOIN*%
G70*
G01*
G75*
%ADD10R,0.09000X0.02000*%
%ADD11C,0.01000*%
%ADD12C,0.01378*%
%ADD13C,0.04000*%
%ADD14C,0.01181*%
G36*
X304525Y402136D02*
D01*
X304525Y402136D01*
X311632Y402015D01*
X320108Y401580D01*
X320605Y401540D01*
X320605D01*
X321032Y401362D01*
X321036Y401359D01*
X321082Y401291D01*
X321084Y401285D01*
X321205Y400833D01*
X321198Y400777D01*
X321179Y400624D01*
X321179Y400623D01*
Y400623D01*
X321179Y400623D01*
X321183Y400593D01*
Y400593D01*
X321183Y400592D01*
Y400592D01*
X321208Y400405D01*
Y400405D01*
X321216Y400342D01*
D01*
X321278Y399869D01*
X321304Y399672D01*
X321672Y398785D01*
X322256Y398023D01*
X323018Y397439D01*
X323905Y397071D01*
X324857Y396946D01*
X325809Y397071D01*
X326696Y397439D01*
X327458Y398023D01*
X328043Y398785D01*
X328410Y399672D01*
X328429Y399816D01*
X328495Y400311D01*
X328495Y400311D01*
X328694Y400746D01*
X328750Y400784D01*
X329198Y400910D01*
X329674Y400870D01*
X334842Y400427D01*
X346392Y399040D01*
X357889Y397260D01*
X369318Y395088D01*
X380666Y392527D01*
X391920Y389580D01*
X399209Y387402D01*
X399210Y387401D01*
X399210Y387401D01*
X399216Y387400D01*
X399336Y387346D01*
X399658Y387155D01*
X399717Y387006D01*
X399739Y386948D01*
X399785Y386824D01*
X399697Y386407D01*
X399637Y385944D01*
X399573Y385460D01*
X399698Y384508D01*
X400066Y383621D01*
X400650Y382859D01*
X401412Y382275D01*
X402299Y381907D01*
X403251Y381782D01*
X404203Y381907D01*
X405091Y382275D01*
X405852Y382859D01*
X406437Y383621D01*
X406524Y383832D01*
X406711Y384283D01*
Y384283D01*
X406712Y384284D01*
X406792Y384399D01*
X406947Y384618D01*
X406991Y384677D01*
X407082Y384737D01*
X407544Y384743D01*
X407544Y384743D01*
X407550Y384741D01*
X432561Y375293D01*
D01*
X432561Y375293D01*
X432624Y375264D01*
X433027Y375073D01*
X433962Y374356D01*
X434756Y373321D01*
X435255Y372116D01*
X435425Y370823D01*
X435255Y369530D01*
X435161Y369305D01*
X434971Y368848D01*
Y368848D01*
X434772Y368390D01*
X423766Y343077D01*
X423558Y342662D01*
X423540Y342643D01*
D01*
X423330Y342198D01*
X422609Y341259D01*
X421575Y340465D01*
X420370Y339966D01*
X419077Y339795D01*
X417784Y339966D01*
X417547Y340064D01*
X417109Y340246D01*
X417109Y340246D01*
X417109Y340246D01*
X417109D01*
X417106Y340247D01*
X417105Y340248D01*
X416666Y340414D01*
X416661Y340415D01*
X396237Y348133D01*
D01*
X395880Y348426D01*
X395838Y348488D01*
X395838Y348504D01*
X395836Y348660D01*
X395842Y348963D01*
X395847Y348976D01*
X395935Y349188D01*
X395941Y349229D01*
X395969Y349443D01*
X396076Y350260D01*
Y350260D01*
X395935Y351332D01*
X395522Y352330D01*
X394864Y353188D01*
X394006Y353846D01*
X393008Y354259D01*
X391936Y354400D01*
X390864Y354259D01*
X389866Y353846D01*
X389008Y353188D01*
X388350Y352330D01*
X388181Y351921D01*
X388176Y351909D01*
X388142Y351828D01*
X387992Y351466D01*
X387992Y351466D01*
X387991Y351466D01*
X387990Y351467D01*
X387990Y351467D01*
X387990Y351466D01*
X387990Y351466D01*
X387990Y351465D01*
X387958Y351419D01*
X387811Y351216D01*
X387697Y351063D01*
X387661Y351038D01*
X387197Y351030D01*
X386730Y351176D01*
X385195Y351657D01*
X374784Y354513D01*
X364279Y356996D01*
X353691Y359102D01*
X343035Y360828D01*
X332325Y362174D01*
X326494Y362695D01*
X326190Y362722D01*
X325831Y362798D01*
X325775Y362817D01*
X325652Y362859D01*
X325422Y362982D01*
X325384Y363038D01*
X325289Y363364D01*
X325278Y363401D01*
X325278Y363499D01*
X325278Y363700D01*
Y363700D01*
Y363700D01*
X325278Y363701D01*
Y363701D01*
X325274Y363731D01*
X325274Y363733D01*
X325250Y363913D01*
X325241Y363982D01*
X325179Y364455D01*
X325153Y364652D01*
X324786Y365539D01*
X324201Y366301D01*
X323439Y366886D01*
X322552Y367253D01*
X321600Y367378D01*
X320648Y367253D01*
X319761Y366886D01*
X318999Y366301D01*
X318414Y365539D01*
X318047Y364652D01*
X318028Y364508D01*
X317986Y364188D01*
X317919Y363909D01*
X317820Y363676D01*
X317767Y363624D01*
X317622Y363481D01*
X317252Y363367D01*
Y363367D01*
X310793Y363714D01*
X304788Y363821D01*
X304568Y363825D01*
X304562Y363825D01*
X304087Y363857D01*
X304087Y363857D01*
X304087D01*
X303616Y363905D01*
X303007Y363985D01*
X301802Y364485D01*
X300767Y365279D01*
X299974Y366313D01*
X299475Y367518D01*
X299304Y368811D01*
X299315Y376011D01*
X300712D01*
X300759Y375950D01*
X301386Y375469D01*
X302115Y375167D01*
X302899Y375064D01*
X303682Y375167D01*
X304411Y375469D01*
X305038Y375950D01*
X305085Y376011D01*
X309898D01*
Y380011D01*
X309660D01*
X309490Y380511D01*
X309959Y380871D01*
X310440Y381498D01*
X310742Y382228D01*
X310780Y382511D01*
X304860D01*
X304897Y382228D01*
X305199Y381498D01*
X305680Y380871D01*
X306150Y380511D01*
X305980Y380011D01*
X305206D01*
X305038Y380229D01*
X304411Y380710D01*
X303682Y381012D01*
X302899Y381116D01*
X302115Y381012D01*
X301386Y380710D01*
X300759Y380229D01*
X300591Y380011D01*
X299675D01*
X299322Y380365D01*
X299330Y386011D01*
X300591D01*
X300759Y385792D01*
X301386Y385312D01*
X302115Y385009D01*
X302398Y384972D01*
Y387932D01*
Y390892D01*
X302115Y390855D01*
X301386Y390553D01*
X300759Y390072D01*
X300712Y390011D01*
X299690D01*
X299337Y390365D01*
X299347Y396941D01*
X299347Y396947D01*
X299377Y397423D01*
X299377Y397423D01*
X299377Y397423D01*
Y397423D01*
X299425Y397894D01*
X299505Y398504D01*
X300004Y399709D01*
X300798Y400743D01*
X301833Y401537D01*
X303038Y402036D01*
X304038Y402168D01*
X304525Y402136D01*
D02*
G37*
%LPC*%
G36*
X392344Y368157D02*
X392334Y367995D01*
X392550Y367359D01*
X392993Y366853D01*
X393138Y366782D01*
X393429Y367866D01*
X392344Y368157D01*
D02*
G37*
G36*
X399032Y368562D02*
X398741Y367478D01*
X399826Y367187D01*
X399836Y367349D01*
X399621Y367985D01*
X399177Y368491D01*
X399032Y368562D01*
D02*
G37*
G36*
X391403Y379507D02*
X390782Y379383D01*
X390256Y379032D01*
X389904Y378506D01*
X389837Y378164D01*
X386125Y370583D01*
X386104Y370504D01*
X386061Y370433D01*
X386028Y370218D01*
X385972Y370006D01*
X385983Y369925D01*
X385971Y369844D01*
X386228Y363986D01*
Y363986D01*
X386236Y363821D01*
X386252Y363755D01*
X386247Y363688D01*
X386322Y363468D01*
X386378Y363241D01*
X386417Y363187D01*
X386439Y363123D01*
X386593Y362948D01*
X386731Y362760D01*
X386788Y362725D01*
X386832Y362675D01*
X387042Y362572D01*
X387241Y362451D01*
X387307Y362440D01*
X387368Y362411D01*
X387414Y362398D01*
X387414D01*
X387414Y362398D01*
X394546Y360487D01*
X394749Y360352D01*
X395369Y360228D01*
X395990Y360352D01*
X396516Y360703D01*
X396867Y361229D01*
X396991Y361850D01*
X396867Y362471D01*
X396516Y362997D01*
X395990Y363348D01*
X395369Y363472D01*
X395287Y363456D01*
X389242Y365075D01*
X389143Y367316D01*
X389630Y367644D01*
X390178Y367608D01*
X390814Y367824D01*
X391320Y368267D01*
X391391Y368412D01*
X389824Y368832D01*
X389953Y369315D01*
X389471Y369444D01*
X389983Y371355D01*
X389943Y371425D01*
X392542Y376733D01*
X392549Y376739D01*
X392901Y377265D01*
X393024Y377885D01*
X392901Y378506D01*
X392549Y379032D01*
X392023Y379383D01*
X391403Y379507D01*
D02*
G37*
G36*
X398483Y366512D02*
X398192Y365428D01*
X398354Y365417D01*
X398990Y365633D01*
X399495Y366076D01*
X399567Y366221D01*
X398483Y366512D01*
D02*
G37*
G36*
X396432Y367061D02*
X396422Y366900D01*
X396638Y366263D01*
X397081Y365758D01*
X397226Y365686D01*
X397517Y366771D01*
X396432Y367061D01*
D02*
G37*
G36*
X394395Y367607D02*
X394104Y366523D01*
X394266Y366512D01*
X394902Y366728D01*
X395408Y367171D01*
X395479Y367317D01*
X394395Y367607D01*
D02*
G37*
G36*
X390856Y370753D02*
X390566Y369669D01*
X391650Y369378D01*
X391661Y369540D01*
X391445Y370176D01*
X391002Y370681D01*
X390856Y370753D01*
D02*
G37*
G36*
X303398Y390892D02*
Y387932D01*
Y384972D01*
X303682Y385009D01*
X304411Y385312D01*
X305038Y385792D01*
X305206Y386011D01*
X305980D01*
X306150Y385511D01*
X305680Y385151D01*
X305199Y384524D01*
X304897Y383794D01*
X304860Y383511D01*
X310780D01*
X310742Y383794D01*
X310440Y384524D01*
X309959Y385151D01*
X309490Y385511D01*
X309660Y386011D01*
X309898D01*
Y387511D01*
X304398D01*
Y388511D01*
X309898D01*
Y390011D01*
X305085D01*
X305038Y390072D01*
X304411Y390553D01*
X303682Y390855D01*
X303398Y390892D01*
D02*
G37*
G36*
X357323Y394489D02*
X357310Y394485D01*
X357297Y394486D01*
X319726Y390461D01*
X319453Y390515D01*
X318833Y390392D01*
X318307Y390040D01*
X317955Y389514D01*
X317832Y388894D01*
X317955Y388273D01*
X318307Y387747D01*
X318833Y387395D01*
X319453Y387272D01*
X320074Y387395D01*
X320121Y387427D01*
X338609Y389408D01*
X338947Y389039D01*
X338921Y388911D01*
X339035Y388341D01*
X339014Y388236D01*
Y373878D01*
X338921Y373414D01*
X339045Y372793D01*
X339396Y372267D01*
X339922Y371915D01*
X340543Y371792D01*
X341164Y371915D01*
X341690Y372267D01*
X342041Y372793D01*
X342165Y373414D01*
X342072Y373878D01*
Y388236D01*
X342051Y388341D01*
X342165Y388911D01*
X342092Y389278D01*
X342407Y389815D01*
X357307Y391411D01*
X408072Y375523D01*
X408744Y372071D01*
X408712Y371909D01*
X408836Y371289D01*
X409187Y370762D01*
X409713Y370411D01*
X410334Y370287D01*
X410955Y370411D01*
X411481Y370762D01*
X411832Y371289D01*
X411956Y371909D01*
X411832Y372530D01*
X411746Y372659D01*
X410900Y377003D01*
X410816Y377208D01*
X410754Y377420D01*
X410704Y377482D01*
X410674Y377555D01*
X410518Y377712D01*
X410379Y377885D01*
X410309Y377923D01*
X410253Y377979D01*
X410049Y378064D01*
X409855Y378170D01*
X357917Y394425D01*
X357903Y394426D01*
X357891Y394433D01*
X357607Y394458D01*
X357323Y394489D01*
D02*
G37*
G36*
X397904Y368832D02*
X397268Y368616D01*
X396763Y368173D01*
X396691Y368027D01*
X397776Y367737D01*
X398066Y368821D01*
X397904Y368832D01*
D02*
G37*
G36*
X394944Y369658D02*
X394654Y368573D01*
X395738Y368283D01*
X395749Y368444D01*
X395533Y369081D01*
X395090Y369586D01*
X394944Y369658D01*
D02*
G37*
G36*
X393816Y369927D02*
X393180Y369711D01*
X392675Y369268D01*
X392603Y369123D01*
X393688Y368832D01*
X393978Y369916D01*
X393816Y369927D01*
D02*
G37*
%LPD*%
D10*
X304398Y378011D02*
D03*
Y388011D02*
D03*
D11*
X387809Y363876D02*
X395369Y361850D01*
X409399Y376711D02*
X410334Y371909D01*
X387756Y364054D02*
X387764Y363888D01*
X387498Y369911D02*
X387756Y364054D01*
X387764Y363888D02*
X387809Y363876D01*
X387498Y369911D02*
X391403Y377885D01*
X357460Y392966D02*
X409399Y376711D01*
X319453Y388894D02*
X357460Y392966D01*
X340543Y373414D02*
Y388236D01*
D12*
X389953Y369315D02*
D03*
X394041Y368220D02*
D03*
X398129Y367124D02*
D03*
D13*
X302899Y378090D02*
D03*
X307820Y383011D02*
D03*
X302899Y387932D02*
D03*
D14*
X395369Y361850D02*
D03*
X410334Y371909D02*
D03*
X319453Y388894D02*
D03*
X387858Y364058D02*
D03*
X391403Y377885D02*
D03*
X340543Y373414D02*
D03*
Y388911D02*
D03*
M02*
