G04*
G04 #@! TF.GenerationSoftware,Altium Limited,CircuitStudio,1.5.2 (30)*
G04*
G04 Layer_Color=8150272*
%FSLAX25Y25*%
%MOIN*%
G70*
G01*
G75*
%ADD33R,0.09800X0.02800*%
%ADD34C,0.02178*%
%ADD35C,0.04800*%
%ADD36C,0.01981*%
%ADD37R,0.03162X0.02769*%
%ADD38R,0.02769X0.03162*%
G04:AMPARAMS|DCode=39|XSize=27.69mil|YSize=31.62mil|CornerRadius=0mil|HoleSize=0mil|Usage=FLASHONLY|Rotation=75.000|XOffset=0mil|YOffset=0mil|HoleType=Round|Shape=Rectangle|*
%AMROTATEDRECTD39*
4,1,4,0.01169,-0.01746,-0.01886,-0.00928,-0.01169,0.01746,0.01886,0.00928,0.01169,-0.01746,0.0*
%
%ADD39ROTATEDRECTD39*%

%ADD40R,0.04343X0.03950*%
%ADD41R,0.03950X0.04343*%
%ADD42R,0.03556X0.04343*%
G04:AMPARAMS|DCode=43|XSize=27.69mil|YSize=17.84mil|CornerRadius=5.23mil|HoleSize=0mil|Usage=FLASHONLY|Rotation=255.000|XOffset=0mil|YOffset=0mil|HoleType=Round|Shape=RoundedRectangle|*
%AMROUNDEDRECTD43*
21,1,0.02769,0.00738,0,0,255.0*
21,1,0.01723,0.01784,0,0,255.0*
1,1,0.01046,-0.00579,-0.00737*
1,1,0.01046,-0.00134,0.00928*
1,1,0.01046,0.00579,0.00737*
1,1,0.01046,0.00134,-0.00928*
%
%ADD43ROUNDEDRECTD43*%
G04:AMPARAMS|DCode=44|XSize=47.37mil|YSize=112.33mil|CornerRadius=0mil|HoleSize=0mil|Usage=FLASHONLY|Rotation=255.000|XOffset=0mil|YOffset=0mil|HoleType=Round|Shape=Rectangle|*
%AMROTATEDRECTD44*
4,1,4,-0.04812,0.03741,0.06038,0.00834,0.04812,-0.03741,-0.06038,-0.00834,-0.04812,0.03741,0.0*
%
%ADD44ROTATEDRECTD44*%

G04:AMPARAMS|DCode=45|XSize=43.43mil|YSize=39.5mil|CornerRadius=0mil|HoleSize=0mil|Usage=FLASHONLY|Rotation=345.000|XOffset=0mil|YOffset=0mil|HoleType=Round|Shape=Rectangle|*
%AMROTATEDRECTD45*
4,1,4,-0.02609,-0.01345,-0.01587,0.02470,0.02609,0.01345,0.01587,-0.02470,-0.02609,-0.01345,0.0*
%
%ADD45ROTATEDRECTD45*%

G04:AMPARAMS|DCode=46|XSize=27.69mil|YSize=31.62mil|CornerRadius=0mil|HoleSize=0mil|Usage=FLASHONLY|Rotation=345.000|XOffset=0mil|YOffset=0mil|HoleType=Round|Shape=Rectangle|*
%AMROTATEDRECTD46*
4,1,4,-0.01746,-0.01169,-0.00928,0.01886,0.01746,0.01169,0.00928,-0.01886,-0.01746,-0.01169,0.0*
%
%ADD46ROTATEDRECTD46*%

%ADD47P,0.07256X4X213.0*%
G04:AMPARAMS|DCode=48|XSize=52.88mil|YSize=52.88mil|CornerRadius=26.44mil|HoleSize=0mil|Usage=FLASHONLY|Rotation=348.000|XOffset=0mil|YOffset=0mil|HoleType=Round|Shape=RoundedRectangle|*
%AMROUNDEDRECTD48*
21,1,0.05288,0.00000,0,0,348.0*
21,1,0.00000,0.05288,0,0,348.0*
1,1,0.05288,0.00000,0.00000*
1,1,0.05288,0.00000,0.00000*
1,1,0.05288,0.00000,0.00000*
1,1,0.05288,0.00000,0.00000*
%
%ADD48ROUNDEDRECTD48*%
G04:AMPARAMS|DCode=49|XSize=31.62mil|YSize=69.02mil|CornerRadius=0mil|HoleSize=0mil|Usage=FLASHONLY|Rotation=67.000|XOffset=0mil|YOffset=0mil|HoleType=Round|Shape=Rectangle|*
%AMROTATEDRECTD49*
4,1,4,0.02559,-0.02804,-0.03794,-0.00107,-0.02559,0.02804,0.03794,0.00107,0.02559,-0.02804,0.0*
%
%ADD49ROTATEDRECTD49*%

G04:AMPARAMS|DCode=50|XSize=55.24mil|YSize=78.87mil|CornerRadius=0mil|HoleSize=0mil|Usage=FLASHONLY|Rotation=67.000|XOffset=0mil|YOffset=0mil|HoleType=Round|Shape=Rectangle|*
%AMROTATEDRECTD50*
4,1,4,0.02551,-0.04083,-0.04709,-0.01002,-0.02551,0.04083,0.04709,0.01002,0.02551,-0.04083,0.0*
%
%ADD50ROTATEDRECTD50*%

G04:AMPARAMS|DCode=51|XSize=43.43mil|YSize=39.5mil|CornerRadius=0mil|HoleSize=0mil|Usage=FLASHONLY|Rotation=78.000|XOffset=0mil|YOffset=0mil|HoleType=Round|Shape=Rectangle|*
%AMROTATEDRECTD51*
4,1,4,0.01480,-0.02535,-0.02383,-0.01714,-0.01480,0.02535,0.02383,0.01714,0.01480,-0.02535,0.0*
%
%ADD51ROTATEDRECTD51*%

%ADD52R,0.04343X0.03556*%
%ADD53R,0.07178X0.02500*%
D33*
X304398Y383011D02*
D03*
D34*
X389953Y369315D02*
D03*
X394041Y368220D02*
D03*
X398129Y367124D02*
D03*
D35*
X302899Y378090D02*
D03*
X307820Y383011D02*
D03*
X302899Y387932D02*
D03*
D36*
X395369Y361850D02*
D03*
X410334Y371909D02*
D03*
X319453Y388894D02*
D03*
X387858Y364058D02*
D03*
X391403Y377885D02*
D03*
X340543Y373414D02*
D03*
Y388911D02*
D03*
D37*
X323867Y385911D02*
D03*
X319930D02*
D03*
D38*
X340543Y370479D02*
D03*
Y366542D02*
D03*
D39*
X401019Y375978D02*
D03*
X404821Y374959D02*
D03*
X393749Y358143D02*
D03*
X389946Y359162D02*
D03*
D40*
X311399Y372555D02*
D03*
Y378067D02*
D03*
X316898Y372555D02*
D03*
Y378067D02*
D03*
X351698Y376755D02*
D03*
Y382267D02*
D03*
D41*
X323851Y390011D02*
D03*
X329363D02*
D03*
X335031D02*
D03*
X340543D02*
D03*
D42*
X335251Y367011D02*
D03*
X329346D02*
D03*
X329346Y372011D02*
D03*
X335251D02*
D03*
D43*
X390256Y373106D02*
D03*
X392157Y372597D02*
D03*
X394059Y372087D02*
D03*
X395960Y371578D02*
D03*
X397862Y371068D02*
D03*
X399763Y370559D02*
D03*
X397827Y363334D02*
D03*
X395926Y363843D02*
D03*
X394024Y364352D02*
D03*
X392123Y364862D02*
D03*
X390221Y365371D02*
D03*
X388320Y365881D02*
D03*
D44*
X394041Y368220D02*
D03*
D45*
X383879Y383226D02*
D03*
X382453Y377903D02*
D03*
X380491Y370581D02*
D03*
X379064Y365257D02*
D03*
X406885Y364049D02*
D03*
X408312Y369373D02*
D03*
X404385Y354849D02*
D03*
X405812Y360173D02*
D03*
D46*
X402839Y365895D02*
D03*
X403858Y369698D02*
D03*
X396214Y380132D02*
D03*
X395195Y376329D02*
D03*
X384520Y367463D02*
D03*
X383501Y363661D02*
D03*
D47*
X360397Y384604D02*
D03*
X371180Y382312D02*
D03*
X368888Y371529D02*
D03*
X358105Y373821D02*
D03*
D48*
X364643Y378067D02*
D03*
D49*
X414499Y355611D02*
D03*
X416037Y359235D02*
D03*
X417576Y362860D02*
D03*
X419114Y366484D02*
D03*
D50*
X421650Y347015D02*
D03*
X430264Y367311D02*
D03*
D51*
X358303Y364084D02*
D03*
X363694Y362938D02*
D03*
X353094Y365338D02*
D03*
X347703Y366484D02*
D03*
D52*
X346698Y376558D02*
D03*
Y382464D02*
D03*
X351698Y386458D02*
D03*
Y392364D02*
D03*
D53*
X323851Y375508D02*
D03*
Y378067D02*
D03*
Y380627D02*
D03*
Y383186D02*
D03*
X340543D02*
D03*
Y380627D02*
D03*
Y378067D02*
D03*
Y375508D02*
D03*
M02*
