G04*
G04 #@! TF.GenerationSoftware,Altium Limited,CircuitStudio,1.5.2 (30)*
G04*
G04 Layer_Physical_Order=2*
G04 Layer_Color=12500520*
%FSLAX25Y25*%
%MOIN*%
G70*
G01*
G75*
%ADD10R,0.09000X0.02000*%
%ADD11C,0.01000*%
%ADD12C,0.01378*%
%ADD13C,0.04000*%
%ADD14C,0.01181*%
%ADD15R,0.02362X0.01969*%
%ADD16R,0.01969X0.02362*%
G04:AMPARAMS|DCode=17|XSize=19.69mil|YSize=23.62mil|CornerRadius=0mil|HoleSize=0mil|Usage=FLASHONLY|Rotation=75.000|XOffset=0mil|YOffset=0mil|HoleType=Round|Shape=Rectangle|*
%AMROTATEDRECTD17*
4,1,4,0.00886,-0.01256,-0.01396,-0.00645,-0.00886,0.01256,0.01396,0.00645,0.00886,-0.01256,0.0*
%
%ADD17ROTATEDRECTD17*%

%ADD18R,0.03543X0.03150*%
%ADD19R,0.03150X0.03543*%
%ADD20R,0.02756X0.03543*%
G04:AMPARAMS|DCode=21|XSize=19.69mil|YSize=9.84mil|CornerRadius=1.23mil|HoleSize=0mil|Usage=FLASHONLY|Rotation=255.000|XOffset=0mil|YOffset=0mil|HoleType=Round|Shape=RoundedRectangle|*
%AMROUNDEDRECTD21*
21,1,0.01969,0.00738,0,0,255.0*
21,1,0.01723,0.00984,0,0,255.0*
1,1,0.00246,-0.00579,-0.00737*
1,1,0.00246,-0.00134,0.00928*
1,1,0.00246,0.00579,0.00737*
1,1,0.00246,0.00134,-0.00928*
%
%ADD21ROUNDEDRECTD21*%
G04:AMPARAMS|DCode=22|XSize=39.37mil|YSize=104.33mil|CornerRadius=0mil|HoleSize=0mil|Usage=FLASHONLY|Rotation=255.000|XOffset=0mil|YOffset=0mil|HoleType=Round|Shape=Rectangle|*
%AMROTATEDRECTD22*
4,1,4,-0.04529,0.03252,0.05548,0.00551,0.04529,-0.03252,-0.05548,-0.00551,-0.04529,0.03252,0.0*
%
%ADD22ROTATEDRECTD22*%

G04:AMPARAMS|DCode=23|XSize=35.43mil|YSize=31.5mil|CornerRadius=0mil|HoleSize=0mil|Usage=FLASHONLY|Rotation=345.000|XOffset=0mil|YOffset=0mil|HoleType=Round|Shape=Rectangle|*
%AMROTATEDRECTD23*
4,1,4,-0.02119,-0.01063,-0.01304,0.01980,0.02119,0.01063,0.01304,-0.01980,-0.02119,-0.01063,0.0*
%
%ADD23ROTATEDRECTD23*%

G04:AMPARAMS|DCode=24|XSize=19.69mil|YSize=23.62mil|CornerRadius=0mil|HoleSize=0mil|Usage=FLASHONLY|Rotation=345.000|XOffset=0mil|YOffset=0mil|HoleType=Round|Shape=Rectangle|*
%AMROTATEDRECTD24*
4,1,4,-0.01256,-0.00886,-0.00645,0.01396,0.01256,0.00886,0.00645,-0.01396,-0.01256,-0.00886,0.0*
%
%ADD24ROTATEDRECTD24*%

%ADD25P,0.06125X4X213.0*%
G04:AMPARAMS|DCode=26|XSize=44.88mil|YSize=44.88mil|CornerRadius=22.44mil|HoleSize=0mil|Usage=FLASHONLY|Rotation=348.000|XOffset=0mil|YOffset=0mil|HoleType=Round|Shape=RoundedRectangle|*
%AMROUNDEDRECTD26*
21,1,0.04488,0.00000,0,0,348.0*
21,1,0.00000,0.04488,0,0,348.0*
1,1,0.04488,0.00000,0.00000*
1,1,0.04488,0.00000,0.00000*
1,1,0.04488,0.00000,0.00000*
1,1,0.04488,0.00000,0.00000*
%
%ADD26ROUNDEDRECTD26*%
G04:AMPARAMS|DCode=27|XSize=23.62mil|YSize=61.02mil|CornerRadius=0mil|HoleSize=0mil|Usage=FLASHONLY|Rotation=67.000|XOffset=0mil|YOffset=0mil|HoleType=Round|Shape=Rectangle|*
%AMROTATEDRECTD27*
4,1,4,0.02347,-0.02279,-0.03270,0.00105,-0.02347,0.02279,0.03270,-0.00105,0.02347,-0.02279,0.0*
%
%ADD27ROTATEDRECTD27*%

G04:AMPARAMS|DCode=28|XSize=47.24mil|YSize=70.87mil|CornerRadius=0mil|HoleSize=0mil|Usage=FLASHONLY|Rotation=67.000|XOffset=0mil|YOffset=0mil|HoleType=Round|Shape=Rectangle|*
%AMROTATEDRECTD28*
4,1,4,0.02339,-0.03559,-0.04185,-0.00790,-0.02339,0.03559,0.04185,0.00790,0.02339,-0.03559,0.0*
%
%ADD28ROTATEDRECTD28*%

G04:AMPARAMS|DCode=29|XSize=35.43mil|YSize=31.5mil|CornerRadius=0mil|HoleSize=0mil|Usage=FLASHONLY|Rotation=78.000|XOffset=0mil|YOffset=0mil|HoleType=Round|Shape=Rectangle|*
%AMROTATEDRECTD29*
4,1,4,0.01172,-0.02060,-0.01909,-0.01406,-0.01172,0.02060,0.01909,0.01406,0.01172,-0.02060,0.0*
%
%ADD29ROTATEDRECTD29*%

%ADD30R,0.03543X0.02756*%
%ADD31R,0.06378X0.01700*%
%ADD32C,0.00800*%
G36*
X388931Y374519D02*
X389017Y374330D01*
X388923Y373981D01*
X390385Y373589D01*
X390126Y372623D01*
X388664Y373015D01*
X388571Y372666D01*
X388541Y372220D01*
X388617Y371996D01*
X388166Y370312D01*
X394171Y368703D01*
X393912Y367737D01*
X387907Y369346D01*
X387456Y367661D01*
X387278Y367505D01*
X387081Y367105D01*
X386906Y366453D01*
X386822Y366282D01*
X386809Y366092D01*
X386635Y365441D01*
X386631Y365387D01*
X386496Y364881D01*
X386360Y364679D01*
X385975Y364586D01*
X385872Y364843D01*
X386307Y366467D01*
X384390Y366980D01*
X384520Y367463D01*
X384037Y367593D01*
X384601Y369700D01*
X383564Y369977D01*
X383314Y370410D01*
X383834Y372351D01*
X382976Y372581D01*
X382726Y373014D01*
X383263Y375020D01*
X384463Y374698D01*
X384718Y375648D01*
X388931Y374519D01*
D02*
G37*
G36*
X304525Y402136D02*
D01*
X304525Y402136D01*
X311632Y402015D01*
X320108Y401580D01*
X320605Y401540D01*
X320605D01*
X321032Y401362D01*
X321036Y401359D01*
X321082Y401291D01*
X321084Y401285D01*
X321205Y400833D01*
X321198Y400777D01*
X321179Y400624D01*
X321179Y400623D01*
Y400623D01*
X321179Y400623D01*
X321183Y400593D01*
Y400593D01*
X321183Y400592D01*
Y400592D01*
X321208Y400405D01*
Y400405D01*
X321216Y400342D01*
D01*
X321278Y399869D01*
X321304Y399672D01*
X321672Y398785D01*
X322256Y398023D01*
X323018Y397439D01*
X323905Y397071D01*
X324857Y396946D01*
X325809Y397071D01*
X326696Y397439D01*
X327458Y398023D01*
X328043Y398785D01*
X328410Y399672D01*
X328429Y399816D01*
X328495Y400311D01*
X328495Y400311D01*
X328694Y400746D01*
X328750Y400784D01*
X329198Y400910D01*
X329674Y400870D01*
X334842Y400427D01*
X346392Y399040D01*
X357889Y397260D01*
X369318Y395088D01*
X380666Y392527D01*
X391920Y389580D01*
X399209Y387402D01*
X399210Y387401D01*
X399210Y387401D01*
X399216Y387400D01*
X399336Y387346D01*
X399658Y387155D01*
X399717Y387006D01*
X399739Y386948D01*
X399785Y386824D01*
X399697Y386407D01*
X399637Y385944D01*
X399573Y385460D01*
X399698Y384508D01*
X400066Y383621D01*
X400650Y382859D01*
X401412Y382275D01*
X402299Y381907D01*
X403251Y381782D01*
X404203Y381907D01*
X405091Y382275D01*
X405852Y382859D01*
X406437Y383621D01*
X406524Y383832D01*
X406711Y384283D01*
Y384283D01*
X406712Y384284D01*
X406792Y384399D01*
X406947Y384618D01*
X406991Y384677D01*
X407082Y384737D01*
X407544Y384743D01*
X407544Y384743D01*
X407550Y384741D01*
X432561Y375293D01*
D01*
X432561Y375293D01*
X432624Y375264D01*
X433027Y375073D01*
X433962Y374356D01*
X434756Y373321D01*
X435255Y372116D01*
X435425Y370823D01*
X435255Y369530D01*
X435149Y369275D01*
X434686Y369086D01*
X427396Y372181D01*
X424768Y365991D01*
X432006Y362919D01*
X432191Y362455D01*
X426222Y348727D01*
X419882Y351418D01*
X419695Y351882D01*
X420994Y354943D01*
X421026Y355096D01*
X421155Y355408D01*
X421275Y356322D01*
X421155Y357236D01*
X420802Y358087D01*
X420254Y358802D01*
X420452Y359269D01*
X420452Y359269D01*
X422157Y363285D01*
X422157Y363285D01*
X422157Y363285D01*
X423695Y366909D01*
X416237Y370074D01*
X414533Y366059D01*
X414533Y366059D01*
X414533Y366059D01*
X413160Y362825D01*
X413160Y362825D01*
X411636Y359235D01*
X411456Y358810D01*
D01*
X411275Y358385D01*
X410965Y357654D01*
X414694Y356071D01*
X414499Y355611D01*
X414959Y355416D01*
X414107Y353408D01*
X416249Y352498D01*
X416436Y352035D01*
X413987Y346263D01*
X413780Y345828D01*
X413417Y345538D01*
X413365Y345517D01*
X413190Y345590D01*
X413181Y345571D01*
X400192Y351085D01*
X398799Y354532D01*
X399447Y356950D01*
X399486Y357545D01*
Y357545D01*
X399294Y358110D01*
X397745Y360793D01*
X398045Y361275D01*
X398110Y361271D01*
X398533Y361414D01*
X398661Y361527D01*
X402653Y360457D01*
X402903Y360024D01*
X402504Y358536D01*
X402468Y358403D01*
X402374Y358053D01*
X402339Y357920D01*
X401837Y356049D01*
X404515Y355332D01*
X407192Y354614D01*
X407693Y356486D01*
X407729Y356618D01*
X407823Y356968D01*
X407858Y357101D01*
X408863Y360853D01*
X408896Y360844D01*
X410193Y365686D01*
X410229Y365819D01*
Y365819D01*
X410323Y366168D01*
X410452Y366651D01*
X410907Y368349D01*
X411031Y368600D01*
X411697Y371086D01*
X411832Y371289D01*
X411956Y371909D01*
X411832Y372530D01*
X411481Y373056D01*
X410955Y373408D01*
X410334Y373531D01*
X409713Y373408D01*
X409187Y373056D01*
X408836Y372530D01*
X408788Y372289D01*
X408363Y372025D01*
X406432Y372542D01*
X406799Y373912D01*
X404692Y374476D01*
X404821Y374959D01*
X404339Y375089D01*
X404852Y377005D01*
X403678Y377320D01*
X403228Y377440D01*
X403228D01*
X402778Y377561D01*
X399425Y378459D01*
X399059Y377093D01*
X398228Y376612D01*
X397779Y376219D01*
X397689Y376036D01*
X397219Y376213D01*
X397676Y377922D01*
X397677D01*
X397676Y377922D01*
X398002Y379135D01*
X396085Y379649D01*
X394168Y380162D01*
X393810Y378825D01*
X392226Y379248D01*
X392023Y379383D01*
X391403Y379507D01*
X390782Y379383D01*
X390256Y379032D01*
X389904Y378506D01*
X389798Y377971D01*
X389589Y377706D01*
X389426Y377553D01*
X385851Y378511D01*
X385601Y378944D01*
X385760Y379539D01*
X385796Y379672D01*
X385890Y380022D01*
X385926Y380155D01*
X386427Y382026D01*
X383750Y382744D01*
X381072Y383461D01*
X380571Y381590D01*
X380536Y381457D01*
X380442Y381107D01*
X380406Y380974D01*
X379109Y376133D01*
X379967Y375903D01*
X380217Y375470D01*
X379680Y373464D01*
X378480Y373785D01*
X377147Y368811D01*
X377147Y368811D01*
X377053Y368461D01*
X377018Y368328D01*
Y368328D01*
X376506Y366417D01*
X371333Y367804D01*
X371881Y370382D01*
X368784Y371040D01*
X365688Y371698D01*
X365240Y369591D01*
X364818Y369323D01*
X360594Y370305D01*
X361097Y372674D01*
X358001Y373332D01*
X358209Y374310D01*
X361305Y373652D01*
X361741Y375700D01*
X362281Y375837D01*
X362453Y375635D01*
X363157Y375151D01*
X363962Y374866D01*
X364814Y374799D01*
X365654Y374955D01*
X365893Y375069D01*
X366331Y374724D01*
X365896Y372676D01*
X368503Y372122D01*
X369057Y374729D01*
X367010Y375165D01*
X366872Y375705D01*
X367074Y375877D01*
X367558Y376581D01*
X367843Y377386D01*
X367910Y378238D01*
X367754Y379078D01*
X367640Y379317D01*
X367985Y379755D01*
X370033Y379320D01*
X370587Y381927D01*
X367980Y382481D01*
X367545Y380434D01*
X367004Y380296D01*
X366832Y380498D01*
X366128Y380982D01*
X365323Y381267D01*
X364471Y381334D01*
X363632Y381179D01*
X363392Y381064D01*
X362954Y381410D01*
X363389Y383457D01*
X360782Y384011D01*
X360228Y381404D01*
X362276Y380969D01*
X362413Y380428D01*
X362211Y380256D01*
X361757Y379596D01*
X354930D01*
X354470Y379692D01*
Y380336D01*
X354528Y380627D01*
X354470Y380917D01*
Y384080D01*
Y388836D01*
X348927D01*
Y384841D01*
X344732D01*
Y385036D01*
X336354D01*
Y384642D01*
X336225Y384625D01*
X335410Y384287D01*
X334711Y383751D01*
X334175Y383052D01*
X333837Y382237D01*
X333723Y381371D01*
X333722Y381364D01*
Y374782D01*
X332873D01*
Y369782D01*
X332873D01*
Y364239D01*
X337629D01*
Y369239D01*
X337629D01*
Y373658D01*
X338721D01*
X338921Y373413D01*
X338972Y373160D01*
X338651Y372660D01*
X338559D01*
Y368298D01*
Y367042D01*
X342527D01*
Y368298D01*
Y370964D01*
X342919Y371275D01*
X370472Y364867D01*
X387236Y360375D01*
X387278Y360373D01*
X387612Y360329D01*
X387889Y359913D01*
X387630Y358944D01*
X387197Y358694D01*
X377384Y361324D01*
X377358Y361325D01*
X377335Y361336D01*
X366521Y363851D01*
X366789Y365114D01*
X361887Y366156D01*
X361752Y366184D01*
X361526Y366232D01*
X361398Y366260D01*
X361263Y366288D01*
X356361Y367330D01*
X356361Y367330D01*
X356189Y367514D01*
X356189Y367514D01*
X351287Y368556D01*
X351152Y368584D01*
X350956Y368626D01*
X350798Y368660D01*
X350663Y368688D01*
X348768Y369091D01*
X348192Y366380D01*
X347616Y363669D01*
X349510Y363266D01*
X349645Y363237D01*
X349841Y363196D01*
X349999Y363162D01*
X350134Y363133D01*
X355036Y362091D01*
X355036Y362091D01*
X355208Y361908D01*
X355208Y361908D01*
X360110Y360866D01*
X360245Y360837D01*
X360471Y360789D01*
X360599Y360762D01*
X360734Y360733D01*
X365636Y359691D01*
X365810Y360509D01*
X366232Y360777D01*
X376617Y358363D01*
X390490Y354645D01*
X390524Y354118D01*
X389866Y353846D01*
X389008Y353188D01*
X388350Y352330D01*
X388181Y351921D01*
X388176Y351909D01*
X388142Y351828D01*
X387992Y351466D01*
X387992Y351466D01*
X387991Y351466D01*
X387990Y351467D01*
X387990Y351467D01*
X387990Y351466D01*
X387990Y351466D01*
X387990Y351465D01*
X387958Y351419D01*
X387811Y351216D01*
X387697Y351063D01*
X387661Y351038D01*
X387197Y351030D01*
X386730Y351176D01*
X385195Y351657D01*
X374784Y354513D01*
X364279Y356996D01*
X353691Y359102D01*
X343035Y360828D01*
X332325Y362174D01*
X326494Y362695D01*
X326190Y362722D01*
X325831Y362798D01*
X325775Y362817D01*
X325652Y362859D01*
X325422Y362982D01*
X325384Y363038D01*
X325289Y363364D01*
X325278Y363401D01*
X325278Y363499D01*
X325278Y363700D01*
Y363700D01*
Y363700D01*
X325278Y363701D01*
Y363701D01*
X325274Y363731D01*
X325274Y363733D01*
X325250Y363913D01*
X325241Y363982D01*
X325179Y364455D01*
X325153Y364652D01*
X324786Y365539D01*
X324201Y366301D01*
X323439Y366886D01*
X322552Y367253D01*
X321600Y367378D01*
X320648Y367253D01*
X319761Y366886D01*
X318999Y366301D01*
X318414Y365539D01*
X318047Y364652D01*
X318028Y364508D01*
X317986Y364188D01*
X317919Y363909D01*
X317820Y363676D01*
X317767Y363624D01*
X317622Y363481D01*
X317252Y363367D01*
Y363367D01*
X310793Y363714D01*
X304788Y363821D01*
X304568Y363825D01*
X304562Y363825D01*
X304087Y363857D01*
X304087Y363857D01*
X304087D01*
X303616Y363905D01*
X303007Y363985D01*
X301802Y364485D01*
X300767Y365279D01*
X299974Y366313D01*
X299475Y367518D01*
X299304Y368811D01*
X299323Y381011D01*
X300956D01*
X301126Y380511D01*
X300759Y380229D01*
X300278Y379603D01*
X299976Y378873D01*
X299873Y378090D01*
X299976Y377306D01*
X300278Y376577D01*
X300759Y375950D01*
X301386Y375469D01*
X302115Y375167D01*
X302899Y375064D01*
X303682Y375167D01*
X304411Y375469D01*
X305038Y375950D01*
X305506Y376560D01*
X308627D01*
Y375492D01*
X308627D01*
Y375130D01*
X308627D01*
Y369980D01*
X319670D01*
Y371025D01*
X320898D01*
X321483Y371142D01*
X321980Y371474D01*
X324164Y373658D01*
X326968D01*
Y369782D01*
X326968D01*
Y367511D01*
X329346D01*
X331724D01*
Y369239D01*
X331724D01*
Y374782D01*
X330823D01*
X330821Y374793D01*
X330519Y375522D01*
X330039Y376148D01*
X329413Y376629D01*
X328684Y376931D01*
X328040Y377015D01*
Y378777D01*
Y380127D01*
X323851D01*
Y381127D01*
X328040D01*
Y381336D01*
Y385036D01*
X326048D01*
Y386839D01*
X326426Y387239D01*
X326607D01*
X326788D01*
X326926Y387239D01*
X328863D01*
Y390011D01*
Y392782D01*
X326926D01*
X326788Y392782D01*
X326607D01*
X326426D01*
X326288Y392782D01*
X321276D01*
Y390430D01*
X319908Y390425D01*
X319453Y390515D01*
X318833Y390392D01*
X318307Y390040D01*
X317955Y389514D01*
X317832Y388894D01*
X317955Y388273D01*
X318007Y388195D01*
X317749Y387695D01*
X317749D01*
X317749Y387695D01*
Y386211D01*
X319930D01*
Y385211D01*
X317749D01*
Y383727D01*
X319662D01*
Y381336D01*
Y380642D01*
X310413D01*
X310167Y381141D01*
X310440Y381498D01*
X310742Y382228D01*
X310780Y382511D01*
X307820D01*
Y383011D01*
X307320D01*
Y385971D01*
X307037Y385934D01*
X306307Y385631D01*
X305680Y385151D01*
X305573Y385011D01*
X304841D01*
X304671Y385511D01*
X305038Y385792D01*
X305519Y386419D01*
X305821Y387149D01*
X305859Y387432D01*
X299938D01*
X299976Y387149D01*
X300278Y386419D01*
X300759Y385792D01*
X301126Y385511D01*
X300956Y385011D01*
X299682D01*
X299329Y385365D01*
X299347Y396941D01*
X299347Y396947D01*
X299377Y397423D01*
X299377Y397423D01*
X299377Y397423D01*
Y397423D01*
X299425Y397894D01*
X299505Y398504D01*
X300004Y399709D01*
X300798Y400743D01*
X301833Y401537D01*
X303038Y402036D01*
X304038Y402168D01*
X304525Y402136D01*
D02*
G37*
%LPC*%
G36*
X385567Y369441D02*
X385132Y367817D01*
X386566Y367433D01*
X387001Y369057D01*
X385567Y369441D01*
D02*
G37*
G36*
X370035Y374521D02*
X369481Y371914D01*
X372088Y371360D01*
X372643Y373967D01*
X370035Y374521D01*
D02*
G37*
G36*
X405818Y376747D02*
X405434Y375313D01*
X407058Y374878D01*
X407442Y376311D01*
X405818Y376747D01*
D02*
G37*
G36*
X394862Y382752D02*
X394427Y381128D01*
X395861Y380744D01*
X396296Y382368D01*
X394862Y382752D01*
D02*
G37*
G36*
X357197Y384773D02*
X356643Y382166D01*
X359250Y381612D01*
X359804Y384219D01*
X357197Y384773D01*
D02*
G37*
G36*
X371565Y381719D02*
X371011Y379112D01*
X373618Y378558D01*
X374172Y381165D01*
X371565Y381719D01*
D02*
G37*
G36*
X397262Y382109D02*
X396827Y380485D01*
X398260Y380101D01*
X398695Y381725D01*
X397262Y382109D01*
D02*
G37*
G36*
X410574Y356733D02*
X409917Y355186D01*
X413186Y353799D01*
X413843Y355346D01*
X410574Y356733D01*
D02*
G37*
G36*
X345080Y366530D02*
X344608Y364308D01*
X346638Y363877D01*
X347110Y366099D01*
X345080Y366530D01*
D02*
G37*
G36*
X404739Y354237D02*
X404202Y352232D01*
X406396Y351644D01*
X406933Y353648D01*
X404739Y354237D01*
D02*
G37*
G36*
X401579Y355083D02*
X401042Y353079D01*
X403236Y352491D01*
X403773Y354495D01*
X401579Y355083D01*
D02*
G37*
G36*
X328846Y366511D02*
X326968D01*
Y364239D01*
X328846D01*
Y366511D01*
D02*
G37*
G36*
X342527Y366042D02*
X341043D01*
Y364361D01*
X342527D01*
Y366042D01*
D02*
G37*
G36*
X345761Y369730D02*
X345288Y367508D01*
X347318Y367077D01*
X347790Y369299D01*
X345761Y369730D01*
D02*
G37*
G36*
X331724Y366511D02*
X329846D01*
Y364239D01*
X331724D01*
Y366511D01*
D02*
G37*
G36*
X340043Y366042D02*
X338559D01*
Y364361D01*
X340043D01*
Y366042D01*
D02*
G37*
G36*
X351199Y391864D02*
X348927D01*
Y389986D01*
X351199D01*
Y391864D01*
D02*
G37*
G36*
X354470D02*
X352199D01*
Y389986D01*
X354470D01*
Y391864D01*
D02*
G37*
G36*
X302398Y390892D02*
X302115Y390855D01*
X301386Y390553D01*
X300759Y390072D01*
X300278Y389445D01*
X299976Y388715D01*
X299938Y388432D01*
X302398D01*
Y390892D01*
D02*
G37*
G36*
X303398D02*
Y388432D01*
X305859D01*
X305821Y388715D01*
X305519Y389445D01*
X305038Y390072D01*
X304411Y390553D01*
X303682Y390855D01*
X303398Y390892D01*
D02*
G37*
G36*
X334531Y392782D02*
X332456D01*
Y390511D01*
X334531D01*
Y392782D01*
D02*
G37*
G36*
X351199Y394742D02*
X348927D01*
Y392864D01*
X351199D01*
Y394742D01*
D02*
G37*
G36*
X354470D02*
X352199D01*
Y392864D01*
X354470D01*
Y394742D01*
D02*
G37*
G36*
X329863Y392782D02*
Y390511D01*
X331938D01*
Y392782D01*
X329863D01*
D02*
G37*
G36*
X337968Y392782D02*
X337787D01*
X337606D01*
X337468Y392782D01*
X335531D01*
Y390011D01*
Y387239D01*
X337468D01*
X337606Y387239D01*
X337787D01*
X337968D01*
X338106Y387239D01*
X343118D01*
Y392782D01*
X338106D01*
X337968Y392782D01*
D02*
G37*
G36*
X385029Y385584D02*
X384491Y383580D01*
X386686Y382992D01*
X387223Y384996D01*
X385029Y385584D01*
D02*
G37*
G36*
X308320Y385971D02*
Y383511D01*
X310780D01*
X310742Y383794D01*
X310440Y384524D01*
X309959Y385151D01*
X309333Y385631D01*
X308603Y385934D01*
X308320Y385971D01*
D02*
G37*
G36*
X372327Y385305D02*
X371773Y382697D01*
X374380Y382143D01*
X374935Y384751D01*
X372327Y385305D01*
D02*
G37*
G36*
X368742Y386067D02*
X368188Y383459D01*
X370795Y382905D01*
X371349Y385513D01*
X368742Y386067D01*
D02*
G37*
G36*
X381868Y386431D02*
X381331Y384427D01*
X383525Y383839D01*
X384063Y385843D01*
X381868Y386431D01*
D02*
G37*
G36*
X334531Y389511D02*
X332456D01*
Y387239D01*
X334531D01*
Y389511D01*
D02*
G37*
G36*
X331938Y389511D02*
X329863D01*
Y387239D01*
X331938D01*
Y389511D01*
D02*
G37*
G36*
X361544Y387597D02*
X360990Y384989D01*
X363597Y384435D01*
X364152Y387042D01*
X361544Y387597D01*
D02*
G37*
G36*
X357959Y388359D02*
X357405Y385752D01*
X360012Y385197D01*
X360566Y387805D01*
X357959Y388359D01*
D02*
G37*
%LPD*%
D10*
X304398Y383011D02*
D03*
D11*
X386667Y370196D02*
G03*
X385065Y369270I-339J-1264D01*
G01*
X392535Y374008D02*
G03*
X391764Y375343I-1053J282D01*
G01*
X387632Y361853D02*
G03*
X389579Y362977I411J1536D01*
G01*
X327914Y380627D02*
G03*
X329398Y382111I0J1484D01*
G01*
X337099Y383211D02*
G03*
X335251Y381364I0J-1847D01*
G01*
X329398Y374011D02*
G03*
X327902Y375508I-1497J0D01*
G01*
X419586Y355540D02*
G03*
X418527Y358163I-1841J781D01*
G01*
X412584Y344163D02*
G03*
X415206Y345223I781J1841D01*
G01*
X340539Y373398D02*
X370843Y366351D01*
X340543Y370479D02*
Y373344D01*
X397862Y371068D02*
X398992Y375288D01*
X400451Y376130D01*
X395369Y361850D02*
X397970Y357346D01*
X395369Y361850D02*
X395905Y363848D01*
X409553Y368996D02*
X410334Y371909D01*
X319453Y388894D02*
X323851Y388911D01*
X329398Y382111D02*
Y388911D01*
X329363D02*
X329398D01*
X323851Y383186D02*
Y388911D01*
X370843Y366351D02*
X387632Y361853D01*
X392800Y359786D02*
X393749Y358143D01*
X392800Y359786D02*
X394024Y364352D01*
X390740Y359702D02*
X392123Y364862D01*
X389605Y359047D02*
X390740Y359702D01*
X388299Y365886D02*
X388320Y365881D01*
X386667Y370196D02*
X389953Y369315D01*
X384576Y367448D02*
X385065Y369270D01*
X384520Y367463D02*
X384576Y367448D01*
X398137Y367155D02*
X402839Y365895D01*
X398129Y367124D02*
X398137Y367155D01*
X392157Y372597D02*
X392535Y374008D01*
X382436Y377842D02*
X391764Y375343D01*
X382436Y377842D02*
X382453Y377903D01*
X380538Y370757D02*
X382436Y377842D01*
X389579Y362977D02*
X390247Y365468D01*
X403807Y369504D02*
X403816Y369489D01*
X408053Y368354D01*
X397827Y363334D02*
X405633Y361242D01*
X323851Y375508D02*
X327902D01*
X316898Y372555D02*
X320898D01*
X311399D02*
X316898D01*
X320898D02*
X323851Y375508D01*
Y380627D02*
X327914D01*
X337099Y383211D02*
X340543D01*
X335251Y367011D02*
Y381364D01*
X340543Y383186D02*
Y383211D01*
X399763Y370559D02*
X403807Y369504D01*
X306251Y378090D02*
X323828D01*
X323851Y378067D01*
X302899Y378090D02*
X307346D01*
X405812Y360173D02*
X406885Y364049D01*
X387858Y364058D02*
X388345Y365874D01*
X388394Y366056D01*
X391403Y377885D02*
X394299Y377111D01*
X416037Y359235D02*
X418327Y358263D01*
X415206Y345223D02*
X419586Y355540D01*
X399011Y349924D02*
X412584Y344163D01*
X397189Y354433D02*
X399011Y349924D01*
X340543Y378067D02*
X364643D01*
X340543Y380627D02*
X352998D01*
X351698Y382267D02*
Y386458D01*
X397189Y354433D02*
X397970Y357346D01*
X376988Y359846D02*
X397189Y354433D01*
X353094Y365338D02*
X358303Y364084D01*
X363694Y362938D02*
X376988Y359846D01*
X358105Y373821D02*
X368888Y371529D01*
X340543Y373414D02*
Y375508D01*
D12*
X389953Y369315D02*
D03*
X394041Y368220D02*
D03*
X398129Y367124D02*
D03*
D13*
X302899Y378090D02*
D03*
X307820Y383011D02*
D03*
X302899Y387932D02*
D03*
D14*
X395369Y361850D02*
D03*
X410334Y371909D02*
D03*
X319453Y388894D02*
D03*
X387858Y364058D02*
D03*
X391403Y377885D02*
D03*
X340543Y373414D02*
D03*
Y388911D02*
D03*
D15*
X323867Y385911D02*
D03*
X319930D02*
D03*
D16*
X340543Y370479D02*
D03*
Y366542D02*
D03*
D17*
X401019Y375978D02*
D03*
X404821Y374959D02*
D03*
X393749Y358143D02*
D03*
X389946Y359162D02*
D03*
D18*
X311399Y372555D02*
D03*
Y378067D02*
D03*
X316898Y372555D02*
D03*
Y378067D02*
D03*
X351698Y376755D02*
D03*
Y382267D02*
D03*
D19*
X323851Y390011D02*
D03*
X329363D02*
D03*
X335031D02*
D03*
X340543D02*
D03*
D20*
X335251Y367011D02*
D03*
X329346D02*
D03*
X329346Y372011D02*
D03*
X335251D02*
D03*
D21*
X390256Y373106D02*
D03*
X392157Y372597D02*
D03*
X394059Y372087D02*
D03*
X395960Y371578D02*
D03*
X397862Y371068D02*
D03*
X399763Y370559D02*
D03*
X397827Y363334D02*
D03*
X395926Y363843D02*
D03*
X394024Y364352D02*
D03*
X392123Y364862D02*
D03*
X390221Y365371D02*
D03*
X388320Y365881D02*
D03*
D22*
X394041Y368220D02*
D03*
D23*
X383879Y383226D02*
D03*
X382453Y377903D02*
D03*
X380491Y370581D02*
D03*
X379064Y365257D02*
D03*
X406885Y364049D02*
D03*
X408312Y369373D02*
D03*
X404385Y354849D02*
D03*
X405812Y360173D02*
D03*
D24*
X402839Y365895D02*
D03*
X403858Y369698D02*
D03*
X396214Y380132D02*
D03*
X395195Y376329D02*
D03*
X384520Y367463D02*
D03*
X383501Y363661D02*
D03*
D25*
X360397Y384604D02*
D03*
X371180Y382312D02*
D03*
X368888Y371529D02*
D03*
X358105Y373821D02*
D03*
D26*
X364643Y378067D02*
D03*
D27*
X414499Y355611D02*
D03*
X416037Y359235D02*
D03*
X417576Y362860D02*
D03*
X419114Y366484D02*
D03*
D28*
X421650Y347015D02*
D03*
X430264Y367311D02*
D03*
D29*
X358303Y364084D02*
D03*
X363694Y362938D02*
D03*
X353094Y365338D02*
D03*
X347703Y366484D02*
D03*
D30*
X346698Y376558D02*
D03*
Y382464D02*
D03*
X351698Y386458D02*
D03*
Y392364D02*
D03*
D31*
X323851Y375508D02*
D03*
Y378067D02*
D03*
Y380627D02*
D03*
Y383186D02*
D03*
X340543D02*
D03*
Y380627D02*
D03*
Y378067D02*
D03*
Y375508D02*
D03*
D32*
X394059Y372087D02*
X395195Y376329D01*
X396214Y380132D02*
X397606Y377721D01*
X395960Y371578D02*
X397606Y377721D01*
M02*
