M48
;Layer_Color=6321
;FILE_FORMAT=2:5
INCH,LZ
;TYPE=PLATED
T1F00S00C0.01968
T2F00S00C0.03000
T3F00S00C0.03346
T4F00S00C0.03543
T5F00S00C0.03937
T6F00S00C0.04000
T7F00S00C0.04016
T8F00S00C0.04200
T9F00S00C0.04331
T10F00S00C0.04724
T11F00S00C0.08600
T12F00S00C0.09488
T13F00S00C0.11811
T14F00S00C0.12500
;TYPE=NON_PLATED
T15F00S00C0.04016
%
T01
X07754Y04514
X086045Y0453311
X086331Y0448079
X0891503Y0440882
X0894728Y044314
X0898021Y0445303
X0901246Y0447562
X10309Y04079
X10393Y04922
X1039256Y04969
X1004807Y0513927
X1001582Y0511669
X0998289Y0509506
X0995064Y0507247
X10009Y05386
X10114Y05664
X1028056Y05746
X1002923Y06025
X0989975Y0617225
X0968715Y06025
X09279Y06111
X09187Y0617663
X0909156Y05381
X08685Y05239
X08804Y05024
X0835246Y0470865
X0839136Y054898
X08362Y05598
T02
X1059553Y0294103
X1060019Y0304761
X1069728Y0290895
X1093261Y0320839
X1090952Y0331255
X1103919Y0320374
X1119933Y0354735
X1130348Y0357045
X1115008Y0364198
X1136025Y0393208
X1145487Y0398134
X1128818Y0401074
X113192Y043833
X1141383Y0433403
X114859Y0441269
X1132974Y0474298
X1122559Y0476608
X11379Y0483762
X1113096Y0510523
X1102437Y0510058
X1115404Y0520938
X1087103Y0542824
X1086637Y0553482
X1076928Y0539616
X10585Y06384
T03
X0868012Y0573164
X0876075Y0578809
X0884138Y0584455
X08922Y05901
T04
X1114511Y022508
X1122702Y0230815
X1130894Y0236551
X1125158Y0244743
X1116966Y0239007
X1108775Y0233271
X115655Y027482
X116421Y0268392
X1170638Y0276053
X1177066Y0283713
X1169406Y0290141
X1162978Y0282481
X1192976Y0326664
X1197202Y0335728
X1201429Y0344791
X1210492Y0340564
X1206266Y0331501
X1202039Y0322438
X1213844Y0384999
X1223692Y0383262
X1225429Y039311
X1215581Y0394847
X1217317Y0404695
X1227165Y0402958
X1227165Y0454042
X1217317Y0452305
X121558Y0462153
X1225429Y046389
X1223692Y0473738
X1213844Y0472001
X1210492Y0516435
X1206266Y0525498
X1202039Y0534562
X1192976Y0530336
X1197202Y0521272
X1201429Y0512209
X1177066Y0571287
X1169406Y0564859
X1162978Y0572519
X115655Y058018
X116421Y0586608
X1170638Y0578947
X1127431Y0609883
X1119239Y0615619
X1124975Y062381
X1133166Y0618074
X1111048Y0621354
X09072Y05872
X0899008Y0581464
X0890817Y0575729
X0882583Y0569972
X0874391Y0564236
X08662Y05585
X1116783Y0629546
T05
X1081351Y0623714
X1085445Y0634961
X1031555Y0641839
X1035649Y0653086
T06
X0941941Y0193988
X0944529Y0203647
X0954188Y0201059
X09516Y01914
X0932281Y0196576
X0922622Y0199165
X092521Y0208824
X093487Y0206236
X0915551Y0211412
X0905892Y0214
X0903304Y0204341
X0912963Y0201753
X08613Y02681
X0854229Y0275171
X0847158Y0282242
X0840087Y0289313
X0840087Y0303455
X0833016Y0296384
X0767931Y0365896
X0758082Y036416
X0756346Y0374008
X0754609Y0383856
X0764458Y0385592
X0762721Y039544
X0760985Y0405288
X0751136Y0403552
X0752873Y0393704
X07494Y04134
X0759248Y0415136
X0766194Y0375744
T07
X1103379Y0258412
X1096604Y0268087
X1135783Y0305299
X1144831Y0297708
X0796614Y0287272
X0838371Y0245513
X1165028Y035073
X1175733Y0345739
X118062Y0401011
X1192251Y039896
X1192251Y045804
X118062Y0455989
X1175733Y0511261
X1165028Y0506269
X1144831Y0557292
X1135783Y05497
X1098877Y0586539
X1105652Y0596214
X07986Y05262
X0787501Y053024
X0783462Y0519141
X079456Y0515101
X0790521Y0504003
X0786481Y0492904
X0782442Y0481805
X0771343Y0485845
X0775382Y0496943
X0779422Y0508042
X0778402Y0470706
X0767303Y0474746
T08
X0807691Y0281665
X0816035Y0290009
X0816049Y0273307
X0824406Y0281638
X0824407Y0264949
X0832757Y0273287
X0832765Y0256591
X0841109Y0264935
T09
X0981507Y0536906
X0878016Y047059
T10
X0934533Y0447218
X0928797Y045541
X0923061Y0463601
X0983682Y0481633
X0977946Y0489824
X097221Y0498016
X0966475Y0506207
X0960739Y0514399
X0955003Y052259
X0949267Y0530782
X0900118Y0496367
X0905854Y0488176
X091159Y0479984
X0917325Y0471793
T11
X0823823Y0310526
X0905848Y0317598
T12
X1106925Y0268104
X1134866Y0295019
X1145748Y0307988
X1093058Y0258394
X0842913Y0254787
X0805887Y0291813
X1166803Y0340563
X1173958Y0355906
X1184966Y039165
X1187906Y0408322
X1187906Y0448678
X1184966Y046535
X1173958Y0501094
X1166803Y0516437
X1145748Y0547012
X1134866Y0559981
X1109198Y0586521
X1095331Y0596231
T13
X0989925Y0270682
X0888272Y0211992
X0749982Y0430257
X0846133Y0362931
T14
X1027223Y0282511
X0949577Y0572289
T15
X1095827Y0248606
X1115177Y0262155
X1140074Y0286281
X1155258Y0304377
X0759786Y0464913
X1197947Y0447051
Y0409949
X1193845Y0386686
X1184079Y0354879
X1174095Y0333471
X1193845Y0470314
X1184079Y0502121
X1174095Y0523529
X1155258Y0550623
X1140074Y0568719
X1117449Y0592471
X1098099Y060602
X0788063Y0542604
M30
