G04*
G04 #@! TF.GenerationSoftware,Altium Limited,CircuitStudio,1.5.2 (30)*
G04*
G04 Layer_Physical_Order=4*
G04 Layer_Color=12500520*
%FSLAX25Y25*%
%MOIN*%
G70*
G01*
G75*
%ADD11C,0.01000*%
%ADD12C,0.04685*%
%ADD13C,0.02756*%
%ADD14R,0.04724X0.07087*%
%ADD15R,0.02362X0.06102*%
%ADD16R,0.06102X0.02362*%
%ADD17R,0.07087X0.04724*%
D11*
X297469Y337869D02*
Y343300D01*
X284400Y324800D02*
X297469Y337869D01*
X284400Y315900D02*
Y324800D01*
Y265100D02*
Y315900D01*
Y265100D02*
X293531Y255969D01*
Y247900D02*
Y255969D01*
X301406Y321294D02*
Y343300D01*
Y321294D02*
X314000Y308700D01*
Y250300D02*
Y308700D01*
X298700Y235000D02*
X314000Y250300D01*
X293100Y235000D02*
X298700D01*
X289594Y238506D02*
X293100Y235000D01*
X289594Y238506D02*
Y247900D01*
D12*
X295500Y351000D02*
D03*
Y241000D02*
D03*
D13*
X291200Y323524D02*
D03*
Y319587D02*
D03*
Y315649D02*
D03*
Y311712D02*
D03*
Y307774D02*
D03*
Y303837D02*
D03*
Y299899D02*
D03*
Y295962D02*
D03*
Y292025D02*
D03*
Y288087D02*
D03*
Y284150D02*
D03*
Y280212D02*
D03*
Y276275D02*
D03*
Y272337D02*
D03*
Y268400D02*
D03*
X284400Y315900D02*
D03*
X306622Y316000D02*
D03*
Y351422D02*
D03*
X313600Y356000D02*
D03*
X299644D02*
D03*
X306622Y301422D02*
D03*
Y310578D02*
D03*
X284378Y251422D02*
D03*
Y260578D02*
D03*
X301406Y250800D02*
D03*
X299644Y306000D02*
D03*
X277400D02*
D03*
X299644Y256000D02*
D03*
X277400D02*
D03*
X284378Y240578D02*
D03*
X277400Y236000D02*
D03*
X313600D02*
D03*
X297469Y250800D02*
D03*
X293531Y340400D02*
D03*
X289594D02*
D03*
X295100Y260300D02*
D03*
D14*
X306524Y358556D02*
D03*
X284476D02*
D03*
X306524Y232644D02*
D03*
X284476D02*
D03*
D15*
X289594Y343300D02*
D03*
X293531D02*
D03*
X297469D02*
D03*
X301406D02*
D03*
X289594Y247900D02*
D03*
X293531D02*
D03*
X297469D02*
D03*
X301406D02*
D03*
D16*
X293100Y295962D02*
D03*
Y292025D02*
D03*
Y288087D02*
D03*
Y284150D02*
D03*
Y268400D02*
D03*
Y272337D02*
D03*
Y276275D02*
D03*
Y280212D02*
D03*
Y307774D02*
D03*
Y303837D02*
D03*
Y299899D02*
D03*
Y311712D02*
D03*
Y315649D02*
D03*
Y319587D02*
D03*
Y323524D02*
D03*
D17*
X308356Y263282D02*
D03*
Y328642D02*
D03*
M02*
