G04*
G04 #@! TF.GenerationSoftware,Altium Limited,CircuitStudio,1.5.2 (30)*
G04*
G04 Layer_Color=13948096*
%FSLAX25Y25*%
%MOIN*%
G70*
G01*
G75*
%ADD11C,0.01000*%
D11*
X285774Y340937D02*
X283675D01*
X284725D01*
Y337789D01*
X282626Y339888D02*
X280527Y337789D01*
X281576Y338838D01*
X280527Y339888D01*
X282626Y337789D01*
X285774Y331537D02*
Y334685D01*
X284200D01*
X283675Y334161D01*
Y333111D01*
X284200Y332586D01*
X285774D01*
X284725D02*
X283675Y331537D01*
X282626Y333636D02*
X280527Y331537D01*
X281576Y332586D01*
X280527Y333636D01*
X282626Y331537D01*
X283675Y322182D02*
X285774D01*
Y320607D01*
X284725Y321132D01*
X284200D01*
X283675Y320607D01*
Y319558D01*
X284200Y319033D01*
X285249D01*
X285774Y319558D01*
X282626Y321132D02*
X281576Y319033D01*
X280527Y321132D01*
X283675Y327909D02*
X284200Y328433D01*
X285249D01*
X285774Y327909D01*
Y325810D01*
X285249Y325285D01*
X284200D01*
X283675Y325810D01*
Y326859D01*
X284725D01*
X282626Y325285D02*
Y328433D01*
X280527Y325285D01*
Y328433D01*
X279477D02*
Y325285D01*
X277903D01*
X277378Y325810D01*
Y327909D01*
X277903Y328433D01*
X279477D01*
X283675Y309678D02*
X285774D01*
Y308104D01*
X284725Y308628D01*
X284200D01*
X283675Y308104D01*
Y307054D01*
X284200Y306529D01*
X285249D01*
X285774Y307054D01*
X282626Y308628D02*
X281576Y306529D01*
X280527Y308628D01*
X283675Y315405D02*
X284200Y315930D01*
X285249D01*
X285774Y315405D01*
Y313306D01*
X285249Y312781D01*
X284200D01*
X283675Y313306D01*
Y314355D01*
X284725D01*
X282626Y312781D02*
Y315930D01*
X280527Y312781D01*
Y315930D01*
X279477D02*
Y312781D01*
X277903D01*
X277378Y313306D01*
Y315405D01*
X277903Y315930D01*
X279477D01*
X285774Y300277D02*
Y302377D01*
X284725Y303426D01*
X283675Y302377D01*
Y300277D01*
Y301852D01*
X285774D01*
X282626Y303426D02*
X281576D01*
X282101D01*
Y300277D01*
X282626D01*
X281576D01*
X280002Y302901D02*
X279477Y303426D01*
X278428D01*
X277903Y302901D01*
Y300802D01*
X278428Y300277D01*
X279477D01*
X280002Y300802D01*
Y302901D01*
X285774Y262766D02*
Y264865D01*
X284725Y265915D01*
X283675Y264865D01*
Y262766D01*
Y264341D01*
X285774D01*
X281051Y265915D02*
X282101D01*
X282626Y265390D01*
Y263291D01*
X282101Y262766D01*
X281051D01*
X280527Y263291D01*
Y265390D01*
X281051Y265915D01*
X277378Y262766D02*
X279477D01*
X277378Y264865D01*
Y265390D01*
X277903Y265915D01*
X278952D01*
X279477Y265390D01*
X283675Y252887D02*
X284200Y253411D01*
X285249D01*
X285774Y252887D01*
Y250787D01*
X285249Y250263D01*
X284200D01*
X283675Y250787D01*
Y251837D01*
X284725D01*
X282626Y250263D02*
Y253411D01*
X280527Y250263D01*
Y253411D01*
X279477D02*
Y250263D01*
X277903D01*
X277378Y250787D01*
Y252887D01*
X277903Y253411D01*
X279477D01*
X285774Y281522D02*
Y283621D01*
X284725Y284671D01*
X283675Y283621D01*
Y281522D01*
Y283096D01*
X285774D01*
X282626Y284671D02*
X281576D01*
X282101D01*
Y281522D01*
X282626D01*
X281576D01*
X280002Y284146D02*
X279477Y284671D01*
X278428D01*
X277903Y284146D01*
Y283621D01*
X278428Y283096D01*
X278952D01*
X278428D01*
X277903Y282572D01*
Y282047D01*
X278428Y281522D01*
X279477D01*
X280002Y282047D01*
X285774Y275270D02*
Y277369D01*
X284725Y278419D01*
X283675Y277369D01*
Y275270D01*
Y276844D01*
X285774D01*
X281051Y278419D02*
X282101D01*
X282626Y277894D01*
Y275795D01*
X282101Y275270D01*
X281051D01*
X280527Y275795D01*
Y277894D01*
X281051Y278419D01*
X279477Y277894D02*
X278952Y278419D01*
X277903D01*
X277378Y277894D01*
Y275795D01*
X277903Y275270D01*
X278952D01*
X279477Y275795D01*
Y277894D01*
X285774Y287774D02*
Y289873D01*
X284725Y290922D01*
X283675Y289873D01*
Y287774D01*
Y289348D01*
X285774D01*
X282626Y290922D02*
X281576D01*
X282101D01*
Y287774D01*
X282626D01*
X281576D01*
X277903D02*
X280002D01*
X277903Y289873D01*
Y290398D01*
X278428Y290922D01*
X279477D01*
X280002Y290398D01*
X285774Y294026D02*
Y296125D01*
X284725Y297174D01*
X283675Y296125D01*
Y294026D01*
Y295600D01*
X285774D01*
X282626Y297174D02*
X281576D01*
X282101D01*
Y294026D01*
X282626D01*
X281576D01*
X280002D02*
X278952D01*
X279477D01*
Y297174D01*
X280002Y296650D01*
X285774Y269018D02*
Y271117D01*
X284725Y272167D01*
X283675Y271117D01*
Y269018D01*
Y270593D01*
X285774D01*
X281051Y272167D02*
X282101D01*
X282626Y271642D01*
Y269543D01*
X282101Y269018D01*
X281051D01*
X280527Y269543D01*
Y271642D01*
X281051Y272167D01*
X279477Y269018D02*
X278428D01*
X278952D01*
Y272167D01*
X279477Y271642D01*
X285774Y256515D02*
Y258614D01*
X284725Y259663D01*
X283675Y258614D01*
Y256515D01*
Y258089D01*
X285774D01*
X281051Y259663D02*
X282101D01*
X282626Y259138D01*
Y257039D01*
X282101Y256515D01*
X281051D01*
X280527Y257039D01*
Y259138D01*
X281051Y259663D01*
X279477Y259138D02*
X278952Y259663D01*
X277903D01*
X277378Y259138D01*
Y258614D01*
X277903Y258089D01*
X278428D01*
X277903D01*
X277378Y257564D01*
Y257039D01*
X277903Y256515D01*
X278952D01*
X279477Y257039D01*
X314003Y241996D02*
Y243045D01*
Y242520D01*
X310854D01*
Y241996D01*
Y243045D01*
Y246719D02*
Y244620D01*
X312953Y246719D01*
X313478D01*
X314003Y246194D01*
Y245144D01*
X313478Y244620D01*
Y249867D02*
X314003Y249342D01*
Y248293D01*
X313478Y247768D01*
X311379D01*
X310854Y248293D01*
Y249342D01*
X311379Y249867D01*
X314003Y341208D02*
Y342258D01*
Y341733D01*
X310854D01*
Y341208D01*
Y342258D01*
Y345931D02*
Y343832D01*
X312953Y345931D01*
X313478D01*
X314003Y345407D01*
Y344357D01*
X313478Y343832D01*
Y349080D02*
X314003Y348555D01*
Y347505D01*
X313478Y346981D01*
X311379D01*
X310854Y347505D01*
Y348555D01*
X311379Y349080D01*
M02*
