G04*
G04 #@! TF.GenerationSoftware,Altium Limited,CircuitStudio,1.5.2 (30)*
G04*
G04 Layer_Color=20142*
%FSLAX25Y25*%
%MOIN*%
G70*
G01*
G75*
%ADD19R,0.09540X0.04816*%
%ADD20C,0.05485*%
%ADD21C,0.03556*%
D19*
X284378Y236000D02*
D03*
X306622D02*
D03*
X284378Y246000D02*
D03*
X306622D02*
D03*
X284378Y256000D02*
D03*
X306622D02*
D03*
X284378Y266000D02*
D03*
X306622D02*
D03*
X284378Y276000D02*
D03*
X306622D02*
D03*
X284378Y286000D02*
D03*
X306622D02*
D03*
X284378Y296000D02*
D03*
X306622D02*
D03*
X284378Y306000D02*
D03*
X306622D02*
D03*
X284378Y316000D02*
D03*
X306622D02*
D03*
X284378Y326000D02*
D03*
X306622D02*
D03*
X284378Y336000D02*
D03*
X306622D02*
D03*
X284378Y346000D02*
D03*
X306622D02*
D03*
X284378Y356000D02*
D03*
X306622D02*
D03*
D20*
X295500Y351000D02*
D03*
Y241000D02*
D03*
D21*
X291200Y323524D02*
D03*
Y319587D02*
D03*
Y315649D02*
D03*
Y311712D02*
D03*
Y307774D02*
D03*
Y303837D02*
D03*
Y299899D02*
D03*
Y295962D02*
D03*
Y292025D02*
D03*
Y288087D02*
D03*
Y284150D02*
D03*
Y280212D02*
D03*
Y276275D02*
D03*
Y272337D02*
D03*
Y268400D02*
D03*
X284400Y315900D02*
D03*
X306622Y316000D02*
D03*
Y351422D02*
D03*
X313600Y356000D02*
D03*
X299644D02*
D03*
X306622Y301422D02*
D03*
Y310578D02*
D03*
X284378Y251422D02*
D03*
Y260578D02*
D03*
X301406Y250800D02*
D03*
X299644Y306000D02*
D03*
X277400D02*
D03*
X299644Y256000D02*
D03*
X277400D02*
D03*
X284378Y240578D02*
D03*
X277400Y236000D02*
D03*
X313600D02*
D03*
X297469Y250800D02*
D03*
X293531Y340400D02*
D03*
X289594D02*
D03*
X295100Y260300D02*
D03*
M02*
