G04*
G04 #@! TF.GenerationSoftware,Altium Limited,CircuitStudio,1.5.2 (30)*
G04*
G04 Layer_Color=8150272*
%FSLAX25Y25*%
%MOIN*%
G70*
G01*
G75*
%ADD20C,0.05485*%
%ADD21C,0.03556*%
%ADD22R,0.05524X0.07887*%
%ADD23R,0.03162X0.06902*%
%ADD24R,0.06902X0.03162*%
%ADD25R,0.07887X0.05524*%
D20*
X295500Y351000D02*
D03*
Y241000D02*
D03*
D21*
X291200Y323524D02*
D03*
Y319587D02*
D03*
Y315649D02*
D03*
Y311712D02*
D03*
Y307774D02*
D03*
Y303837D02*
D03*
Y299899D02*
D03*
Y295962D02*
D03*
Y292025D02*
D03*
Y288087D02*
D03*
Y284150D02*
D03*
Y280212D02*
D03*
Y276275D02*
D03*
Y272337D02*
D03*
Y268400D02*
D03*
X284400Y315900D02*
D03*
X306622Y316000D02*
D03*
Y351422D02*
D03*
X313600Y356000D02*
D03*
X299644D02*
D03*
X306622Y301422D02*
D03*
Y310578D02*
D03*
X284378Y251422D02*
D03*
Y260578D02*
D03*
X301406Y250800D02*
D03*
X299644Y306000D02*
D03*
X277400D02*
D03*
X299644Y256000D02*
D03*
X277400D02*
D03*
X284378Y240578D02*
D03*
X277400Y236000D02*
D03*
X313600D02*
D03*
X297469Y250800D02*
D03*
X293531Y340400D02*
D03*
X289594D02*
D03*
X295100Y260300D02*
D03*
D22*
X306524Y358556D02*
D03*
X284476D02*
D03*
X306524Y232644D02*
D03*
X284476D02*
D03*
D23*
X289594Y343300D02*
D03*
X293531D02*
D03*
X297469D02*
D03*
X301406D02*
D03*
X289594Y247900D02*
D03*
X293531D02*
D03*
X297469D02*
D03*
X301406D02*
D03*
D24*
X293100Y295962D02*
D03*
Y292025D02*
D03*
Y288087D02*
D03*
Y284150D02*
D03*
Y268400D02*
D03*
Y272337D02*
D03*
Y276275D02*
D03*
Y280212D02*
D03*
Y307774D02*
D03*
Y303837D02*
D03*
Y299899D02*
D03*
Y311712D02*
D03*
Y315649D02*
D03*
Y319587D02*
D03*
Y323524D02*
D03*
D25*
X308356Y263282D02*
D03*
Y328642D02*
D03*
M02*
