G04*
G04 #@! TF.GenerationSoftware,Altium Limited,CircuitStudio,1.5.2 (30)*
G04*
G04 Layer_Physical_Order=3*
G04 Layer_Color=56745*
%FSLAX25Y25*%
%MOIN*%
G70*
G01*
G75*
%ADD13C,0.02756*%
G36*
X315937Y362500D02*
Y357683D01*
X315437Y357531D01*
X315314Y357714D01*
X314528Y358240D01*
X314100Y358325D01*
Y356000D01*
Y353675D01*
X314528Y353760D01*
X315314Y354286D01*
X315437Y354469D01*
X315937Y354317D01*
Y237683D01*
X315437Y237531D01*
X315314Y237714D01*
X314528Y238240D01*
X313600Y238424D01*
X312672Y238240D01*
X311886Y237714D01*
X311360Y236928D01*
X311175Y236000D01*
X311360Y235072D01*
X311886Y234286D01*
X312672Y233760D01*
X313600Y233576D01*
X314528Y233760D01*
X315314Y234286D01*
X315437Y234469D01*
X315937Y234317D01*
Y230500D01*
X312000Y226563D01*
X279000D01*
X275063Y230500D01*
Y234317D01*
X275563Y234469D01*
X275686Y234286D01*
X276472Y233760D01*
X277400Y233576D01*
X278328Y233760D01*
X279114Y234286D01*
X279640Y235072D01*
X279824Y236000D01*
X279640Y236928D01*
X279114Y237714D01*
X278328Y238240D01*
X277400Y238424D01*
X276472Y238240D01*
X275686Y237714D01*
X275563Y237531D01*
X275063Y237683D01*
Y254317D01*
X275563Y254469D01*
X275686Y254286D01*
X276472Y253760D01*
X277400Y253575D01*
X278328Y253760D01*
X279114Y254286D01*
X279640Y255072D01*
X279824Y256000D01*
X279640Y256928D01*
X279114Y257714D01*
X278328Y258240D01*
X277400Y258424D01*
X276472Y258240D01*
X275686Y257714D01*
X275563Y257531D01*
X275063Y257683D01*
Y304317D01*
X275563Y304469D01*
X275686Y304286D01*
X276472Y303760D01*
X277400Y303575D01*
X278328Y303760D01*
X279114Y304286D01*
X279640Y305072D01*
X279824Y306000D01*
X279640Y306928D01*
X279114Y307714D01*
X278328Y308240D01*
X277400Y308424D01*
X276472Y308240D01*
X275686Y307714D01*
X275563Y307531D01*
X275063Y307683D01*
Y362500D01*
X279000Y366437D01*
X312000D01*
X315937Y362500D01*
D02*
G37*
%LPC*%
G36*
X293525Y303337D02*
X288875D01*
X288960Y302909D01*
X289443Y302186D01*
X289493Y301979D01*
Y301757D01*
X289443Y301550D01*
X288960Y300827D01*
X288775Y299899D01*
X288960Y298971D01*
X289442Y298249D01*
X289492Y298040D01*
Y297821D01*
X289442Y297612D01*
X288960Y296890D01*
X288775Y295962D01*
X288960Y295034D01*
X289442Y294312D01*
X289492Y294103D01*
Y293884D01*
X289442Y293675D01*
X288960Y292953D01*
X288775Y292025D01*
X288960Y291097D01*
X289443Y290374D01*
X289493Y290167D01*
Y289945D01*
X289443Y289738D01*
X288960Y289015D01*
X288775Y288087D01*
X288960Y287159D01*
X289442Y286437D01*
X289492Y286228D01*
Y286009D01*
X289442Y285800D01*
X288960Y285078D01*
X288775Y284150D01*
X288960Y283222D01*
X289443Y282499D01*
X289493Y282293D01*
Y282069D01*
X289443Y281863D01*
X288960Y281140D01*
X288775Y280212D01*
X288960Y279284D01*
X289442Y278562D01*
X289492Y278353D01*
Y278134D01*
X289442Y277925D01*
X288960Y277203D01*
X288775Y276275D01*
X288960Y275347D01*
X289443Y274624D01*
X289493Y274417D01*
Y274195D01*
X289443Y273988D01*
X288960Y273265D01*
X288775Y272337D01*
X288960Y271409D01*
X289442Y270687D01*
X289492Y270478D01*
Y270259D01*
X289442Y270050D01*
X288960Y269328D01*
X288775Y268400D01*
X288960Y267472D01*
X289486Y266686D01*
X290272Y266160D01*
X291200Y265975D01*
X292128Y266160D01*
X292914Y266686D01*
X293440Y267472D01*
X293624Y268400D01*
X293440Y269328D01*
X292957Y270050D01*
X292908Y270259D01*
Y270478D01*
X292957Y270687D01*
X293440Y271409D01*
X293624Y272337D01*
X293440Y273265D01*
X292957Y273988D01*
X292908Y274195D01*
Y274417D01*
X292957Y274624D01*
X293440Y275347D01*
X293624Y276275D01*
X293440Y277203D01*
X292957Y277925D01*
X292908Y278134D01*
Y278353D01*
X292957Y278562D01*
X293440Y279284D01*
X293624Y280212D01*
X293440Y281140D01*
X292957Y281863D01*
X292908Y282069D01*
Y282293D01*
X292957Y282499D01*
X293440Y283222D01*
X293624Y284150D01*
X293440Y285078D01*
X292957Y285800D01*
X292908Y286009D01*
Y286228D01*
X292957Y286437D01*
X293440Y287159D01*
X293624Y288087D01*
X293440Y289015D01*
X292957Y289738D01*
X292908Y289945D01*
Y290167D01*
X292957Y290374D01*
X293440Y291097D01*
X293624Y292025D01*
X293440Y292953D01*
X292957Y293675D01*
X292908Y293884D01*
Y294103D01*
X292957Y294312D01*
X293440Y295034D01*
X293624Y295962D01*
X293440Y296890D01*
X292957Y297612D01*
X292908Y297821D01*
Y298040D01*
X292957Y298249D01*
X293440Y298971D01*
X293624Y299899D01*
X293440Y300827D01*
X292957Y301550D01*
X292908Y301757D01*
Y301979D01*
X292957Y302186D01*
X293440Y302909D01*
X293525Y303337D01*
D02*
G37*
G36*
X295600Y262625D02*
Y260800D01*
X297425D01*
X297340Y261228D01*
X296814Y262014D01*
X296028Y262540D01*
X295600Y262625D01*
D02*
G37*
G36*
X294600D02*
X294172Y262540D01*
X293386Y262014D01*
X292860Y261228D01*
X292775Y260800D01*
X294600D01*
Y262625D01*
D02*
G37*
G36*
X306622Y303847D02*
X305694Y303662D01*
X304908Y303136D01*
X304382Y302350D01*
X304198Y301422D01*
X304382Y300494D01*
X304908Y299708D01*
X305694Y299182D01*
X306622Y298997D01*
X307550Y299182D01*
X308336Y299708D01*
X308862Y300494D01*
X309047Y301422D01*
X308862Y302350D01*
X308336Y303136D01*
X307550Y303662D01*
X306622Y303847D01*
D02*
G37*
G36*
Y313002D02*
X305694Y312818D01*
X304908Y312292D01*
X304382Y311506D01*
X304198Y310578D01*
X304382Y309650D01*
X304908Y308863D01*
X305694Y308338D01*
X306622Y308153D01*
X307550Y308338D01*
X308336Y308863D01*
X308862Y309650D01*
X309047Y310578D01*
X308862Y311506D01*
X308336Y312292D01*
X307550Y312818D01*
X306622Y313002D01*
D02*
G37*
G36*
X293525Y311212D02*
X288875D01*
X288960Y310784D01*
X289443Y310061D01*
X289493Y309855D01*
Y309631D01*
X289443Y309425D01*
X288960Y308702D01*
X288775Y307774D01*
X288960Y306846D01*
X289442Y306124D01*
X289492Y305915D01*
Y305696D01*
X289442Y305487D01*
X288960Y304765D01*
X288875Y304337D01*
X293525D01*
X293440Y304765D01*
X292957Y305487D01*
X292908Y305696D01*
Y305915D01*
X292957Y306124D01*
X293440Y306846D01*
X293624Y307774D01*
X293440Y308702D01*
X292957Y309425D01*
X292908Y309631D01*
Y309855D01*
X292957Y310061D01*
X293440Y310784D01*
X293525Y311212D01*
D02*
G37*
G36*
X299644Y308424D02*
X298716Y308240D01*
X297930Y307714D01*
X297404Y306928D01*
X297220Y306000D01*
X297404Y305072D01*
X297930Y304286D01*
X298716Y303760D01*
X299644Y303575D01*
X300572Y303760D01*
X301359Y304286D01*
X301884Y305072D01*
X302069Y306000D01*
X301884Y306928D01*
X301359Y307714D01*
X300572Y308240D01*
X299644Y308424D01*
D02*
G37*
G36*
X284378Y263002D02*
X283450Y262818D01*
X282663Y262292D01*
X282138Y261506D01*
X281953Y260578D01*
X282138Y259650D01*
X282663Y258863D01*
X283450Y258338D01*
X284378Y258153D01*
X285306Y258338D01*
X286092Y258863D01*
X286618Y259650D01*
X286803Y260578D01*
X286618Y261506D01*
X286092Y262292D01*
X285306Y262818D01*
X284378Y263002D01*
D02*
G37*
G36*
Y253847D02*
X283450Y253662D01*
X282663Y253136D01*
X282138Y252350D01*
X281953Y251422D01*
X282138Y250494D01*
X282663Y249708D01*
X283450Y249182D01*
X284378Y248997D01*
X285306Y249182D01*
X286092Y249708D01*
X286618Y250494D01*
X286803Y251422D01*
X286618Y252350D01*
X286092Y253136D01*
X285306Y253662D01*
X284378Y253847D01*
D02*
G37*
G36*
Y243003D02*
X283450Y242818D01*
X282663Y242292D01*
X282138Y241506D01*
X281953Y240578D01*
X282138Y239650D01*
X282663Y238863D01*
X283450Y238338D01*
X284378Y238153D01*
X285306Y238338D01*
X286092Y238863D01*
X286618Y239650D01*
X286803Y240578D01*
X286618Y241506D01*
X286092Y242292D01*
X285306Y242818D01*
X284378Y243003D01*
D02*
G37*
G36*
X295500Y244371D02*
X294627Y244256D01*
X293814Y243920D01*
X293116Y243384D01*
X292580Y242686D01*
X292244Y241873D01*
X292129Y241000D01*
X292244Y240127D01*
X292580Y239314D01*
X293116Y238616D01*
X293814Y238080D01*
X294627Y237743D01*
X295500Y237629D01*
X296373Y237743D01*
X297186Y238080D01*
X297884Y238616D01*
X298420Y239314D01*
X298757Y240127D01*
X298871Y241000D01*
X298757Y241873D01*
X298420Y242686D01*
X297884Y243384D01*
X297186Y243920D01*
X296373Y244256D01*
X295500Y244371D01*
D02*
G37*
G36*
X301406Y253224D02*
X300478Y253040D01*
X299756Y252557D01*
X299547Y252508D01*
X299328D01*
X299119Y252557D01*
X298397Y253040D01*
X297469Y253224D01*
X296541Y253040D01*
X295755Y252514D01*
X295229Y251728D01*
X295044Y250800D01*
X295229Y249872D01*
X295755Y249086D01*
X296541Y248560D01*
X297469Y248376D01*
X298397Y248560D01*
X299119Y249043D01*
X299328Y249092D01*
X299547D01*
X299756Y249043D01*
X300478Y248560D01*
X301406Y248376D01*
X302334Y248560D01*
X303120Y249086D01*
X303646Y249872D01*
X303831Y250800D01*
X303646Y251728D01*
X303120Y252514D01*
X302334Y253040D01*
X301406Y253224D01*
D02*
G37*
G36*
X297425Y259800D02*
X295600D01*
Y257975D01*
X296028Y258060D01*
X296814Y258586D01*
X297340Y259372D01*
X297425Y259800D01*
D02*
G37*
G36*
X294600D02*
X292775D01*
X292860Y259372D01*
X293386Y258586D01*
X294172Y258060D01*
X294600Y257975D01*
Y259800D01*
D02*
G37*
G36*
X299644Y258424D02*
X298716Y258240D01*
X297930Y257714D01*
X297404Y256928D01*
X297220Y256000D01*
X297404Y255072D01*
X297930Y254286D01*
X298716Y253760D01*
X299644Y253575D01*
X300572Y253760D01*
X301359Y254286D01*
X301884Y255072D01*
X302069Y256000D01*
X301884Y256928D01*
X301359Y257714D01*
X300572Y258240D01*
X299644Y258424D01*
D02*
G37*
G36*
X301969Y355500D02*
X300144D01*
Y353675D01*
X300572Y353760D01*
X301359Y354286D01*
X301884Y355072D01*
X301969Y355500D01*
D02*
G37*
G36*
X299144D02*
X297319D01*
X297404Y355072D01*
X297930Y354286D01*
X298716Y353760D01*
X299144Y353675D01*
Y355500D01*
D02*
G37*
G36*
X307122Y353747D02*
Y351922D01*
X308947D01*
X308862Y352350D01*
X308336Y353136D01*
X307550Y353662D01*
X307122Y353747D01*
D02*
G37*
G36*
X313100Y355500D02*
X311275D01*
X311360Y355072D01*
X311886Y354286D01*
X312672Y353760D01*
X313100Y353675D01*
Y355500D01*
D02*
G37*
G36*
Y358325D02*
X312672Y358240D01*
X311886Y357714D01*
X311360Y356928D01*
X311275Y356500D01*
X313100D01*
Y358325D01*
D02*
G37*
G36*
X300144D02*
Y356500D01*
X301969D01*
X301884Y356928D01*
X301359Y357714D01*
X300572Y358240D01*
X300144Y358325D01*
D02*
G37*
G36*
X299144D02*
X298716Y358240D01*
X297930Y357714D01*
X297404Y356928D01*
X297319Y356500D01*
X299144D01*
Y358325D01*
D02*
G37*
G36*
X306122Y353747D02*
X305694Y353662D01*
X304908Y353136D01*
X304382Y352350D01*
X304297Y351922D01*
X306122D01*
Y353747D01*
D02*
G37*
G36*
X306622Y318425D02*
X305694Y318240D01*
X304908Y317714D01*
X304382Y316928D01*
X304198Y316000D01*
X304382Y315072D01*
X304908Y314286D01*
X305694Y313760D01*
X306622Y313576D01*
X307550Y313760D01*
X308336Y314286D01*
X308862Y315072D01*
X309047Y316000D01*
X308862Y316928D01*
X308336Y317714D01*
X307550Y318240D01*
X306622Y318425D01*
D02*
G37*
G36*
X284400Y318324D02*
X283472Y318140D01*
X282686Y317614D01*
X282160Y316828D01*
X281976Y315900D01*
X282160Y314972D01*
X282686Y314186D01*
X283472Y313660D01*
X284400Y313475D01*
X285328Y313660D01*
X286114Y314186D01*
X286640Y314972D01*
X286824Y315900D01*
X286640Y316828D01*
X286114Y317614D01*
X285328Y318140D01*
X284400Y318324D01*
D02*
G37*
G36*
X291200Y325949D02*
X290272Y325764D01*
X289486Y325238D01*
X288960Y324452D01*
X288775Y323524D01*
X288960Y322596D01*
X289442Y321874D01*
X289492Y321665D01*
Y321446D01*
X289442Y321237D01*
X288960Y320515D01*
X288775Y319587D01*
X288960Y318659D01*
X289443Y317936D01*
X289493Y317729D01*
Y317507D01*
X289443Y317300D01*
X288960Y316577D01*
X288775Y315649D01*
X288960Y314721D01*
X289442Y313999D01*
X289492Y313790D01*
Y313571D01*
X289442Y313362D01*
X288960Y312640D01*
X288875Y312212D01*
X293525D01*
X293440Y312640D01*
X292957Y313362D01*
X292908Y313571D01*
Y313790D01*
X292957Y313999D01*
X293440Y314721D01*
X293624Y315649D01*
X293440Y316577D01*
X292957Y317300D01*
X292908Y317507D01*
Y317729D01*
X292957Y317936D01*
X293440Y318659D01*
X293624Y319587D01*
X293440Y320515D01*
X292957Y321237D01*
X292908Y321446D01*
Y321665D01*
X292957Y321874D01*
X293440Y322596D01*
X293624Y323524D01*
X293440Y324452D01*
X292914Y325238D01*
X292128Y325764D01*
X291200Y325949D01*
D02*
G37*
G36*
X293531Y342825D02*
X292603Y342640D01*
X291881Y342158D01*
X291672Y342108D01*
X291453D01*
X291244Y342158D01*
X290522Y342640D01*
X289594Y342825D01*
X288666Y342640D01*
X287880Y342114D01*
X287354Y341328D01*
X287170Y340400D01*
X287354Y339472D01*
X287880Y338686D01*
X288666Y338160D01*
X289594Y337976D01*
X290522Y338160D01*
X291244Y338643D01*
X291453Y338692D01*
X291672D01*
X291881Y338643D01*
X292603Y338160D01*
X293531Y337976D01*
X294459Y338160D01*
X295245Y338686D01*
X295771Y339472D01*
X295955Y340400D01*
X295771Y341328D01*
X295245Y342114D01*
X294459Y342640D01*
X293531Y342825D01*
D02*
G37*
G36*
X308947Y350922D02*
X307122D01*
Y349097D01*
X307550Y349182D01*
X308336Y349708D01*
X308862Y350494D01*
X308947Y350922D01*
D02*
G37*
G36*
X306122D02*
X304297D01*
X304382Y350494D01*
X304908Y349708D01*
X305694Y349182D01*
X306122Y349097D01*
Y350922D01*
D02*
G37*
G36*
X295500Y354371D02*
X294627Y354257D01*
X293814Y353920D01*
X293116Y353384D01*
X292580Y352686D01*
X292244Y351873D01*
X292129Y351000D01*
X292244Y350127D01*
X292580Y349314D01*
X293116Y348616D01*
X293814Y348080D01*
X294627Y347744D01*
X295500Y347629D01*
X296373Y347744D01*
X297186Y348080D01*
X297884Y348616D01*
X298420Y349314D01*
X298757Y350127D01*
X298871Y351000D01*
X298757Y351873D01*
X298420Y352686D01*
X297884Y353384D01*
X297186Y353920D01*
X296373Y354257D01*
X295500Y354371D01*
D02*
G37*
%LPD*%
D13*
X291200Y311712D02*
D03*
Y303837D02*
D03*
X306622Y351422D02*
D03*
X313600Y356000D02*
D03*
X299644D02*
D03*
X295100Y260300D02*
D03*
M02*
