G04*
G04 #@! TF.GenerationSoftware,Altium Limited,CircuitStudio,1.5.2 (30)*
G04*
G04 Layer_Physical_Order=2*
G04 Layer_Color=16765976*
%FSLAX25Y25*%
%MOIN*%
G70*
G01*
G75*
%ADD13C,0.02756*%
G36*
X315937Y362500D02*
Y357683D01*
X315437Y357531D01*
X315314Y357714D01*
X314528Y358240D01*
X313600Y358424D01*
X312672Y358240D01*
X311886Y357714D01*
X311360Y356928D01*
X311175Y356000D01*
X311360Y355072D01*
X311886Y354286D01*
X312672Y353760D01*
X313600Y353575D01*
X314528Y353760D01*
X315314Y354286D01*
X315437Y354469D01*
X315937Y354317D01*
Y237683D01*
X315437Y237531D01*
X315314Y237714D01*
X314528Y238240D01*
X314100Y238325D01*
Y236000D01*
Y233675D01*
X314528Y233760D01*
X315314Y234286D01*
X315437Y234469D01*
X315937Y234317D01*
Y230500D01*
X312000Y226563D01*
X279000D01*
X275063Y230500D01*
Y234317D01*
X275563Y234469D01*
X275686Y234286D01*
X276472Y233760D01*
X276900Y233675D01*
Y236000D01*
Y238325D01*
X276472Y238240D01*
X275686Y237714D01*
X275563Y237531D01*
X275063Y237683D01*
Y254317D01*
X275563Y254469D01*
X275686Y254286D01*
X276472Y253760D01*
X276900Y253675D01*
Y256000D01*
Y258325D01*
X276472Y258240D01*
X275686Y257714D01*
X275563Y257531D01*
X275063Y257683D01*
Y304317D01*
X275563Y304469D01*
X275686Y304286D01*
X276472Y303760D01*
X276900Y303675D01*
Y306000D01*
Y308325D01*
X276472Y308240D01*
X275686Y307714D01*
X275563Y307531D01*
X275063Y307683D01*
Y362500D01*
X279000Y366437D01*
X312000D01*
X315937Y362500D01*
D02*
G37*
%LPC*%
G36*
X299144Y255500D02*
X297319D01*
X297404Y255072D01*
X297930Y254286D01*
X298716Y253760D01*
X299144Y253675D01*
Y255500D01*
D02*
G37*
G36*
X301969D02*
X300144D01*
Y253675D01*
X300572Y253760D01*
X301359Y254286D01*
X301884Y255072D01*
X301969Y255500D01*
D02*
G37*
G36*
X277900Y258325D02*
Y256500D01*
X279725D01*
X279640Y256928D01*
X279114Y257714D01*
X278328Y258240D01*
X277900Y258325D01*
D02*
G37*
G36*
X283878Y253747D02*
X283450Y253662D01*
X282663Y253136D01*
X282138Y252350D01*
X282053Y251922D01*
X283878D01*
Y253747D01*
D02*
G37*
G36*
X284878D02*
Y251922D01*
X286703D01*
X286618Y252350D01*
X286092Y253136D01*
X285306Y253662D01*
X284878Y253747D01*
D02*
G37*
G36*
X279725Y255500D02*
X277900D01*
Y253675D01*
X278328Y253760D01*
X279114Y254286D01*
X279640Y255072D01*
X279725Y255500D01*
D02*
G37*
G36*
X299144Y258325D02*
X298716Y258240D01*
X297930Y257714D01*
X297404Y256928D01*
X297319Y256500D01*
X299144D01*
Y258325D01*
D02*
G37*
G36*
X286703Y260078D02*
X284878D01*
Y258253D01*
X285306Y258338D01*
X286092Y258863D01*
X286618Y259650D01*
X286703Y260078D01*
D02*
G37*
G36*
X283878Y262903D02*
X283450Y262818D01*
X282663Y262292D01*
X282138Y261506D01*
X282053Y261078D01*
X283878D01*
Y262903D01*
D02*
G37*
G36*
X284878D02*
Y261078D01*
X286703D01*
X286618Y261506D01*
X286092Y262292D01*
X285306Y262818D01*
X284878Y262903D01*
D02*
G37*
G36*
X300144Y258325D02*
Y256500D01*
X301969D01*
X301884Y256928D01*
X301359Y257714D01*
X300572Y258240D01*
X300144Y258325D01*
D02*
G37*
G36*
X295100Y262724D02*
X294172Y262540D01*
X293386Y262014D01*
X292860Y261228D01*
X292675Y260300D01*
X292860Y259372D01*
X293386Y258586D01*
X294172Y258060D01*
X295100Y257875D01*
X296028Y258060D01*
X296814Y258586D01*
X297340Y259372D01*
X297524Y260300D01*
X297340Y261228D01*
X296814Y262014D01*
X296028Y262540D01*
X295100Y262724D01*
D02*
G37*
G36*
X283878Y260078D02*
X282053D01*
X282138Y259650D01*
X282663Y258863D01*
X283450Y258338D01*
X283878Y258253D01*
Y260078D01*
D02*
G37*
G36*
X301906Y253125D02*
Y251300D01*
X303731D01*
X303646Y251728D01*
X303120Y252514D01*
X302334Y253040D01*
X301906Y253125D01*
D02*
G37*
G36*
X313100Y238325D02*
X312672Y238240D01*
X311886Y237714D01*
X311360Y236928D01*
X311275Y236500D01*
X313100D01*
Y238325D01*
D02*
G37*
G36*
X295500Y244371D02*
X294627Y244256D01*
X293814Y243920D01*
X293116Y243384D01*
X292580Y242686D01*
X292244Y241873D01*
X292129Y241000D01*
X292244Y240127D01*
X292580Y239314D01*
X293116Y238616D01*
X293814Y238080D01*
X294627Y237743D01*
X295500Y237629D01*
X296373Y237743D01*
X297186Y238080D01*
X297884Y238616D01*
X298420Y239314D01*
X298757Y240127D01*
X298871Y241000D01*
X298757Y241873D01*
X298420Y242686D01*
X297884Y243384D01*
X297186Y243920D01*
X296373Y244256D01*
X295500Y244371D01*
D02*
G37*
G36*
X283878Y240078D02*
X282053D01*
X282138Y239650D01*
X282663Y238863D01*
X283450Y238338D01*
X283878Y238253D01*
Y240078D01*
D02*
G37*
G36*
X279725Y235500D02*
X277900D01*
Y233675D01*
X278328Y233760D01*
X279114Y234286D01*
X279640Y235072D01*
X279725Y235500D01*
D02*
G37*
G36*
X313100D02*
X311275D01*
X311360Y235072D01*
X311886Y234286D01*
X312672Y233760D01*
X313100Y233675D01*
Y235500D01*
D02*
G37*
G36*
X277900Y238325D02*
Y236500D01*
X279725D01*
X279640Y236928D01*
X279114Y237714D01*
X278328Y238240D01*
X277900Y238325D01*
D02*
G37*
G36*
X286703Y240078D02*
X284878D01*
Y238253D01*
X285306Y238338D01*
X286092Y238863D01*
X286618Y239650D01*
X286703Y240078D01*
D02*
G37*
G36*
X303731Y250300D02*
X301906D01*
Y248475D01*
X302334Y248560D01*
X303120Y249086D01*
X303646Y249872D01*
X303731Y250300D01*
D02*
G37*
G36*
X283878Y250922D02*
X282053D01*
X282138Y250494D01*
X282663Y249708D01*
X283450Y249182D01*
X283878Y249097D01*
Y250922D01*
D02*
G37*
G36*
X286703D02*
X284878D01*
Y249097D01*
X285306Y249182D01*
X286092Y249708D01*
X286618Y250494D01*
X286703Y250922D01*
D02*
G37*
G36*
X283878Y242903D02*
X283450Y242818D01*
X282663Y242292D01*
X282138Y241506D01*
X282053Y241078D01*
X283878D01*
Y242903D01*
D02*
G37*
G36*
X284878D02*
Y241078D01*
X286703D01*
X286618Y241506D01*
X286092Y242292D01*
X285306Y242818D01*
X284878Y242903D01*
D02*
G37*
G36*
X297469Y253224D02*
X296541Y253040D01*
X295755Y252514D01*
X295229Y251728D01*
X295044Y250800D01*
X295229Y249872D01*
X295755Y249086D01*
X296541Y248560D01*
X297469Y248376D01*
X298397Y248560D01*
X299119Y249043D01*
X299328Y249092D01*
X299547D01*
X299756Y249043D01*
X300478Y248560D01*
X300906Y248475D01*
Y250800D01*
Y253125D01*
X300478Y253040D01*
X299756Y252557D01*
X299547Y252508D01*
X299328D01*
X299119Y252557D01*
X298397Y253040D01*
X297469Y253224D01*
D02*
G37*
G36*
X307122Y312903D02*
Y311078D01*
X308947D01*
X308862Y311506D01*
X308336Y312292D01*
X307550Y312818D01*
X307122Y312903D01*
D02*
G37*
G36*
X284400Y318324D02*
X283472Y318140D01*
X282686Y317614D01*
X282160Y316828D01*
X281976Y315900D01*
X282160Y314972D01*
X282686Y314186D01*
X283472Y313660D01*
X284400Y313475D01*
X285328Y313660D01*
X286114Y314186D01*
X286640Y314972D01*
X286824Y315900D01*
X286640Y316828D01*
X286114Y317614D01*
X285328Y318140D01*
X284400Y318324D01*
D02*
G37*
G36*
X306622Y318425D02*
X305694Y318240D01*
X304908Y317714D01*
X304382Y316928D01*
X304198Y316000D01*
X304382Y315072D01*
X304908Y314286D01*
X305694Y313760D01*
X306622Y313576D01*
X307550Y313760D01*
X308336Y314286D01*
X308862Y315072D01*
X309047Y316000D01*
X308862Y316928D01*
X308336Y317714D01*
X307550Y318240D01*
X306622Y318425D01*
D02*
G37*
G36*
X308947Y310078D02*
X307122D01*
Y308253D01*
X307550Y308338D01*
X308336Y308863D01*
X308862Y309650D01*
X308947Y310078D01*
D02*
G37*
G36*
X293525Y315149D02*
X288875D01*
X288960Y314721D01*
X289442Y313999D01*
X289492Y313790D01*
Y313571D01*
X289442Y313362D01*
X288960Y312640D01*
X288775Y311712D01*
X288960Y310784D01*
X289443Y310061D01*
X289493Y309855D01*
Y309631D01*
X289443Y309425D01*
X288960Y308702D01*
X288875Y308274D01*
X293525D01*
X293440Y308702D01*
X292957Y309425D01*
X292908Y309631D01*
Y309855D01*
X292957Y310061D01*
X293440Y310784D01*
X293624Y311712D01*
X293440Y312640D01*
X292957Y313362D01*
X292908Y313571D01*
Y313790D01*
X292957Y313999D01*
X293440Y314721D01*
X293525Y315149D01*
D02*
G37*
G36*
X306122Y312903D02*
X305694Y312818D01*
X304908Y312292D01*
X304382Y311506D01*
X304297Y311078D01*
X306122D01*
Y312903D01*
D02*
G37*
G36*
X291200Y325949D02*
X290272Y325764D01*
X289486Y325238D01*
X288960Y324452D01*
X288775Y323524D01*
X288960Y322596D01*
X289442Y321874D01*
X289492Y321665D01*
Y321446D01*
X289442Y321237D01*
X288960Y320515D01*
X288775Y319587D01*
X288960Y318659D01*
X289443Y317936D01*
X289493Y317729D01*
Y317507D01*
X289443Y317300D01*
X288960Y316577D01*
X288875Y316149D01*
X293525D01*
X293440Y316577D01*
X292957Y317300D01*
X292908Y317507D01*
Y317729D01*
X292957Y317936D01*
X293440Y318659D01*
X293624Y319587D01*
X293440Y320515D01*
X292957Y321237D01*
X292908Y321446D01*
Y321665D01*
X292957Y321874D01*
X293440Y322596D01*
X293624Y323524D01*
X293440Y324452D01*
X292914Y325238D01*
X292128Y325764D01*
X291200Y325949D01*
D02*
G37*
G36*
X295500Y354371D02*
X294627Y354257D01*
X293814Y353920D01*
X293116Y353384D01*
X292580Y352686D01*
X292244Y351873D01*
X292129Y351000D01*
X292244Y350127D01*
X292580Y349314D01*
X293116Y348616D01*
X293814Y348080D01*
X294627Y347744D01*
X295500Y347629D01*
X296373Y347744D01*
X297186Y348080D01*
X297884Y348616D01*
X298420Y349314D01*
X298757Y350127D01*
X298871Y351000D01*
X298757Y351873D01*
X298420Y352686D01*
X297884Y353384D01*
X297186Y353920D01*
X296373Y354257D01*
X295500Y354371D01*
D02*
G37*
G36*
X306622Y353847D02*
X305694Y353662D01*
X304908Y353136D01*
X304382Y352350D01*
X304198Y351422D01*
X304382Y350494D01*
X304908Y349708D01*
X305694Y349182D01*
X306622Y348997D01*
X307550Y349182D01*
X308336Y349708D01*
X308862Y350494D01*
X309047Y351422D01*
X308862Y352350D01*
X308336Y353136D01*
X307550Y353662D01*
X306622Y353847D01*
D02*
G37*
G36*
X299644Y358424D02*
X298716Y358240D01*
X297930Y357714D01*
X297404Y356928D01*
X297220Y356000D01*
X297404Y355072D01*
X297930Y354286D01*
X298716Y353760D01*
X299644Y353575D01*
X300572Y353760D01*
X301359Y354286D01*
X301884Y355072D01*
X302069Y356000D01*
X301884Y356928D01*
X301359Y357714D01*
X300572Y358240D01*
X299644Y358424D01*
D02*
G37*
G36*
X289094Y339900D02*
X287269D01*
X287354Y339472D01*
X287880Y338686D01*
X288666Y338160D01*
X289094Y338075D01*
Y339900D01*
D02*
G37*
G36*
Y342725D02*
X288666Y342640D01*
X287880Y342114D01*
X287354Y341328D01*
X287269Y340900D01*
X289094D01*
Y342725D01*
D02*
G37*
G36*
X293531Y342825D02*
X292603Y342640D01*
X291881Y342158D01*
X291672Y342108D01*
X291453D01*
X291244Y342158D01*
X290522Y342640D01*
X290094Y342725D01*
Y340400D01*
Y338075D01*
X290522Y338160D01*
X291244Y338643D01*
X291453Y338692D01*
X291672D01*
X291881Y338643D01*
X292603Y338160D01*
X293531Y337976D01*
X294459Y338160D01*
X295245Y338686D01*
X295771Y339472D01*
X295955Y340400D01*
X295771Y341328D01*
X295245Y342114D01*
X294459Y342640D01*
X293531Y342825D01*
D02*
G37*
G36*
X306122Y310078D02*
X304297D01*
X304382Y309650D01*
X304908Y308863D01*
X305694Y308338D01*
X306122Y308253D01*
Y310078D01*
D02*
G37*
G36*
Y300922D02*
X304297D01*
X304382Y300494D01*
X304908Y299708D01*
X305694Y299182D01*
X306122Y299097D01*
Y300922D01*
D02*
G37*
G36*
X308947D02*
X307122D01*
Y299097D01*
X307550Y299182D01*
X308336Y299708D01*
X308862Y300494D01*
X308947Y300922D01*
D02*
G37*
G36*
X306122Y303747D02*
X305694Y303662D01*
X304908Y303136D01*
X304382Y302350D01*
X304297Y301922D01*
X306122D01*
Y303747D01*
D02*
G37*
G36*
X290700Y267900D02*
X288875D01*
X288960Y267472D01*
X289486Y266686D01*
X290272Y266160D01*
X290700Y266075D01*
Y267900D01*
D02*
G37*
G36*
X293525D02*
X291700D01*
Y266075D01*
X292128Y266160D01*
X292914Y266686D01*
X293440Y267472D01*
X293525Y267900D01*
D02*
G37*
G36*
Y307274D02*
X288875D01*
X288960Y306846D01*
X289442Y306124D01*
X289492Y305915D01*
Y305696D01*
X289442Y305487D01*
X288960Y304765D01*
X288775Y303837D01*
X288960Y302909D01*
X289443Y302186D01*
X289493Y301979D01*
Y301757D01*
X289443Y301550D01*
X288960Y300827D01*
X288775Y299899D01*
X288960Y298971D01*
X289442Y298249D01*
X289492Y298040D01*
Y297821D01*
X289442Y297612D01*
X288960Y296890D01*
X288775Y295962D01*
X288960Y295034D01*
X289442Y294312D01*
X289492Y294103D01*
Y293884D01*
X289442Y293675D01*
X288960Y292953D01*
X288775Y292025D01*
X288960Y291097D01*
X289443Y290374D01*
X289493Y290167D01*
Y289945D01*
X289443Y289738D01*
X288960Y289015D01*
X288775Y288087D01*
X288960Y287159D01*
X289442Y286437D01*
X289492Y286228D01*
Y286009D01*
X289442Y285800D01*
X288960Y285078D01*
X288775Y284150D01*
X288960Y283222D01*
X289443Y282499D01*
X289493Y282293D01*
Y282069D01*
X289443Y281863D01*
X288960Y281140D01*
X288775Y280212D01*
X288960Y279284D01*
X289442Y278562D01*
X289492Y278353D01*
Y278134D01*
X289442Y277925D01*
X288960Y277203D01*
X288775Y276275D01*
X288960Y275347D01*
X289443Y274624D01*
X289493Y274417D01*
Y274195D01*
X289443Y273988D01*
X288960Y273265D01*
X288775Y272337D01*
X288960Y271409D01*
X289442Y270687D01*
X289492Y270478D01*
Y270259D01*
X289442Y270050D01*
X288960Y269328D01*
X288875Y268900D01*
X293525D01*
X293440Y269328D01*
X292957Y270050D01*
X292908Y270259D01*
Y270478D01*
X292957Y270687D01*
X293440Y271409D01*
X293624Y272337D01*
X293440Y273265D01*
X292957Y273988D01*
X292908Y274195D01*
Y274417D01*
X292957Y274624D01*
X293440Y275347D01*
X293624Y276275D01*
X293440Y277203D01*
X292957Y277925D01*
X292908Y278134D01*
Y278353D01*
X292957Y278562D01*
X293440Y279284D01*
X293624Y280212D01*
X293440Y281140D01*
X292957Y281863D01*
X292908Y282069D01*
Y282293D01*
X292957Y282499D01*
X293440Y283222D01*
X293624Y284150D01*
X293440Y285078D01*
X292957Y285800D01*
X292908Y286009D01*
Y286228D01*
X292957Y286437D01*
X293440Y287159D01*
X293624Y288087D01*
X293440Y289015D01*
X292957Y289738D01*
X292908Y289945D01*
Y290167D01*
X292957Y290374D01*
X293440Y291097D01*
X293624Y292025D01*
X293440Y292953D01*
X292957Y293675D01*
X292908Y293884D01*
Y294103D01*
X292957Y294312D01*
X293440Y295034D01*
X293624Y295962D01*
X293440Y296890D01*
X292957Y297612D01*
X292908Y297821D01*
Y298040D01*
X292957Y298249D01*
X293440Y298971D01*
X293624Y299899D01*
X293440Y300827D01*
X292957Y301550D01*
X292908Y301757D01*
Y301979D01*
X292957Y302186D01*
X293440Y302909D01*
X293624Y303837D01*
X293440Y304765D01*
X292957Y305487D01*
X292908Y305696D01*
Y305915D01*
X292957Y306124D01*
X293440Y306846D01*
X293525Y307274D01*
D02*
G37*
G36*
X307122Y303747D02*
Y301922D01*
X308947D01*
X308862Y302350D01*
X308336Y303136D01*
X307550Y303662D01*
X307122Y303747D01*
D02*
G37*
G36*
X277900Y308325D02*
Y306500D01*
X279725D01*
X279640Y306928D01*
X279114Y307714D01*
X278328Y308240D01*
X277900Y308325D01*
D02*
G37*
G36*
X299144D02*
X298716Y308240D01*
X297930Y307714D01*
X297404Y306928D01*
X297319Y306500D01*
X299144D01*
Y308325D01*
D02*
G37*
G36*
X300144D02*
Y306500D01*
X301969D01*
X301884Y306928D01*
X301359Y307714D01*
X300572Y308240D01*
X300144Y308325D01*
D02*
G37*
G36*
X279725Y305500D02*
X277900D01*
Y303675D01*
X278328Y303760D01*
X279114Y304286D01*
X279640Y305072D01*
X279725Y305500D01*
D02*
G37*
G36*
X299144D02*
X297319D01*
X297404Y305072D01*
X297930Y304286D01*
X298716Y303760D01*
X299144Y303675D01*
Y305500D01*
D02*
G37*
G36*
X301969D02*
X300144D01*
Y303675D01*
X300572Y303760D01*
X301359Y304286D01*
X301884Y305072D01*
X301969Y305500D01*
D02*
G37*
%LPD*%
D13*
X291200Y315649D02*
D03*
Y307774D02*
D03*
Y268400D02*
D03*
X306622Y301422D02*
D03*
Y310578D02*
D03*
X284378Y251422D02*
D03*
Y260578D02*
D03*
X301406Y250800D02*
D03*
X299644Y306000D02*
D03*
X277400D02*
D03*
X299644Y256000D02*
D03*
X277400D02*
D03*
X284378Y240578D02*
D03*
X277400Y236000D02*
D03*
X313600D02*
D03*
X289594Y340400D02*
D03*
M02*
