M48
;Layer_Color=6321
;FILE_FORMAT=2:5
INCH,LZ
;TYPE=PLATED
T1F00S00C0.02362
;TYPE=NON_PLATED
T2F00S00C0.04685
%
T01
X03136Y0236
X0301406Y02508
X0297469
X0299644Y0256
X02951Y02603
X0284378Y0260578
Y0251422
Y0240578
X02774Y0236
Y0256
X02912Y02684
Y0272337
Y0276275
Y0280212
Y028415
Y0288087
Y0292025
Y0295962
Y0299899
Y0303837
Y0307774
Y0311712
X0299644Y0306
X0306622Y0301422
Y0310578
X02774Y0306
X02844Y03159
X02912Y0315649
Y0319587
Y0323524
X0289594Y03404
X0293531
X0299644Y0356
X0306622Y0351422
Y0316
X03136Y0356
T02
X02955Y0241
Y0351
M30
